<svg width="36" height="36" viewBox="0 0 36 36" fill="none" xmlns="http://www.w3.org/2000/svg">
<g clip-path="url(#clip0_672_3933)">
<path d="M27.0197 19.1316C26.9987 20.6342 27.4042 22.1119 28.1891 23.3933C28.9741 24.6747 30.1062 25.7073 31.4543 26.3712C30.9299 28.1648 30.1605 29.8773 29.1677 31.4604C27.7877 33.6402 26.3609 35.8122 24.1091 35.8572C21.8969 35.9022 21.1853 34.4364 18.6557 34.4364C16.1261 34.4364 15.3365 35.8122 13.2419 35.901C11.0687 35.991 9.4133 33.5442 8.0219 31.3722C5.1869 26.9298 3.0185 18.819 5.9285 13.344C6.56226 12.0523 7.53147 10.9546 8.73475 10.1657C9.93804 9.37682 11.3312 8.92573 12.7685 8.85964C14.9027 8.81464 16.9181 10.4142 18.2219 10.4142C19.5257 10.4142 21.9737 8.49124 24.5477 8.77384C25.7659 8.83603 26.951 9.19116 28.0027 9.8091C29.0543 10.427 29.9413 11.2895 30.5885 12.3234C29.4797 13.0775 28.5738 14.0931 27.9509 15.2806C27.328 16.4681 27.0073 17.7908 27.0173 19.1316M22.8611 5.83564C24.121 4.20941 24.7332 2.17385 24.5795 0.122437C23.6292 0.230152 22.7097 0.525315 21.8742 0.990834C21.0387 1.45635 20.3039 2.08298 19.7123 2.83444C18.4449 4.38888 17.8181 6.3682 17.9597 8.36884C19.8137 8.52424 21.7073 7.34884 22.8611 5.83504" fill="#0383FE"/>
</g>
<defs>
<clipPath id="clip0_672_3933">
<rect width="36" height="36" fill="white"/>
</clipPath>
</defs>
</svg>
