<svg width="52" height="53" viewBox="0 0 52 53" fill="none" xmlns="http://www.w3.org/2000/svg">
<path d="M18.6377 21.2155L13.3217 24.1567C13.1224 24.2661 13 24.4698 13 24.6897V30.5755C13 30.7954 13.1224 30.998 13.3217 31.1085L18.6388 34.0519C18.837 34.1613 19.0829 34.1613 19.2812 34.0519L24.5971 31.1085C24.7943 30.998 24.9167 30.7954 24.9167 30.5755V24.6897C24.9167 24.4698 24.7942 24.2672 24.5949 24.1567L19.2801 21.2155C19.1804 21.1602 19.0688 21.1331 18.9583 21.1331C18.8468 21.1331 18.7362 21.1602 18.6366 21.2155M45.9886 26.514L45.1024 27.0037C45.0688 27.0221 45.0493 27.0557 45.0493 27.0925V28.074C45.0493 28.1109 45.0699 28.1445 45.1024 28.1629L45.9886 28.6536C46.0222 28.672 46.0623 28.672 46.0958 28.6536L46.982 28.1629C47.0145 28.1445 47.0351 28.1109 47.0351 28.074V27.0925C47.0351 27.0557 47.0145 27.0221 46.9809 27.0037L46.0947 26.514C46.0785 26.5043 46.0601 26.5 46.0417 26.5C46.0233 26.5 46.0048 26.5043 45.9886 26.514Z" fill="#0383FE"/>
<path d="M38.7299 14.9777L36.1418 13.5336C36.0606 13.4881 35.9609 13.4892 35.8808 13.5369C35.8006 13.5845 35.7508 13.6701 35.7508 13.7633L35.7497 22.4863L33.3631 21.1657C33.2634 21.1104 33.1518 21.0834 33.0413 21.0834C32.9308 21.0834 32.8193 21.1104 32.7196 21.1657H32.7207L27.4048 24.1069C27.2054 24.2164 27.083 24.42 27.083 24.6389V30.5246C27.083 30.7445 27.2054 30.9471 27.4048 31.0576L32.7218 34.001C32.92 34.1104 33.1659 34.1104 33.3642 34.001L38.6801 31.0576C38.8773 30.9482 38.9997 30.7445 38.9997 30.5246V15.437C38.9997 15.2464 38.8957 15.0709 38.7299 14.9777ZM35.6045 29.1629L33.1887 30.5008C33.0988 30.5506 32.9872 30.5506 32.8973 30.5008L30.4803 29.1629C30.3883 29.113 30.333 29.0199 30.333 28.9202V26.2444C30.333 26.1447 30.3883 26.0526 30.4793 26.0017L32.8962 24.6649C32.9417 24.6399 32.9904 24.628 33.0413 24.628C33.0923 24.628 33.1421 24.641 33.1876 24.6649L35.6034 26.0017C35.6944 26.0526 35.7497 26.1458 35.7497 26.2454V28.9213C35.7497 29.0199 35.6944 29.113 35.6045 29.1629Z" fill="#0383FE"/>
<path d="M18.6377 21.2155L13 30.5755C13 30.7954 13.1224 30.998 13.3217 31.1085L18.6388 34.0519C18.837 34.1613 19.0829 34.1613 19.2812 34.0519L24.9167 24.6897C24.9167 24.4698 24.7942 24.2672 24.5949 24.1567L19.2801 21.2155C19.1804 21.1602 19.0688 21.1331 18.9583 21.1331C18.8468 21.1331 18.7362 21.1602 18.6366 21.2155" fill="#0383FE"/>
<path d="M18.6377 21.2155L13.3217 24.1567C13.1224 24.2661 13 24.4698 13 24.6897L18.6377 34.0519C18.8359 34.1613 19.0818 34.1613 19.2801 34.0519L24.596 31.1085C24.7943 30.998 24.9167 30.7954 24.9167 30.5755L19.2801 21.2155C19.1804 21.1602 19.0688 21.1331 18.9583 21.1331C18.8468 21.1331 18.7362 21.1602 18.6366 21.2155" fill="#0383FE"/>
<path d="M51.6782 24.1069L46.3634 21.1656C46.2638 21.1104 46.1522 21.0833 46.0417 21.0833C45.9312 21.0833 45.8196 21.1104 45.7199 21.1656L40.4051 24.1069C40.2068 24.2163 40.0833 24.4243 40.0833 24.6518V30.5137C40.0833 30.7401 40.2068 30.9492 40.4051 31.0586L45.7221 34.0021C45.9214 34.1126 46.1652 34.1126 46.3645 34.0021L48.8161 32.6446C49.0403 32.5201 49.0392 32.1983 48.8139 32.0748L43.4796 29.1639C43.3897 29.113 43.3333 29.0187 43.3333 28.9169V26.2454C43.3333 26.1457 43.3875 26.0536 43.4742 26.006L45.8954 24.667H45.8943C45.9398 24.6421 45.9897 24.6301 46.0406 24.6301C46.0915 24.6301 46.1413 24.6431 46.1868 24.667L48.6081 26.0071C48.6948 26.0547 48.7489 26.1468 48.7489 26.2465V28.4261C48.7489 28.5193 48.7988 28.606 48.88 28.6526C48.9613 28.6981 49.0609 28.6981 49.1422 28.6515L51.74 27.1424C51.9003 27.0492 52 26.877 52 26.6906V24.654C52 24.4254 51.8765 24.2163 51.6782 24.1069ZM11.5949 24.1069L6.28008 21.1656C6.18042 21.1104 6.06883 21.0833 5.95833 21.0833C5.84783 21.0833 5.73625 21.1104 5.63658 21.1656L0.32175 24.1069C0.1235 24.2163 0 24.4243 0 24.6518V32.7389C0 32.8321 0.0498333 32.9187 0.131083 32.9653C0.212333 33.0108 0.312 33.0108 0.39325 32.9642L2.99108 31.4551C3.15142 31.362 3.25 31.1897 3.25 31.0034V26.2443C3.25 26.1446 3.30417 26.0526 3.39083 26.0049L5.81208 24.6659C5.85758 24.641 5.90742 24.6291 5.95833 24.6291C6.00925 24.6291 6.05908 24.6421 6.10458 24.6659L8.52583 26.006C8.6125 26.0536 8.66667 26.1457 8.66667 26.2454V31.0045C8.66667 31.1908 8.76525 31.3631 8.92667 31.4562L11.5245 32.9653C11.6058 33.0119 11.7054 33.0119 11.7867 32.9664C11.8668 32.9187 11.9167 32.8321 11.9167 32.7389V24.6529C11.9167 24.4254 11.7932 24.2163 11.5949 24.1069Z" fill="#0383FE"/>
</svg>
