<svg xmlns="http://www.w3.org/2000/svg" width="100" height="100" viewBox="0 0 100 100">
  <g id="admin_penal" transform="translate(18773 11111)">
    <rect id="Rectangle_175" data-name="Rectangle 175" width="100" height="100" transform="translate(-18773 -11111)" fill="none"/>
    <g id="admin_penal-2" data-name="admin_penal" transform="translate(-18772 -11111)">
      <path id="Path_196" data-name="Path 196" d="M20.424,23.027A23.027,23.027,0,1,1,43.451,46.053,23.026,23.026,0,0,1,20.424,23.027M3.857,61.929a82.838,82.838,0,0,1,39.894-9.695,13.116,13.116,0,0,0-.984,5v21.93A13.162,13.162,0,0,0,53.73,92.142H7.676A7.676,7.676,0,0,1,0,84.466V68.347A7.269,7.269,0,0,1,3.857,61.929Z" fill="#fafafa" fill-rule="evenodd"/>
      <rect id="Rectangle_176" data-name="Rectangle 176" width="43.861" height="30.703" rx="11.755" transform="translate(51.539 52.85)" fill="#fafafa"/>
      <path id="Path_197" data-name="Path 197" d="M129.309,140.5a7.675,7.675,0,0,1,7.676-7.675h35.088a7.675,7.675,0,0,1,7.676,7.675v21.93a7.676,7.676,0,0,1-7.676,7.676H157.818v6.579h3.289a3.289,3.289,0,1,1,0,6.579H147.95a3.289,3.289,0,1,1,0-6.579h3.289v-6.579H136.985a7.676,7.676,0,0,1-7.676-7.676Zm42.764,23.027H136.985a1.1,1.1,0,0,1-1.1-1.1V140.5a1.1,1.1,0,0,1,1.1-1.1h35.088a1.1,1.1,0,0,1,1.1,1.1v21.93A1.1,1.1,0,0,1,172.073,163.527Z" transform="translate(-81.061 -83.265)" fill="#fafafa" fill-rule="evenodd"/>
      <rect id="Rectangle_177" data-name="Rectangle 177" width="98.688" height="100" fill="none"/>
    </g>
  </g>
</svg>
