<svg xmlns="http://www.w3.org/2000/svg" width="50" height="50" viewBox="0 0 50 50">
  <g id="area_converter" transform="translate(16208.207 12942.207)">
    <rect id="Rectangle_181" data-name="Rectangle 181" width="50" height="50" transform="translate(-16208.206 -12942.207)" fill="none"/>
    <g id="area_converter-2" data-name="area_converter" transform="translate(-16208 -12933.494)">
      <path id="Path_205" data-name="Path 205" d="M119.937,64.734v6.93a.84.84,0,0,1-.84.84h-7.875a.84.84,0,0,1-.84-.84V64.84l-.066-.089,4.822-3.571Z" transform="translate(-72.779 -40.361)" fill="#e4f4f7"/>
      <path id="Path_206" data-name="Path 206" d="M119.937,62.734V65.7l-4.3-3.185a.84.84,0,0,0-1,0l-4.256,3.153V62.84l-.066-.089,4.822-3.571Z" transform="translate(-72.779 -39.043)" fill="#d3f2f4"/>
      <path id="Path_207" data-name="Path 207" d="M1.268,32.035V2.108a.84.84,0,0,1,.84-.84H18.174a.84.84,0,0,1,.84.84V32.035a.84.84,0,0,1-.84.84H2.108a.84.84,0,0,1-.84-.84" transform="translate(-0.837 -0.837)" fill="#d2f3f9"/>
      <path id="Path_212" data-name="Path 212" d="M37.6,32.574a.432.432,0,0,1-.431-.431V25.2l-1.351,1a.432.432,0,0,1-.514-.694l6.8-5.033a.432.432,0,0,1,.257-.085.426.426,0,0,1,.257.085l6.8,5.033a.432.432,0,0,1-.514.694l-6.538-4.843-4.324,3.2v7.154h8.692V29.623a.432.432,0,1,1,.863,0v2.52a.432.432,0,0,1-.432.431Zm-32.131-.1a.432.432,0,0,1-.432-.432V26.052a.432.432,0,0,1,.432-.431h7.665a.432.432,0,0,1,.432.431v2.731a.432.432,0,0,1-.863,0v-2.3H5.9v5.122H17.746V.864H.863V32.038a.432.432,0,1,1-.863,0V.432A.432.432,0,0,1,.432,0H18.177a.432.432,0,0,1,.432.432V32.038a.432.432,0,0,1-.432.432ZM14.082,20.5a.432.432,0,0,1-.432-.431V7.047a.432.432,0,1,1,.863,0V20.068a.432.432,0,0,1-.431.431m-4.737,0a.432.432,0,0,1-.431-.431V7.047a.432.432,0,1,1,.863,0V20.068a.432.432,0,0,1-.432.431m-4.819,0a.432.432,0,0,1-.431-.431V7.047a.432.432,0,1,1,.863,0V20.068a.432.432,0,0,1-.432.431m37.8-3.15a.424.424,0,0,1-.336-.162l-.023-.026-1.886-1.986a.432.432,0,0,1,.313-.729.428.428,0,0,1,.313.134l1.188,1.25v-5.2H34.769l-.069.323a3.581,3.581,0,0,1-7,0l-.069-.323H22.273a.432.432,0,1,1,0-.863h5.355l.069-.323a3.581,3.581,0,0,1,7,0l.069.323h7.56a.432.432,0,0,1,.431.432v5.591l1.148-1.208a.432.432,0,1,1,.626.595l-1.8,1.892-.026.05a.427.427,0,0,1-.383.231M31.2,7.479A2.719,2.719,0,1,0,33.916,10.2,2.722,2.722,0,0,0,31.2,7.479" fill="#2d3745"/>
    </g>
  </g>
</svg>
