<svg xmlns="http://www.w3.org/2000/svg" width="50" height="50" viewBox="0 0 50 50">
  <g id="bookmark" transform="translate(-177.941 -6887.941)">
    <rect id="Rectangle_185" data-name="Rectangle 185" width="48.867" height="48.867" transform="translate(178 6888)" fill="none"/>
    <g id="Bookmark-2" data-name="Bookmark" transform="translate(178 6888)">
      <path id="Path_251" data-name="Path 251" d="M53.183,52.279A4.364,4.364,0,0,1,48.807,47.9V15.2H57.56V47.9a4.415,4.415,0,0,1-4.376,4.376" transform="translate(-8.202 -2.774)" fill="#d2f3f9"/>
      <path id="Path_252" data-name="Path 252" d="M40.553,47.9V15.195H.182V47.9a4.365,4.365,0,0,0,4.38,4.376h40.37A4.416,4.416,0,0,1,40.553,47.9" transform="translate(-0.031 -2.774)" fill="#d2f3f9"/>
      <path id="Path_253" data-name="Path 253" d="M5.2,49.741A1.224,1.224,0,0,1,4.01,48.547V19.024H37.99V48.547a6.07,6.07,0,0,0,.079,1.194Z" transform="translate(-0.676 -3.42)" fill="#15b7bb" opacity="0.2"/>
      <path id="Path_254" data-name="Path 254" d="M9.466,12.709V4.194a3.74,3.74,0,1,1,7.48,0v8.515Z" transform="translate(-1.591 -0.077)" fill="#d2f3f9"/>
      <path id="Path_255" data-name="Path 255" d="M31.552.455H13.965a3.736,3.736,0,0,1,3.74,3.74V31.649l8.833-7.957,8.833,7.957V4.2A3.911,3.911,0,0,0,31.552.455" transform="translate(-2.344 -0.077)" fill="#d2f3f9"/>
      <path id="Path_256" data-name="Path 256" d="M22.2,4.84V4.283H32.94a.544.544,0,0,1,.557.557V25.132l-5.57-5.093-5.65,5.093Z" transform="translate(-3.73 -0.722)" fill="#15b7bb" opacity="0.2"/>
      <path id="Path_257" data-name="Path 257" d="M4.758,49.883A4.752,4.752,0,0,1,0,45.148V12.2H7.724V4.1A4.115,4.115,0,0,1,11.844,0H29.361a4.115,4.115,0,0,1,4.121,4.1v8.1h16.4V45.148a4.751,4.751,0,0,1-4.757,4.735ZM41.2,45.148a4,4,0,0,0,8,0V12.956H45.584v31.3h-.757v-31.3H41.2Zm-40.448,0a4,4,0,0,0,4,3.983H42.312l-.713-.71a4.624,4.624,0,0,1-1.311-3.273V12.956H33.4V32.322l-9.137-8.26-9.136,8.26V12.956H.756ZM15.1,1.429A4.281,4.281,0,0,1,16.044,4.1V30.637l8.379-7.59,8.381,7.59V4.1A3.36,3.36,0,0,0,29.44.753H14.557ZM8.56,12.2h6.648V4.1a3.364,3.364,0,0,0-6.728,0v.416h.08Z" fill="#2d3745"/>
      <rect id="Rectangle_188" data-name="Rectangle 188" width="1.591" height="1.591" transform="translate(23.321 6.744)" fill="#1bb3ce"/>
      <rect id="Rectangle_189" data-name="Rectangle 189" width="1.591" height="1.591" transform="translate(23.321 10.755)" fill="#1bb3ce"/>
      <rect id="Rectangle_190" data-name="Rectangle 190" width="1.591" height="1.591" transform="translate(23.321 14.796)" fill="#1bb3ce"/>
      <rect id="Rectangle_191" data-name="Rectangle 191" width="50" height="50" transform="translate(-0.059 -0.059)" fill="none"/>
    </g>
  </g>
</svg>
