<svg xmlns="http://www.w3.org/2000/svg" width="50" height="50" viewBox="0 0 50 50">
  <g id="dark_light" transform="translate(-166 -6769)">
    <rect id="Rectangle_184" data-name="Rectangle 184" width="47.286" height="47.286" transform="translate(166 6769)" fill="none"/>
    <g id="Dark_Light-2" data-name="Dark_Light" transform="translate(166 6770.695)">
      <path id="Path_248" data-name="Path 248" d="M31.661,48.305A1.5,1.5,0,0,1,30.174,46.8V1.509A1.5,1.5,0,0,1,31.661,0a24.006,24.006,0,0,1,23.8,24.153,24.006,24.006,0,0,1-23.8,24.153" transform="translate(-5.461)" fill="#d2f3f9"/>
      <path id="Path_249" data-name="Path 249" d="M31.775,0a1.425,1.425,0,0,0-.854.308A24.025,24.025,0,0,1,51.113,24.153,24.025,24.025,0,0,1,30.921,48a1.425,1.425,0,0,0,.854.308,24.006,24.006,0,0,0,23.8-24.153A24.006,24.006,0,0,0,31.775,0" transform="translate(-5.575 0)" fill="#15b7bb" opacity="0.2"/>
      <path id="Path_246" data-name="Path 246" d="M14.307,47.164a1.486,1.486,0,0,1-1.053-2.537l4.21-4.207a1.487,1.487,0,0,1,2.1,2.1l-4.207,4.206A1.494,1.494,0,0,1,14.307,47.164Z" transform="translate(-2.169 -5.394)" fill="#2d3745"/>
      <path id="Path_247" data-name="Path 247" d="M12.548,29.3H6.6a1.488,1.488,0,0,1,0-2.975h5.95a1.488,1.488,0,0,1,0,2.975" transform="translate(-0.78 -3.664)" fill="#2d3745"/>
      <path id="Path_245" data-name="Path 245" d="M18.517,14.894a1.494,1.494,0,0,1-1.053-.435L13.257,10.25a1.487,1.487,0,0,1,2.1-2.1l4.21,4.207a1.489,1.489,0,0,1-1.053,2.541" transform="translate(-2.169 -1.176)" fill="#2d3745"/>
      <path id="Path_250" data-name="Path 250" d="M23.8,1.293a.215.215,0,0,1,.214.216V46.8a.215.215,0,0,1-.214.216A22.72,22.72,0,0,1,1.275,24.153,22.72,22.72,0,0,1,23.8,1.293M23.8,0A24.006,24.006,0,0,0,0,24.153,24.006,24.006,0,0,0,23.8,48.305,1.5,1.5,0,0,0,25.287,46.8V1.509A1.5,1.5,0,0,0,23.8,0" fill="#2d3745"/>
    </g>
  </g>
</svg>
