<svg xmlns="http://www.w3.org/2000/svg" width="50" height="50" viewBox="0 0 50 50">
  <g id="dashboard" transform="translate(-1655.711 -6771.711)">
    <rect id="Rectangle_199" data-name="Rectangle 199" width="50" height="50" transform="translate(1655.711 6771.711)" fill="none"/>
    <g id="Dashboard-2" data-name="Dashboard" transform="translate(1656 6772.824)">
      <path id="Path_297" data-name="Path 297" d="M32.046,38.4c.2.421.4.844.6,1.264.492,1,1.006,1.994,1.471,3.008a.527.527,0,0,0,.587.359c.869-.019,1.739-.008,2.609-.006.681,0,.906.216.91.876q.006,1.279,0,2.558c0,.643-.223.857-.876.857H12.022c-.668,0-.8-.126-.808-.771-.007-.937-.009-1.872,0-2.809.006-.559.157-.705.72-.71.936-.008,1.872.007,2.808-.012a.572.572,0,0,0,.431-.208c.754-1.458,1.483-2.928,2.252-4.46h-.591c-4.464,0-8.929-.033-13.392.017A3.377,3.377,0,0,1,.113,35.912a4.644,4.644,0,0,1-.089-1.082C.019,24.392.04,13.953,0,3.515A3.32,3.32,0,0,1,2.318.17a4.836,4.836,0,0,1,1-.162Q24.638,0,45.955.013a3.169,3.169,0,0,1,3.254,2.249,4.509,4.509,0,0,1,.2,1.45q.019,12.011.009,24.022,0,3.586,0,7.171a3.325,3.325,0,0,1-2.525,3.332,4.83,4.83,0,0,1-1.134.106q-6.846.011-13.693.007l-.073-.016.054.068M46.494,1.281a2.7,2.7,0,0,0-.509-.1q-21.286-.007-42.572,0a2.382,2.382,0,0,0-.68.082A2.018,2.018,0,0,0,1.172,3.5q0,12.659,0,25.319c0,.116.013.233.02.349V30.85H48.27V5.361c0-.652.016-1.3,0-1.955a2.038,2.038,0,0,0-1.772-2.126M1.175,32.107c0,1.061-.031,2.063.008,3.062A2.163,2.163,0,0,0,3.42,37.213c8.943-.03,17.885-.018,26.828-.018q7.923,0,15.846,0a2,2,0,0,0,2.074-1.652,30.823,30.823,0,0,0,.03-3.437ZM16.46,42.988h16.5a1.588,1.588,0,0,0-.073-.264c-.672-1.343-1.355-2.682-2.017-4.031-.139-.283-.343-.3-.61-.3q-5.539.007-11.079,0a.619.619,0,0,0-.657.391c-.614,1.261-1.254,2.509-1.881,3.763-.064.128-.109.267-.18.447M12.4,46.109H36.93V44.243H12.4Z" transform="translate(0 0)" fill="#2d3745"/>
      <path id="Path_298" data-name="Path 298" d="M38.895,46.607l-.054-.068.073.017.008.032Z" transform="translate(-6.848 -8.205)" fill="#888"/>
      <path id="Path_299" data-name="Path 299" d="M1.442,29.424c-.007-.117-.019-.233-.019-.35q0-12.659,0-25.319A2.02,2.02,0,0,1,2.984,1.517a2.4,2.4,0,0,1,.68-.082q21.286,0,42.572,0a2.7,2.7,0,0,1,.508.1c-.171,1.717-.233,3.453-.535,5.147a25.67,25.67,0,0,1-3.249,8.653c-.355.6-.694,1.2-1.039,1.806-.1.007-.2.016-.3.019-.671.023-.774.128-.785.788,0,.25-.017.5-.026.749-.109.087-.224.168-.325.264-.325.311-.646.627-.968.941-.006-.184-.017-.367-.017-.55q0-4.558,0-9.116c0-.624-.246-.868-.869-.869q-1.579,0-3.156,0c-.8,0-.885.087-.885.872q0,6.863,0,13.725c0,.217-.016.433-.025.649a4.189,4.189,0,0,0-.493.168c-.279.133-.548.289-.82.436q-.011-1.252-.021-2.5c-.006-.694-.194-.89-.876-.893-.551,0-1.1-.019-1.652,0-.74.03-1.48.091-2.22.138-.054.738-.133,1.474-.154,2.213-.034,1.184-.027,2.367-.037,3.552-.186.056-.37.127-.559.166-.251.051-.508.078-.762.116q0-5.04.007-10.08c0-.533-.228-.764-.745-.767-1.154-.006-2.307-.008-3.461,0-.581,0-.7.128-.7.705q0,4.94,0,9.879c0,.494.2.679.7.684.835.008,1.671.01,2.506.015-.126.087-.244.234-.38.252a46.607,46.607,0,0,1-5.567.7c-5.959.088-11.92.03-17.881.03M4.1,12.6a8.5,8.5,0,1,0,16.954-.881A8.5,8.5,0,0,0,4.1,12.6m7.275,13.11q3.233,0,6.468,0c.524,0,.831-.325.7-.764-.118-.391-.465-.418-.808-.418H12.474c-2.49,0-4.98,0-7.47.009a1.311,1.311,0,0,0-.73.2.57.57,0,0,0-.1.554,1.1,1.1,0,0,0,.691.4c2.172.03,4.345.017,6.517.017m-2.7,2.716c1.319,0,2.637,0,3.955,0,.419,0,.7-.119.7-.61,0-.462-.29-.554-.657-.554q-3.93,0-7.861,0a.632.632,0,0,0-.706.552c-.052.364.259.61.713.61q1.927,0,3.856,0" transform="translate(-0.251 -0.253)" fill="#d2f3f9"/>
      <path id="Path_300" data-name="Path 300" d="M1.424,38.98H48.446a30.825,30.825,0,0,1-.03,3.437,2,2,0,0,1-2.074,1.651q-7.922,0-15.846,0c-8.942,0-17.885-.012-26.828.018a2.162,2.162,0,0,1-2.236-2.043c-.04-1-.009-2-.009-3.062m24.249,2.515c.006-.507-.2-.725-.709-.731a.764.764,0,0,0-.8.75.8.8,0,0,0,.815.758c.442-.007.685-.28.691-.778" transform="translate(-0.249 -6.872)" fill="#21dbfc"/>
      <path id="Path_301" data-name="Path 301" d="M1.446,29.446c5.96,0,11.921.058,17.881-.03a46.605,46.605,0,0,0,5.567-.7c.135-.019.254-.166.38-.253.3,0,.6-.025.9-.01a.785.785,0,0,0,.8-.427c.254-.037.51-.064.761-.116.19-.039.373-.109.559-.166.04.559.334.739.89.717,1.049-.042,2.1-.011,3.151-.012.687,0,.893-.2.9-.866q.01-1.175.021-2.349c.273-.147.542-.3.821-.436a4.086,4.086,0,0,1,.493-.167q.012,1.527.026,3.054c.006.633.128.761.746.763,1.069,0,2.139,0,3.208,0,.786,0,.955-.171.957-.965q.007-3.782.016-7.565c.323-.314.642-.629.969-.94.1-.1.216-.177.325-.265.009.183.026.365.026.548q0,4.207,0,8.414c0,.624.147.77.755.772q1.678,0,3.356,0c.587,0,.8-.216.8-.812q0-4.832,0-9.665c0-.578-.222-.787-.823-.792l-3-.02c.346-.6.684-1.209,1.039-1.806A25.677,25.677,0,0,0,46.214,6.7c.3-1.694.364-3.431.535-5.148a2.038,2.038,0,0,1,1.772,2.126c.021.651,0,1.3,0,1.955V31.125H1.446Z" transform="translate(-0.255 -0.274)" fill="#a6dbe5"/>
      <path id="Path_302" data-name="Path 302" d="M19.983,51.2c.072-.18.117-.319.181-.447.627-1.254,1.267-2.5,1.88-3.763A.619.619,0,0,1,22.7,46.6q5.539.019,11.079,0c.265,0,.47.019.609.3.662,1.348,1.345,2.687,2.017,4.031a1.6,1.6,0,0,1,.073.264Z" transform="translate(-3.523 -8.216)" fill="#1797ad"/>
      <rect id="Rectangle_200" data-name="Rectangle 200" width="24.527" height="1.866" transform="translate(12.404 44.244)" fill="#1797ad"/>
      <path id="Path_303" data-name="Path 303" d="M4.679,13.191A8.5,8.5,0,1,1,13,21.768a8.54,8.54,0,0,1-8.326-8.576m3.067,4.841c.107-.1.22-.2.324-.3,1.479-1.477,2.962-2.948,4.422-4.442a1.156,1.156,0,0,0,.3-.729c.024-2.039.013-4.078.013-6.118V5.956A7.273,7.273,0,0,0,6.321,10.7a7.111,7.111,0,0,0,1.425,7.328m12.793-4.181c-2.272,0-4.475,0-6.678.011a.77.77,0,0,0-.456.246q-2.277,2.259-4.539,4.534c-.089.089-.162.194-.264.319a7.093,7.093,0,0,0,7.776.871,7.264,7.264,0,0,0,4.161-5.981m-.025-1.214a7.312,7.312,0,0,0-6.469-6.642v6.642Z" transform="translate(-0.825 -0.839)" fill="#2d3745"/>
      <path id="Path_304" data-name="Path 304" d="M46.611,21.6l-.017,7.565c0,.793-.171.965-.956.965-1.069,0-2.139,0-3.208,0-.619,0-.741-.129-.746-.764q-.015-1.527-.026-3.053c.008-.217.025-.433.025-.65q0-6.862,0-13.724c0-.786.089-.872.885-.872q1.578,0,3.156,0c.624,0,.869.245.869.869q0,4.558,0,9.117c0,.183.011.367.016.549m-2.206-9.337H42.893V28.936h2.49V12.262Z" transform="translate(-7.344 -1.95)" fill="#2d3745"/>
      <path id="Path_305" data-name="Path 305" d="M31.385,31.373a.785.785,0,0,1-.8.427c-.3-.015-.6,0-.9.01-.836,0-1.671-.007-2.507-.015-.5,0-.694-.189-.7-.683q-.006-4.94,0-9.879c0-.577.12-.7.7-.705,1.153-.009,2.307-.007,3.46,0,.517,0,.746.234.746.767q0,5.04-.008,10.08m-2.1-9.677H27.705v8.9H30.17V21.7Z" transform="translate(-4.669 -3.618)" fill="#2d3745"/>
      <path id="Path_306" data-name="Path 306" d="M50.352,20.5l3,.02c.6,0,.823.213.823.792q0,4.833,0,9.666c0,.6-.209.809-.8.811q-1.678.007-3.356,0c-.608,0-.754-.147-.755-.772q0-4.207,0-8.414c0-.182-.017-.365-.026-.548.009-.25.023-.5.026-.748.011-.661.114-.766.785-.788.1,0,.2-.012.3-.019m1.705,1.273H50.485V30.6h2.509V21.775Z" transform="translate(-8.682 -3.615)" fill="#2d3745"/>
      <path id="Path_307" data-name="Path 307" d="M39,29.577q-.01,1.175-.021,2.349c-.006.665-.211.865-.9.866-1.051,0-2.1-.03-3.151.012-.557.022-.851-.157-.89-.717.01-1.184,0-2.368.037-3.551.021-.739.1-1.476.154-2.213.74-.047,1.479-.108,2.22-.138.55-.022,1.1-.007,1.652,0,.682,0,.871.2.876.894q.01,1.25.021,2.5m-2.161-2.193H35.27V31.6H37.8V27.383Z" transform="translate(-6.001 -4.615)" fill="#2d3745"/>
      <path id="Path_308" data-name="Path 308" d="M11.96,30.659c-2.172,0-4.345.012-6.517-.017a1.1,1.1,0,0,1-.691-.4.568.568,0,0,1,.1-.553,1.3,1.3,0,0,1,.73-.2c2.489-.014,4.979-.009,7.469-.009h5.264c.343,0,.69.026.808.418.133.439-.175.763-.7.764q-3.235,0-6.468,0" transform="translate(-0.831 -5.197)" fill="#2d3745"/>
      <path id="Path_309" data-name="Path 309" d="M9.258,33.96q-1.927,0-3.856,0c-.455,0-.765-.245-.713-.61a.632.632,0,0,1,.706-.552q3.93,0,7.861,0c.367,0,.656.092.657.554,0,.491-.281.611-.7.61-1.318,0-2.637,0-3.955,0" transform="translate(-0.826 -5.782)" fill="#2d3745"/>
      <path id="Path_310" data-name="Path 310" d="M30.543,41.877c-.006.5-.249.771-.691.778a.8.8,0,0,1-.815-.758.764.764,0,0,1,.8-.75c.5.006.715.223.709.731" transform="translate(-5.119 -7.254)" fill="#2d3745"/>
      <path id="Path_311" data-name="Path 311" d="M8,18.288A7.108,7.108,0,0,1,6.576,10.96a7.271,7.271,0,0,1,6.483-4.747V6.7c0,2.039.011,4.078-.013,6.117a1.156,1.156,0,0,1-.3.729c-1.46,1.494-2.944,2.965-4.422,4.442-.1.1-.217.2-.324.3" transform="translate(-1.08 -1.095)" fill="#e5d4d4"/>
      <path id="Path_312" data-name="Path 312" d="M21.378,15.8a7.267,7.267,0,0,1-4.161,5.981,7.093,7.093,0,0,1-7.776-.871c.1-.124.175-.229.264-.318q2.265-2.271,4.539-4.535a.774.774,0,0,1,.455-.245c2.2-.016,4.408-.011,6.679-.011" transform="translate(-1.665 -2.785)" fill="#f8f2d5"/>
      <path id="Path_313" data-name="Path 313" d="M22.518,12.9H16.049V6.259A7.312,7.312,0,0,1,22.518,12.9" transform="translate(-2.83 -1.103)" fill="#e7e7e7"/>
      <path id="Path_314" data-name="Path 314" d="M44.672,29.193H43.156V12.519H44.67q0,8.337,0,16.674" transform="translate(-7.609 -2.207)" fill="#cef0f3"/>
      <path id="Path_315" data-name="Path 315" d="M45,29.193q0-8.337,0-16.674h.976V29.193Z" transform="translate(-7.933 -2.207)" fill="#afedf3"/>
      <path id="Path_316" data-name="Path 316" d="M29.553,30.849H27.968v-8.9h1.577q0,4.45.008,8.9" transform="translate(-4.931 -3.87)" fill="#cef0f3"/>
      <path id="Path_317" data-name="Path 317" d="M29.89,30.849q0-4.45-.008-8.9h.887v8.9Z" transform="translate(-5.268 -3.87)" fill="#afedf3"/>
      <path id="Path_318" data-name="Path 318" d="M52.33,30.869H50.751V22.048h1.572q0,4.411.007,8.821" transform="translate(-8.948 -3.887)" fill="#1bb3ce"/>
      <path id="Path_319" data-name="Path 319" d="M52.667,30.869q0-4.411-.007-8.821H53.6v8.821Z" transform="translate(-9.284 -3.887)" fill="#18a0b8"/>
      <path id="Path_320" data-name="Path 320" d="M37.108,31.855H35.534V27.642H37.1q0,2.107.006,4.213" transform="translate(-6.265 -4.873)" fill="#1bb3ce"/>
      <path id="Path_321" data-name="Path 321" d="M37.444,31.855q0-2.107-.006-4.213H38.4v4.213Z" transform="translate(-6.601 -4.873)" fill="#18a0b8"/>
    </g>
  </g>
</svg>
