<svg id="Documentation_hover" xmlns="http://www.w3.org/2000/svg" width="74" height="74" viewBox="0 0 74 74">
  <rect id="Rectangle_19" data-name="Rectangle 19" width="74" height="74" fill="none"/>
  <g id="Documentation" transform="translate(0 1)">
    <path id="Path_29" data-name="Path 29" d="M855.945,114.57c.3,1.848.581,3.683.845,5.53l-2.653.422q-2.119-13.641-4.145-27.3a1.888,1.888,0,0,1,.04-.884,1.275,1.275,0,0,1,.818-.805q.1-.04,1.069-.2c1.65-.264,3.313-.515,4.976-.739l.422,2.679-4.409.66c-.013,0-.013,0-.026.013l-.013.013c-.013.013-.013.026-.013.053q1.346,8.969,2.693,17.951C855.628,112.616,855.773,113.488,855.945,114.57Z" transform="translate(-847.76 -73.424)" fill="#fefefe"/>
    <path id="Path_30" data-name="Path 30" d="M1272.417,115.633l-2.666.422-.911-5.808v-.026c0-.013-.013-.026-.026-.04a.153.153,0,0,0-.132-.053l-4.686.713a22.4,22.4,0,0,1-.4-2.64c1.835-.3,3.67-.581,5.491-.858a3.1,3.1,0,0,1,1.333,0,1.368,1.368,0,0,1,.871,1.228C1271.665,110.935,1272.021,113.284,1272.417,115.633Z" transform="translate(-1206.802 -87.898)" fill="#fefefe"/>
    <path id="Path_31" data-name="Path 31" d="M1000.419,154.982a1.333,1.333,0,0,1,.581,1.478,1.192,1.192,0,0,1-.673.832,4.278,4.278,0,0,1-.977.238q-15.166,2.277-30.319,4.514a1.956,1.956,0,0,1-.792,0,1.126,1.126,0,0,1-.673-.5,1.342,1.342,0,0,1-.079-1.478,1.242,1.242,0,0,1,.528-.515,2.646,2.646,0,0,1,.686-.172q15.443-2.336,30.9-4.593A1.016,1.016,0,0,1,1000.419,154.982Z" transform="translate(-949.614 -129.122)" fill="#fefefe"/>
    <path id="Path_32" data-name="Path 32" d="M1007.652,204.069l-2.574,2.877c-2.759.449-5.53.871-8.289,1.267-1.016.145-1.887.277-2.613.383q-8.87,1.346-17.74,2.64a1.38,1.38,0,0,1-1.373-.449,1.434,1.434,0,0,1-.317-1.069,1.283,1.283,0,0,1,.752-.99,2.656,2.656,0,0,1,.832-.211q21.838-3.267,30.794-4.554A.677.677,0,0,1,1007.652,204.069Z" transform="translate(-956.068 -171.807)" fill="#fefefe"/>
    <path id="Path_33" data-name="Path 33" d="M1007.438,261.1l-1.544,1.8a.162.162,0,0,1-.106.053L982.333,266.5a1.3,1.3,0,0,1,.66-1.676,2.6,2.6,0,0,1,.818-.211Q995.612,262.809,1007.438,261.1Z" transform="translate(-962.585 -221.42)" fill="#fefefe"/>
    <path id="Path_34" data-name="Path 34" d="M907.18-11.935a1.234,1.234,0,0,0-.818-.779,3.036,3.036,0,0,0-1.214,0c-2.086.33-4.158.647-6.257.924l-2.666.422-4.778.726c-.053,0-.092-.026-.092-.079l-.884-5.86a22.335,22.335,0,0,1-.4-2.64q-1.465-9.345-2.878-18.717a2.989,2.989,0,0,0-.238-.884,1.317,1.317,0,0,0-.726-.634,2.763,2.763,0,0,0-1.254,0q-20.73,3.128-41.512,6.23a8.239,8.239,0,0,0-1.624.317,1.48,1.48,0,0,0-.726,1.782c.449,2.93.884,5.847,1.307,8.778l.422,2.679,3.96,26.082a.072.072,0,0,1-.053.079l-4.422.66-2.653.422c-1.676.251-3.339.5-4.989.779a2.01,2.01,0,0,0-.911.317,1.2,1.2,0,0,0-.488.924,2.067,2.067,0,0,0,.238.924q4.653,9.919,9.4,19.8a6.93,6.93,0,0,0,.607,1.109,1.488,1.488,0,0,0,1.359.343q29.7-4.475,59.384-8.989a1.407,1.407,0,0,0,1.122-.726,3.29,3.29,0,0,0,.211-1.2q.851-15.879,1.676-31.744A2.747,2.747,0,0,0,907.18-11.935ZM844.669-25.583l-.739-4.937c0-.013.013-.04.026-.04l40.693-6.085c.026,0,.04.013.04.026l.739,4.937c0,.026-.013.04-.026.04l-40.693,6.085C844.682-25.557,844.669-25.57,844.669-25.583Zm1.109,7.326-.686-4.567c0-.026.013-.066.053-.066L885.8-28.962c.026,0,.066.013.066.053l.686,4.567c0,.026-.013.066-.053.066L845.843-18.2C845.8-18.2,845.777-18.218,845.777-18.258Zm.449,2.825a.119.119,0,0,1,.013-.066.013.013,0,0,1,.013-.013.013.013,0,0,1,.013-.013c.013-.013.026-.013.039-.026h0l40.5-6.058a.142.142,0,0,1,.106.026.013.013,0,0,1,.013.013.1.1,0,0,1,.026.066l1.729,11.246v.026a.013.013,0,0,1-.013.013l-.013.013h-.026a2.281,2.281,0,0,0-1.927.884c-.251.317-.871.99-1.835,2.019l-2.574,2.877L878.129.129l-1.544,1.8a.163.163,0,0,1-.106.053L853.037,5.554l-3.471.515a.1.1,0,0,1-.106-.079ZM904.514-9.81h0L902.93,20.139a.116.116,0,0,1-.106.119l-57.456,8.7a.169.169,0,0,1-.172-.092l-8.553-17.991c0-.013-.013-.026-.013-.04v-.026c0-.013,0-.013.013-.026h0a.046.046,0,0,1,.026-.013h.026Q857.03,7.659,877.271,4.6a1.857,1.857,0,0,0,.884-.4c.039-.026.251-.264.633-.686q4.89-5.425,9.886-10.916a.376.376,0,0,1,.185-.106l15.575-2.363h.04c.013,0,.013,0,.013.013s.013,0,0,.013h0v.013c.026-.013.026,0,.026.013Z" transform="translate(-833.289 39.525)" fill="#2d3745"/>
  </g>
</svg>
