<svg xmlns="http://www.w3.org/2000/svg" width="50" height="50" viewBox="0 0 50 50">
  <g id="dynamically_add_" data-name="dynamically_add " transform="translate(18739.332 13140.332)">
    <rect id="Rectangle_182" data-name="Rectangle 182" width="50" height="50" transform="translate(-18739.332 -13140.332)" fill="none"/>
    <g id="Dynamically" transform="translate(-18738.51 -13139.509)">
      <path id="Path_220" data-name="Path 220" d="M30.208,34.917H16.124a4.757,4.757,0,0,1-4.757-4.758V16.5a4.757,4.757,0,0,1,4.757-4.758H30.208A4.758,4.758,0,0,1,34.965,16.5V30.159a4.758,4.758,0,0,1-4.758,4.758" transform="translate(-10.17 -10.492)" fill="#d2f3f9"/>
      <path id="Path_221" data-name="Path 221" d="M110.112,112.93H94.154a3.543,3.543,0,0,1-3.543-3.543V93.3a3.543,3.543,0,0,1,3.543-3.543h15.959a3.543,3.543,0,0,1,3.543,3.543v16.085a3.543,3.543,0,0,1-3.543,3.543" transform="translate(-77.644 -76.919)" fill="#d2f3f9"/>
      <path id="Path_219" data-name="Path 219" d="M186.768,192.59H172.684a4.757,4.757,0,0,1-4.757-4.758V174.177a4.757,4.757,0,0,1,4.757-4.758h14.083a4.758,4.758,0,0,1,4.758,4.758v13.656a4.758,4.758,0,0,1-4.758,4.758" transform="translate(-143.478 -144.749)" fill="#d2f3f9"/>
      <path id="Path_224" data-name="Path 224" d="M9.317,28.463a5.9,5.9,0,0,1-3.02-.608,5.173,5.173,0,0,1-2.97-4.734c-.037-5.429-.035-10.336.006-15A4.515,4.515,0,0,1,4.49,5.339,5.6,5.6,0,0,1,9.126,3.3h.035q1.711.006,3.423.006l2.806,0,2.8,0c1.75,0,3.17,0,4.469.011a5.511,5.511,0,0,1,4.983,2.716,4.655,4.655,0,0,1,.7,2.406c.006.608,0,1.2,0,1.834q0,.172,0,.344H27.022v-.176c0-.472,0-.936,0-1.4a4.128,4.128,0,0,0-4.354-4.346H21.54l-3.479,0-3.478,0c-2.141,0-3.881,0-5.474-.01H9.082A4.113,4.113,0,0,0,4.759,7.909a3.086,3.086,0,0,0-.065.854c0,.064,0,.127,0,.19l0,2.532c0,3.871.007,7.873.021,11.81a3.9,3.9,0,0,0,3.621,3.7c.311.009.644.013,1.047.013.28,0,.562,0,.849,0l.405,0c0,.019,0,.039,0,.059,0,.48,0,.937-.007,1.388-.191,0-.383,0-.574.008-.248,0-.5.009-.744.009" transform="translate(-3.3 -3.299)" fill="#2d3745"/>
      <path id="Path_225" data-name="Path 225" d="M88.4,108.342a5.077,5.077,0,0,1-3.868-1.87,4.785,4.785,0,0,1-1.267-2.755,10.064,10.064,0,0,1-.035-1.1v-.234q0-2.114,0-4.228c.005-3.062.011-6.228-.018-9.343a5.275,5.275,0,0,1,2.621-4.8,4.551,4.551,0,0,1,2.48-.752c1.421,0,2.866-.007,4.263-.014s2.87-.014,4.3-.014c2.483,0,4.507.021,6.37.067a5.091,5.091,0,0,1,4.907,4.261,11.6,11.6,0,0,1,.16,2.283c0,.213,0,.431.007.651h-1.386c0-.026,0-.053,0-.079.007-.443.014-.9-.014-1.362l-.007-.12a4.187,4.187,0,0,0-.76-2.583,3.59,3.59,0,0,0-2.763-1.614c-5.893-.054-10.429-.087-14.705-.1h-.019a4.523,4.523,0,0,0-1.528.261,3.993,3.993,0,0,0-2.541,3.591q.007,3.129,0,6.258c0,2.742,0,5.577.009,8.366a3.958,3.958,0,0,0,3.811,3.842c.283.007.585.01.949.01.26,0,.521,0,.784,0l.312,0V108.3l-.132,0c-.217-.005-.434-.01-.651-.01-.306,0-.56.01-.8.031-.166.015-.331.022-.492.022" transform="translate(-71.351 -71.362)" fill="#2d3745"/>
      <path id="Path_222" data-name="Path 222" d="M168.066,188.076a5.072,5.072,0,0,1-3.3-1.276,5.578,5.578,0,0,1-1.947-3.665,2.449,2.449,0,0,1,0-.489c.009-.123.018-.249.018-.382v-2.614c0-3.663,0-7.45,0-11.175a5.246,5.246,0,0,1,2.83-4.868,5.549,5.549,0,0,1,2.831-.653l2.658-.007q2.668-.007,5.336-.01c2.206,0,4.044.007,5.786.023a5.491,5.491,0,0,1,5.558,4.442,6.763,6.763,0,0,1,.116,1.421c.009,4.549.017,9,0,13.4a5.8,5.8,0,0,1-.891,3.337,4.624,4.624,0,0,1-3.561,2.368c-.984.052-2.047.076-3.345.076-.819,0-1.655-.01-2.462-.019s-1.648-.019-2.473-.019h-.49v.107l-1.615,0-2.107,0c-1.127,0-2.05,0-2.907.01ZM164.279,176q0,.869,0,1.738c-.005,1.749-.011,3.558.014,5.339a3.875,3.875,0,0,0,3.665,3.585c2.712.012,5.468.015,8.134.019q3.131,0,6.262.011h.015a4.162,4.162,0,0,0,4.215-4.284l0-1.667c.008-3.919.016-7.972-.023-11.959a5.277,5.277,0,0,0-.564-2.359,3.907,3.907,0,0,0-3.622-2.06q-3.028-.007-6.057-.007-3.949,0-7.9.009a6.034,6.034,0,0,0-1.231.149,3.875,3.875,0,0,0-2.912,3.49q-.007,2.657,0,5.315V176Z" transform="translate(-139.123 -139.228)" fill="#2d3745"/>
    </g>
  </g>
</svg>
