<svg xmlns="http://www.w3.org/2000/svg" width="35" height="42" viewBox="0 0 35 42">
  <path id="ic_location" d="M20.5,38.533l9.624-9.568a13.475,13.475,0,0,0,0-19.136,13.668,13.668,0,0,0-19.249,0,13.475,13.475,0,0,0,0,19.136ZM20.5,44,8.126,31.7a17.325,17.325,0,0,1,0-24.6,17.573,17.573,0,0,1,24.749,0,17.325,17.325,0,0,1,0,24.6Zm0-20.737A3.866,3.866,0,1,0,16.611,19.4,3.877,3.877,0,0,0,20.5,23.263Zm0,3.866A7.732,7.732,0,1,1,28.278,19.4,7.755,7.755,0,0,1,20.5,27.129Z" transform="translate(-3 -2)" fill="#fff"/>
</svg>
