<svg xmlns="http://www.w3.org/2000/svg" width="269" height="38.023" viewBox="0 0 269 38.023">
  <g id="paystack" transform="translate(16709 23941)">
    <rect id="Rectangle_214" data-name="Rectangle 214" width="269" height="38" transform="translate(-16709 -23941)" fill="none"/>
    <g id="paystack-2" data-name="paystack" transform="translate(-16682 -23941)">
      <path id="Path_17771" data-name="Path 17771" d="M30.732,15.5H1.8A1.815,1.815,0,0,0,0,17.3v3.225a1.8,1.8,0,0,0,1.8,1.8H30.732a1.836,1.836,0,0,0,1.823-1.8v-3.2A1.825,1.825,0,0,0,30.732,15.5Zm0,17.948H1.8a1.8,1.8,0,0,0-1.8,1.8v3.225a1.8,1.8,0,0,0,1.8,1.8H30.732a1.82,1.82,0,0,0,1.823-1.8V35.248a1.805,1.805,0,0,0-1.823-1.8ZM18.089,42.4H1.8A1.8,1.8,0,0,0,0,44.2v3.225a1.8,1.8,0,0,0,1.8,1.8H18.065a1.8,1.8,0,0,0,1.8-1.8V44.2a1.766,1.766,0,0,0-1.776-1.8ZM32.555,24.474H1.8a1.8,1.8,0,0,0-1.8,1.8V29.5a1.8,1.8,0,0,0,1.8,1.8H32.531a1.8,1.8,0,0,0,1.8-1.8V26.274a1.78,1.78,0,0,0-1.776-1.8Z" transform="translate(0 -11.878)" fill="#00c3f7"/>
      <path id="Path_17772" data-name="Path 17772" d="M222.1,10.89a9.543,9.543,0,0,0-3.132-2.127,9.8,9.8,0,0,0-3.739-.748,8.021,8.021,0,0,0-3.622.771,6.567,6.567,0,0,0-2.01,1.472V9.7a1.185,1.185,0,0,0-.3-.771,1,1,0,0,0-.771-.351h-4.043a.965.965,0,0,0-.771.351,1.075,1.075,0,0,0-.3.771V36.317a1.185,1.185,0,0,0,.3.771,1.075,1.075,0,0,0,.771.3h4.09a1.125,1.125,0,0,0,.748-.3.946.946,0,0,0,.327-.771V27.226a5.242,5.242,0,0,0,2.15,1.379,9.907,9.907,0,0,0,7.128-.164,9.449,9.449,0,0,0,3.178-2.15,10.121,10.121,0,0,0,2.15-3.342,11.23,11.23,0,0,0,.795-4.37,11.794,11.794,0,0,0-.795-4.394,10.564,10.564,0,0,0-2.15-3.3ZM218.4,20.518a4.521,4.521,0,0,1-.958,1.519,4.4,4.4,0,0,1-3.248,1.379,4.284,4.284,0,0,1-1.8-.374,4.58,4.58,0,0,1-1.472-1,4.987,4.987,0,0,1-.982-1.519,5.161,5.161,0,0,1,0-3.739,4.268,4.268,0,0,1,.982-1.5,4.924,4.924,0,0,1,1.472-1.028,4.017,4.017,0,0,1,1.8-.374,4.467,4.467,0,0,1,1.823.374,5.193,5.193,0,0,1,1.449,1,4.811,4.811,0,0,1,.958,1.5,5.349,5.349,0,0,1-.023,3.763ZM247.055,8.576h-4.066a1.008,1.008,0,0,0-.748.327,1.113,1.113,0,0,0-.327.795v.491a5.7,5.7,0,0,0-1.846-1.4,7.861,7.861,0,0,0-3.552-.771,10.005,10.005,0,0,0-6.988,2.851,10.511,10.511,0,0,0-2.244,3.342,10.82,10.82,0,0,0-.841,4.394A10.972,10.972,0,0,0,227.284,23a10.708,10.708,0,0,0,2.22,3.342,9.64,9.64,0,0,0,6.964,2.875,7.892,7.892,0,0,0,3.576-.771,6.142,6.142,0,0,0,1.87-1.4v.538a1.1,1.1,0,0,0,.327.771,1.126,1.126,0,0,0,.748.3h4.066a1.185,1.185,0,0,0,.771-.3,1.039,1.039,0,0,0,.3-.771V9.7a1.075,1.075,0,0,0-.3-.771A.965.965,0,0,0,247.055,8.576Zm-5.492,11.919a4.52,4.52,0,0,1-.958,1.519,5.272,5.272,0,0,1-1.449,1.028,4.446,4.446,0,0,1-3.622,0,4.923,4.923,0,0,1-1.472-1.028,4.52,4.52,0,0,1-.958-1.519,5.349,5.349,0,0,1,0-3.716,4.424,4.424,0,0,1,.958-1.5,5.054,5.054,0,0,1,1.472-1.028,4.446,4.446,0,0,1,3.622,0,5.194,5.194,0,0,1,1.449,1,5.274,5.274,0,0,1,.958,1.5A5.161,5.161,0,0,1,241.563,20.495ZM287.6,18.088a6.614,6.614,0,0,0-1.987-1.192,13.961,13.961,0,0,0-2.384-.7l-3.108-.608a3.674,3.674,0,0,1-1.659-.608.966.966,0,0,1-.421-.771.983.983,0,0,1,.584-.841,3.181,3.181,0,0,1,1.729-.374,6.017,6.017,0,0,1,2.314.467,12.986,12.986,0,0,1,2.033,1.075,1.577,1.577,0,0,0,2.22-.164l1.5-1.683a1.617,1.617,0,0,0,.467-1.052,1.437,1.437,0,0,0-.561-1.052A11.763,11.763,0,0,0,285.359,8.9a12.969,12.969,0,0,0-5-.865,11.615,11.615,0,0,0-3.576.514,8.674,8.674,0,0,0-2.734,1.4,6.21,6.21,0,0,0-1.753,2.127,5.949,5.949,0,0,0-.608,2.594,5.464,5.464,0,0,0,1.519,4.02,7.544,7.544,0,0,0,4,1.986l3.225.7a8.051,8.051,0,0,1,2.057.631.949.949,0,0,1,.584.888,1.178,1.178,0,0,1-.584.958,3.355,3.355,0,0,1-1.893.467,5.633,5.633,0,0,1-2.547-.561,9.362,9.362,0,0,1-2.08-1.355,2.812,2.812,0,0,0-.935-.514,1.423,1.423,0,0,0-1.309.4l-1.776,1.332a1.542,1.542,0,0,0-.631,1.542c.093.584.584,1.169,1.5,1.846a13.254,13.254,0,0,0,7.6,2.22,12.519,12.519,0,0,0,3.716-.514,9.45,9.45,0,0,0,2.875-1.426,6.518,6.518,0,0,0,1.87-2.2,6.122,6.122,0,0,0,.654-2.734A5.613,5.613,0,0,0,289,19.887a6.318,6.318,0,0,0-1.4-1.8Zm17.761,4.861a1.181,1.181,0,0,0-.888-.584,1.866,1.866,0,0,0-1.052.327,3.375,3.375,0,0,1-1.659.538,2.5,2.5,0,0,1-.584-.07,1.084,1.084,0,0,1-.538-.28,1.945,1.945,0,0,1-.444-.608,2.819,2.819,0,0,1-.187-1.075V13.9h5.282a1.19,1.19,0,0,0,.818-.351,1.042,1.042,0,0,0,.351-.771V9.7a1.047,1.047,0,0,0-.351-.795,1.154,1.154,0,0,0-.795-.327h-5.282V3.6a.993.993,0,0,0-.327-.795,1.126,1.126,0,0,0-.748-.3h-4.113A1.117,1.117,0,0,0,293.7,3.6V8.576h-2.337a.965.965,0,0,0-.771.351,1.184,1.184,0,0,0-.3.771v3.085a1.185,1.185,0,0,0,.3.771.9.9,0,0,0,.771.351H293.7v8.67a6.93,6.93,0,0,0,.608,2.991,5.876,5.876,0,0,0,3.786,3.155,8.51,8.51,0,0,0,2.547.374,10.758,10.758,0,0,0,3.342-.538,6.617,6.617,0,0,0,2.641-1.636,1.347,1.347,0,0,0,.14-1.729ZM327.635,8.576h-4.066a1.008,1.008,0,0,0-.748.327,1.113,1.113,0,0,0-.327.795v.491a5.7,5.7,0,0,0-1.846-1.4,7.892,7.892,0,0,0-3.576-.771,9.909,9.909,0,0,0-6.964,2.851,10.139,10.139,0,0,0-2.244,3.342,10.786,10.786,0,0,0-.841,4.37,10.973,10.973,0,0,0,.841,4.394,10.708,10.708,0,0,0,2.22,3.342,9.7,9.7,0,0,0,6.941,2.9,8.189,8.189,0,0,0,3.576-.748,6.143,6.143,0,0,0,1.87-1.4v.514a1.082,1.082,0,0,0,1.075,1.075h4.09A1.067,1.067,0,0,0,328.71,27.6V9.7a1.075,1.075,0,0,0-.3-.771A.965.965,0,0,0,327.635,8.576Zm-5.492,11.919a4.522,4.522,0,0,1-.958,1.519,5.271,5.271,0,0,1-1.449,1.028,4.051,4.051,0,0,1-1.823.374,4.678,4.678,0,0,1-1.8-.374,4.924,4.924,0,0,1-1.472-1.028,4.521,4.521,0,0,1-.958-1.519,5.349,5.349,0,0,1,0-3.716,4.425,4.425,0,0,1,.958-1.5,5.053,5.053,0,0,1,1.472-1.028,4.284,4.284,0,0,1,1.8-.374,4.467,4.467,0,0,1,1.823.374,5.2,5.2,0,0,1,1.449,1,4.424,4.424,0,0,1,.958,1.5,4.931,4.931,0,0,1,0,3.739Zm27.811,2.2-2.337-1.776a1.253,1.253,0,0,0-1.239-.3,2.521,2.521,0,0,0-.865.608,8.241,8.241,0,0,1-1.776,1.589,4.074,4.074,0,0,1-2.267.538,4.391,4.391,0,0,1-4.183-2.9,5.456,5.456,0,0,1-.327-1.823,5.174,5.174,0,0,1,.327-1.87,4.151,4.151,0,0,1,.935-1.5,4.747,4.747,0,0,1,1.449-1,4.41,4.41,0,0,1,1.823-.4,4.247,4.247,0,0,1,2.267.561,7.668,7.668,0,0,1,1.776,1.589,2.43,2.43,0,0,0,.841.608,1.2,1.2,0,0,0,1.215-.3l2.337-1.753a1.471,1.471,0,0,0,.608-.795,1.245,1.245,0,0,0-.094-1.075,10.066,10.066,0,0,0-3.6-3.342A11.043,11.043,0,0,0,341.4,8.039a11.352,11.352,0,0,0-4.229.817,10.535,10.535,0,0,0-3.437,2.244,10.015,10.015,0,0,0-2.29,3.365,10.975,10.975,0,0,0,0,8.343,10.029,10.029,0,0,0,2.29,3.342,10.914,10.914,0,0,0,7.665,3.061,11.044,11.044,0,0,0,5.445-1.309,10.01,10.01,0,0,0,3.622-3.365,1.2,1.2,0,0,0,.094-1.052,1.589,1.589,0,0,0-.608-.795Zm21.641,4.16-6.427-9.325,5.492-7.175a1.316,1.316,0,0,0,.234-1.169c-.094-.28-.351-.584-1.028-.584h-4.347a1.927,1.927,0,0,0-.724.164,1.444,1.444,0,0,0-.631.608l-4.394,6.076h-1.052V1.074a1.075,1.075,0,0,0-.3-.771,1.075,1.075,0,0,0-.771-.3h-4.066a1.185,1.185,0,0,0-.771.3.977.977,0,0,0-.327.771v26.5a1.022,1.022,0,0,0,.327.771,1.075,1.075,0,0,0,.771.3h4.066a1.185,1.185,0,0,0,.771-.3,1.075,1.075,0,0,0,.3-.771V20.565h1.169l4.791,7.268a1.6,1.6,0,0,0,1.4.841h4.557a1.053,1.053,0,0,0,1.1-.608,1.258,1.258,0,0,0-.14-1.215ZM270.168,8.576h-4.557a1.18,1.18,0,0,0-.911.351,1.6,1.6,0,0,0-.421.748l-3.365,12.386H260.1L256.5,9.675a2.086,2.086,0,0,0-.351-.724,1.046,1.046,0,0,0-.818-.374h-4.721c-.608,0-.982.187-1.145.584a1.765,1.765,0,0,0,0,1.1l5.772,17.411a1.71,1.71,0,0,0,.444.7,1.16,1.16,0,0,0,.865.3h2.43l-.21.561-.538,1.613a2.664,2.664,0,0,1-.888,1.262,2.195,2.195,0,0,1-1.355.444,3.061,3.061,0,0,1-1.215-.257,4.986,4.986,0,0,1-1.075-.631,1.793,1.793,0,0,0-1.028-.327h-.047a1.262,1.262,0,0,0-1.028.631l-1.449,2.1a1.269,1.269,0,0,0,.117,1.823,7.4,7.4,0,0,0,2.688,1.566,10.691,10.691,0,0,0,3.435.561,7.8,7.8,0,0,0,5.165-1.683,9.6,9.6,0,0,0,2.921-4.534l6.684-21.547a1.612,1.612,0,0,0,.023-1.145.975.975,0,0,0-1-.538Z" transform="translate(-155.864 0.001)" fill="#011b33"/>
    </g>
  </g>
</svg>
