<svg xmlns="http://www.w3.org/2000/svg" width="269" height="38" viewBox="0 0 269 38">
  <g id="Razorpay" transform="translate(17014 23941)">
    <rect id="Rectangle_213" data-name="Rectangle 213" width="269" height="38" transform="translate(-17014 -23941)" fill="none"/>
    <g id="Razorpay-2" data-name="Razorpay" transform="translate(-16969.809 -23941.482)">
      <path id="Fill-1" d="M276.32,84.311a3.72,3.72,0,0,1-1.651,2.333,6.653,6.653,0,0,1-3.444.745h-4.7l1.65-6.156h4.7a4.639,4.639,0,0,1,3.044.745,2.179,2.179,0,0,1,.4,2.333m4.867-.133q.9-3.341-.743-5.129T274.7,77.263h-10.49L257.9,100.824h5.1l2.546-9.5h3.342a3.625,3.625,0,0,1,1.771.364,1.6,1.6,0,0,1,.764,1.29l.909,7.843h5.461l-.886-7.313q-.271-2.449-2.241-2.879a9.634,9.634,0,0,0,4.205-2.416,8.816,8.816,0,0,0,2.322-4.037" transform="translate(-232.678 -69.49)" fill="#072654" fill-rule="evenodd"/>
      <path id="Fill-3" d="M508.209,152.944a7.593,7.593,0,0,1-1.968,3.64,4.471,4.471,0,0,1-3.183,1.257A2.65,2.65,0,0,1,500.5,156.6a4.931,4.931,0,0,1-.047-3.591,7.724,7.724,0,0,1,2.01-3.674,4.524,4.524,0,0,1,3.233-1.323,2.545,2.545,0,0,1,2.5,1.274,5.22,5.22,0,0,1,.013,3.657Zm2.234-8.339-.638,2.383a3.741,3.741,0,0,0-1.6-2.051,5.343,5.343,0,0,0-2.941-.762,8.367,8.367,0,0,0-4.136,1.109,10.917,10.917,0,0,0-3.469,3.127,13.65,13.65,0,0,0-2.176,4.6,9.807,9.807,0,0,0-.276,4.55,4.929,4.929,0,0,0,1.8,3.028,5.718,5.718,0,0,0,3.571,1.059,7.909,7.909,0,0,0,3.339-.728,7.775,7.775,0,0,0,2.692-2.018l-.666,2.482h4.93l4.5-16.778Z" transform="translate(-447.314 -130.047)" fill="#072654" fill-rule="evenodd"/>
      <path id="Fill-5" d="M715.09,148.706H700.761l-1,3.74H708.1l-11.025,9.53-.941,3.508h14.793l1-3.739h-8.934l11.193-9.663Z" transform="translate(-629.301 -134.15)" fill="#072654" fill-rule="evenodd"/>
      <path id="Fill-7" d="M904.325,152.911a7.707,7.707,0,0,1-1.97,3.707,4.444,4.444,0,0,1-3.156,1.224q-3.873,0-2.551-4.93a7.65,7.65,0,0,1,1.981-3.69,4.526,4.526,0,0,1,3.211-1.241,2.546,2.546,0,0,1,2.5,1.241,5.28,5.28,0,0,1-.012,3.69m2.885-7.678a8.116,8.116,0,0,0-4.35-1.059,11.677,11.677,0,0,0-4.966,1.059A10.782,10.782,0,0,0,894,148.277a12.34,12.34,0,0,0-2.318,4.633,8.839,8.839,0,0,0-.165,4.633,4.99,4.99,0,0,0,2.262,3.045,8.264,8.264,0,0,0,4.4,1.059,11.48,11.48,0,0,0,4.918-1.059,10.84,10.84,0,0,0,3.876-3.045,12.355,12.355,0,0,0,2.316-4.633,8.841,8.841,0,0,0,.166-4.633,5.019,5.019,0,0,0-2.245-3.045" transform="translate(-805.92 -130.047)" fill="#072654" fill-rule="evenodd"/>
      <path id="Fill-9" d="M1476.728,152.944a7.6,7.6,0,0,1-1.969,3.64,4.47,4.47,0,0,1-3.184,1.257,2.65,2.65,0,0,1-2.562-1.241,4.927,4.927,0,0,1-.047-3.591,7.727,7.727,0,0,1,2.009-3.674,4.525,4.525,0,0,1,3.234-1.323,2.546,2.546,0,0,1,2.5,1.274,5.226,5.226,0,0,1,.013,3.657Zm2.233-8.339-.638,2.383a3.741,3.741,0,0,0-1.6-2.051,5.342,5.342,0,0,0-2.941-.762,8.369,8.369,0,0,0-4.136,1.109,10.921,10.921,0,0,0-3.469,3.127,13.635,13.635,0,0,0-2.175,4.6,9.815,9.815,0,0,0-.276,4.55,4.923,4.923,0,0,0,1.8,3.028,5.718,5.718,0,0,0,3.571,1.059,7.911,7.911,0,0,0,3.339-.728,7.774,7.774,0,0,0,2.692-2.018l-.666,2.482h4.93l4.5-16.778Z" transform="translate(-1323.869 -130.047)" fill="#072654" fill-rule="evenodd"/>
      <path id="Fill-11" d="M1103.037,149.421l1.256-4.567a3.71,3.71,0,0,0-1.7-.331,6.773,6.773,0,0,0-3.255.844,7.149,7.149,0,0,0-2.306,2.01l.654-2.459-1.428,0h-3.5l-4.53,16.778h5l2.35-8.769a5.562,5.562,0,0,1,1.844-2.995,5.1,5.1,0,0,1,3.316-1.076,4.887,4.887,0,0,1,2.3.562" transform="translate(-984.168 -130.363)" fill="#072654" fill-rule="evenodd"/>
      <path id="Fill-13" d="M1230.244,153.013a7.429,7.429,0,0,1-1.955,3.591,4.488,4.488,0,0,1-3.178,1.241,2.6,2.6,0,0,1-2.526-1.257,5.061,5.061,0,0,1-.034-3.64,7.607,7.607,0,0,1,1.988-3.657,4.515,4.515,0,0,1,3.206-1.274,2.5,2.5,0,0,1,2.474,1.324,5.3,5.3,0,0,1,.026,3.673m3.493-7.727a5.509,5.509,0,0,0-3.542-1.108,7.85,7.85,0,0,0-3.589.86,7.451,7.451,0,0,0-2.764,2.35l.015-.11.84-2.672h-.967v0h-3.913l-1.242,4.64c-.015.054-.026.1-.041.159l-5.126,19.128h5l2.581-9.629a3.441,3.441,0,0,0,1.576,2.018,5.573,5.573,0,0,0,2.949.728,8.655,8.655,0,0,0,4.156-1.059,10.309,10.309,0,0,0,3.425-3.028,13.418,13.418,0,0,0,2.146-4.55,10.152,10.152,0,0,0,.29-4.6,5.122,5.122,0,0,0-1.793-3.127" transform="translate(-1097.463 -130.051)" fill="#072654" fill-rule="evenodd"/>
      <path id="Fill-15" d="M1684.954,148.711l0,0h-3.027c-.1,0-.182,0-.271,0h-1.571l-.8,1.119c-.064.084-.129.169-.2.268l-.087.13-6.385,8.892-1.325-10.413h-5.23l2.649,15.824-5.849,8.1h5.21l1.418-2.008c.042-.06.078-.109.122-.172l1.654-2.345.048-.067,7.4-10.492,6.237-8.831.008-.007Z" transform="translate(-1504.236 -134.15)" fill="#072654" fill-rule="evenodd"/>
      <path id="Fill-17" d="M108.374,10.472l-1.5,5.506,8.561-5.537-5.6,20.888,5.685.005L123.8.482Z" transform="translate(-95.998)" fill="#3395ff" fill-rule="evenodd"/>
      <path id="Fill-19" d="M3.161,146.349.808,155.13H12.461l4.768-17.864L3.161,146.349" transform="translate(0 -123.795)" fill="#072654" fill-rule="evenodd"/>
    </g>
  </g>
</svg>
