<svg xmlns="http://www.w3.org/2000/svg" width="50" height="50" viewBox="0 0 50 50">
  <g id="articles" transform="translate(-1546.92 -6422.92)">
    <rect id="Rectangle_197" data-name="Rectangle 197" width="50" height="50" transform="translate(1546.92 6422.92)" fill="none"/>
    <g id="Articles-2" data-name="Articles" transform="translate(1548.662 6423)">
      <path id="Path_266" data-name="Path 266" d="M39.427,49.84H6.718L6.129,49.7a7.816,7.816,0,0,1-4.952-3.509,6.628,6.628,0,0,1-1.155-3.44C-.021,37.836.013,32.923.016,28.009q0-4.037,0-8.075a2.133,2.133,0,0,1,.564-1.6,2.069,2.069,0,0,1,1.572-.611c.689,0,1.377,0,2.106,0,0-.281,0-.473,0-.665,0-1.427-.012-2.854.012-4.281A1.745,1.745,0,0,1,5.8,11.016c1.205-.1,2.422-.075,3.635-.1.22,0,.441,0,.709,0V10.27c0-2.691.006-5.384,0-8.076A2.047,2.047,0,0,1,11.4.142.989.989,0,0,0,11.584,0h29.3a1.6,1.6,0,0,0,.207.1A1.791,1.791,0,0,1,42.41,1.621a16.937,16.937,0,0,1,.053,2.185c0,.315.1.434.42.425.6-.016,1.2-.02,1.8,0a1.877,1.877,0,0,1,1.852,1.235,3.34,3.34,0,0,1,.169,1.139q.012,17.228,0,34.457a14.237,14.237,0,0,1-.178,2.454,7.3,7.3,0,0,1-4.655,5.733,18.5,18.5,0,0,1-1.959.589h-.487ZM11.861,48.773c.056,0,.153.012.249.012q13.479,0,26.958-.012a6.741,6.741,0,0,0,1.852-.282,6.577,6.577,0,0,0,4.74-6.517q.009-17.663,0-35.326c0-1.1-.281-1.384-1.368-1.384H16.8c-.162,0-.326-.008-.486.007a.928.928,0,0,0-.885.823,4.626,4.626,0,0,0-.024.679q0,17.1-.006,34.207c0,.758-.044,1.518-.12,2.271a6.346,6.346,0,0,1-1.463,3.525c-.6.708-1.3,1.332-1.955,2M4.224,18.787c-.7,0-1.364,0-2.025,0-.8,0-1.131.321-1.131,1.115q0,11.169-.006,22.338a6.272,6.272,0,0,0,.6,2.657,6.648,6.648,0,0,0,8.5,3.436,6.756,6.756,0,0,0,4.221-6.455q.007-15.792,0-31.584c0-1.314-.009-2.628.007-3.942a2.408,2.408,0,0,1,.16-.936,2.087,2.087,0,0,1,2.145-1.2q11.948.015,23.9.006c.162,0,.325-.008.487,0,.272.012.375-.115.37-.381-.009-.454,0-.908,0-1.362,0-1.188-.239-1.427-1.422-1.427H12.576c-.162,0-.325,0-.487.007a.9.9,0,0,0-.892.909c-.013.21-.006.422-.006.632V41.487c0,.194.007.39,0,.584a3.465,3.465,0,0,1-3.343,3.555A3.226,3.226,0,0,1,4.856,44.05a3.875,3.875,0,0,1-.606-2.3q.019-11.121.006-22.241c0-.223-.019-.444-.032-.719m5.917,8.527V15.1c0-.908-.006-1.816,0-2.724,0-.267-.05-.423-.37-.419-1.184.014-2.367,0-3.551.012A.9.9,0,0,0,5.3,12.8a3.562,3.562,0,0,0-.021.533q0,14.155,0,28.31a7.311,7.311,0,0,0,.079,1.016,2.519,2.519,0,0,0,2.178,1.913A2.442,2.442,0,0,0,10.137,42q.01-7.344,0-14.689" transform="translate(0)" fill="#2d3745"/>
      <path id="Path_267" data-name="Path 267" d="M8.555,60h0Z" transform="translate(-1.449 -10.16)" fill="#8990a1"/>
      <path id="Path_268" data-name="Path 268" d="M14.4,0h0Z" transform="translate(-2.421)" fill="#8990a1"/>
      <path id="Path_269" data-name="Path 269" d="M49.085,0h0Z" transform="translate(-8.296)" fill="#8990a1"/>
      <path id="Path_270" data-name="Path 270" d="M47.464,60h0Z" transform="translate(-8.038 -10.16)" fill="#8990a1"/>
      <path id="Path_271" data-name="Path 271" d="M14.279,49.846c.659-.665,1.357-1.289,1.955-2A6.341,6.341,0,0,0,17.7,44.324c.076-.753.119-1.513.12-2.271q.011-17.1.006-34.207a4.627,4.627,0,0,1,.024-.679.927.927,0,0,1,.885-.823c.161-.015.325-.007.487-.007H46.711c1.087,0,1.368.284,1.368,1.384q0,17.663,0,35.326a6.575,6.575,0,0,1-4.739,6.517,6.741,6.741,0,0,1-1.852.282q-13.479.027-26.958.012c-.1,0-.193-.009-.249-.012M32.79,18.693v0c3.391,0,6.782.013,10.171-.007a2.036,2.036,0,0,0,2.268-2.2c.056-1.7.021-3.406.01-5.109a1.966,1.966,0,0,0-1.048-1.893,3.17,3.17,0,0,0-1.353-.295q-9.88-.027-19.759-.01a4.192,4.192,0,0,0-.677.049,1.978,1.978,0,0,0-1.7,1.9c-.028,1.881-.033,3.763,0,5.644a2,2,0,0,0,2.014,1.924q5.036.007,10.073,0m6.262,24.25c1.313,0,2.627-.027,3.938.008a2.1,2.1,0,0,0,2.247-2.189c.029-1.6.035-3.21,0-4.813a2.1,2.1,0,0,0-2.251-2.188c-2.626.035-5.251.008-7.876.013a2.03,2.03,0,0,0-2.15,2.111c-.017,1.637.032,3.275-.017,4.91a2.158,2.158,0,0,0,2.173,2.161c1.31-.061,2.625-.015,3.937-.014M32.931,25.61q-5.666,0-11.331,0c-.177,0-.394-.042-.522.042a.883.883,0,0,0-.415.518c-.014.139.24.349.419.448a1.165,1.165,0,0,0,.524.042q11.356,0,22.711,0a2.541,2.541,0,0,0,.436-.014c.355-.061.471-.288.412-.629-.079-.461-.439-.405-.757-.406q-5.739,0-11.477,0m.007-3.028H43.589c.373,0,.746,0,1.118,0a.461.461,0,0,0,.481-.5.468.468,0,0,0-.442-.532,3.372,3.372,0,0,0-.389-.013H21.547c-.145,0-.323-.035-.429.033-.186.12-.477.334-.454.461.035.2.269.4.464.53.114.076.315.025.477.025H32.937m.043,7.109H21.593c-.146,0-.326-.05-.43.017-.2.13-.451.3-.5.5-.029.124.251.369.439.482a1.112,1.112,0,0,0,.524.044H44.255c.178,0,.4.046.524-.038.173-.114.387-.336.381-.5s-.238-.363-.412-.485c-.1-.069-.284-.018-.429-.018H32.981M30.13,47.022h8.558c.162,0,.364.052.477-.026a.889.889,0,0,0,.407-.506c.015-.147-.213-.358-.381-.468-.117-.076-.315-.04-.476-.04q-8.581,0-17.164,0l-.243,0c-.35,0-.656.167-.656.506,0,.359.3.549.679.534.129,0,.259,0,.389,0H30.13M25.392,34.81v0c1.328,0,2.656,0,3.986,0,.367,0,.714-.077.694-.545-.018-.431-.351-.488-.7-.488q-4.01,0-8.018,0c-.36,0-.7.107-.71.486-.013.413.338.542.714.55.13,0,.259,0,.389,0h3.645m-.052,4.055c.955,0,1.911,0,2.867,0,.469,0,.94.007,1.409-.014.307-.014.513-.224.442-.512-.047-.186-.27-.343-.442-.475-.073-.056-.22-.02-.333-.02H21.507c-.13,0-.3-.041-.38.022-.189.14-.435.32-.466.514-.021.129.272.341.459.459.106.066.284.024.429.025h3.791m0,4.077h3.014a6.759,6.759,0,0,0,1.211-.026.762.762,0,0,0,.491-.464c.083-.316-.159-.5-.48-.528-.113-.011-.227-.008-.341-.008H21.556c-.114,0-.259-.04-.335.015a7.237,7.237,0,0,0-.6.525,5.305,5.305,0,0,0,.589.473c.095.058.253.013.383.013H25.34" transform="translate(-2.418 -1.073)" fill="#d2f3f9"/>
      <path id="Path_272" data-name="Path 272" d="M4.44,19c.012.275.032.5.032.719q0,11.121-.006,22.24a3.876,3.876,0,0,0,.606,2.3A3.225,3.225,0,0,0,8.064,45.84a3.465,3.465,0,0,0,3.342-3.555c.009-.194,0-.39,0-.584V2.816c0-.211-.008-.422,0-.632a.9.9,0,0,1,.893-.909c.161-.012.325-.007.487-.007H40.242c1.184,0,1.421.239,1.422,1.427,0,.454-.008.908,0,1.362.006.266-.1.394-.37.381-.162-.007-.324,0-.486,0q-11.949,0-23.9-.006a2.087,2.087,0,0,0-2.144,1.2,2.412,2.412,0,0,0-.16.937C14.59,7.882,14.6,9.2,14.6,10.51q0,15.792,0,31.584a6.757,6.757,0,0,1-4.221,6.455,6.648,6.648,0,0,1-8.5-3.436,6.285,6.285,0,0,1-.6-2.657q.016-11.169.006-22.338c0-.793.331-1.112,1.131-1.115.661,0,1.322,0,2.025,0" transform="translate(-0.217 -0.215)" fill="#d2f3f9"/>
      <path id="Path_273" data-name="Path 273" d="M11.216,29.752q0,7.345,0,14.689a2.442,2.442,0,0,1-2.6,2.573A2.521,2.521,0,0,1,6.435,45.1a7.575,7.575,0,0,1-.079-1.016q-.006-14.155,0-28.31a3.562,3.562,0,0,1,.022-.533.9.9,0,0,1,.922-.831c1.184-.016,2.367,0,3.551-.012.321,0,.372.153.37.419-.008.908,0,1.816,0,2.724q0,6.1,0,12.209" transform="translate(-1.076 -2.438)" fill="#d2f3f9"/>
      <path id="Path_274" data-name="Path 274" d="M34.1,19.273q-5.038,0-10.074,0a2,2,0,0,1-2.014-1.924c-.034-1.881-.029-3.763,0-5.644a1.98,1.98,0,0,1,1.7-1.9,4.192,4.192,0,0,1,.677-.049q9.88,0,19.759.01a3.165,3.165,0,0,1,1.354.3,1.967,1.967,0,0,1,1.048,1.893c.011,1.7.045,3.407-.01,5.109a2.037,2.037,0,0,1-2.269,2.2c-3.39.019-6.781.006-10.171.006Zm.165-1.046q4.986,0,9.972,0c.915,0,1.259-.353,1.262-1.273q0-2.407,0-4.815c0-.964-.365-1.334-1.312-1.334q-9.923,0-19.847,0c-.944,0-1.32.378-1.323,1.333q-.007,2.335,0,4.669c0,1.1.326,1.42,1.424,1.421q4.913,0,9.826,0" transform="translate(-3.723 -1.652)" fill="#2d3745"/>
      <path id="Path_275" data-name="Path 275" d="M42.856,48.533c-1.312,0-2.627-.047-3.937.014a2.157,2.157,0,0,1-2.173-2.161c.048-1.636,0-3.274.016-4.91a2.03,2.03,0,0,1,2.15-2.112c2.626,0,5.251.022,7.876-.012A2.1,2.1,0,0,1,49.04,41.54c.036,1.6.031,3.209,0,4.813a2.1,2.1,0,0,1-2.246,2.189c-1.312-.035-2.626-.008-3.938-.008m.067-8.123c-1.313,0-2.627-.006-3.941,0a1.056,1.056,0,0,0-1.2,1.2q-.016,2.335,0,4.671A1.073,1.073,0,0,0,38.974,47.5q3.916.024,7.832,0c.82-.006,1.183-.4,1.187-1.215q.01-2.335,0-4.671c0-.849-.364-1.2-1.226-1.206-1.281-.007-2.563,0-3.843,0" transform="translate(-6.222 -6.664)" fill="#2d3745"/>
      <path id="Path_276" data-name="Path 276" d="M34.232,29.538q5.738,0,11.476,0c.318,0,.678-.054.758.406a.472.472,0,0,1-.412.63,2.636,2.636,0,0,1-.437.013q-11.355,0-22.71,0a1.17,1.17,0,0,1-.525-.042c-.178-.1-.432-.309-.418-.448a.884.884,0,0,1,.414-.518c.129-.084.346-.042.523-.042q5.666,0,11.331,0" transform="translate(-3.719 -5)" fill="#2d3745"/>
      <path id="Path_277" data-name="Path 277" d="M34.239,25.679H22.907c-.162,0-.364.052-.477-.025-.2-.131-.429-.328-.465-.53-.022-.127.269-.341.454-.461.106-.068.284-.032.429-.032q11.4,0,22.81,0a3.351,3.351,0,0,1,.388.013.468.468,0,0,1,.442.532.459.459,0,0,1-.48.5c-.373.007-.746.006-1.119.006H34.239" transform="translate(-3.719 -4.169)" fill="#2d3745"/>
      <path id="Path_278" data-name="Path 278" d="M34.282,34.449H45.621c.146,0,.33-.051.429.018.175.122.407.315.413.485s-.208.39-.382.5c-.129.084-.346.038-.524.038H22.928a1.1,1.1,0,0,1-.524-.044c-.188-.113-.468-.357-.438-.482.047-.2.3-.373.5-.5.1-.066.285-.017.43-.017H34.282" transform="translate(-3.72 -5.83)" fill="#2d3745"/>
      <path id="Path_279" data-name="Path 279" d="M31.428,55.1H23.015c-.13,0-.259,0-.389,0-.381.015-.679-.175-.679-.534,0-.339.308-.5.658-.506l.242,0q8.584,0,17.165,0c.161,0,.358-.037.475.04.168.11.4.321.382.468a.884.884,0,0,1-.408.506c-.112.076-.315.026-.477.026H31.428" transform="translate(-3.717 -9.153)" fill="#2d3745"/>
      <path id="Path_280" data-name="Path 280" d="M26.69,40.4H23.045c-.13,0-.259,0-.389,0-.375-.008-.727-.137-.714-.551.012-.379.351-.486.709-.486q4.01.006,8.019,0c.347,0,.679.056.7.487.02.468-.326.545-.694.546q-1.992,0-3.985,0Z" transform="translate(-3.716 -6.666)" fill="#2d3745"/>
      <path id="Path_281" data-name="Path 281" d="M26.642,45.287q-1.9,0-3.791,0c-.145,0-.323.042-.429-.025-.188-.118-.48-.329-.459-.458.032-.194.277-.374.466-.514.086-.064.252-.023.38-.023h7.777c.113,0,.26-.037.333.019.173.133.4.29.442.475.071.288-.135.5-.442.513-.468.022-.939.013-1.409.014H26.642" transform="translate(-3.719 -7.494)" fill="#2d3745"/>
      <path id="Path_282" data-name="Path 282" d="M26.634,50.193H22.892c-.13,0-.288.045-.383-.013a5.305,5.305,0,0,1-.589-.473,7.237,7.237,0,0,1,.6-.525c.076-.055.221-.015.335-.015h7.679c.114,0,.228,0,.341.008.321.03.563.213.48.528a.762.762,0,0,1-.491.464,6.683,6.683,0,0,1-1.211.026H26.634" transform="translate(-3.712 -8.323)" fill="#2d3745"/>
      <path id="Path_283" data-name="Path 283" d="M34.47,18.44q-4.913,0-9.826,0c-1.1,0-1.422-.325-1.424-1.42q0-2.335,0-4.67c0-.954.38-1.332,1.323-1.332q9.923,0,19.847,0c.947,0,1.31.37,1.312,1.334q0,2.407,0,4.815c0,.92-.347,1.271-1.262,1.273q-4.986.006-9.972,0" transform="translate(-3.932 -1.865)" fill="#1bb3ce"/>
      <path id="Path_284" data-name="Path 284" d="M43.133,40.626c1.281,0,2.563,0,3.843,0,.862,0,1.222.357,1.226,1.207q.01,2.335,0,4.67c0,.812-.367,1.21-1.187,1.215q-3.916.026-7.832,0A1.074,1.074,0,0,1,37.991,46.5q-.015-2.335,0-4.67a1.056,1.056,0,0,1,1.2-1.2c1.313-.008,2.627,0,3.941,0" transform="translate(-6.432 -6.879)" fill="#8bdde8"/>
    </g>
  </g>
</svg>
