<svg id="Hire_Us" data-name="Hire Us" xmlns="http://www.w3.org/2000/svg" width="74" height="74" viewBox="0 0 74 74">
  <rect id="Rectangle_22" data-name="Rectangle 22" width="74" height="74" fill="none"/>
  <g id="agreement" transform="translate(0.31)">
    <path id="Path_37" data-name="Path 37" d="M136.241,0h.578a20.854,20.854,0,0,1,3.065.679,4.047,4.047,0,0,0,2.346.043A22.818,22.818,0,0,1,145.454,0h.578a4.861,4.861,0,0,1,3.144,1.545Q149.9,2.324,151,3.73a3.25,3.25,0,0,0,1.571,1.03q.286.1,1.463.568l.457.173a4.807,4.807,0,0,1,2.62,2.229,6.069,6.069,0,0,1,.608,2.174q.121,1.038.155,2.272a3.155,3.155,0,0,0,.171.9,3.909,3.909,0,0,0,.406.812q.916,1.46,1.13,1.781a4.954,4.954,0,0,1,.489,4.95,16.419,16.419,0,0,1-1.411,2.337,4.543,4.543,0,0,0-.575,1.055,5.1,5.1,0,0,0-.21,1.205q-.1,1.5-.108,1.807a4.921,4.921,0,0,1-1.325,3.326,6.194,6.194,0,0,1-1.929,1.265q-.95.431-2.165.866a3.213,3.213,0,0,0-1.448,1.111q-.646.832-1.357,1.607a6.951,6.951,0,0,1-1.588,1.36,4.914,4.914,0,0,1-3.853.395q-.513-.142-1.029-.278l-.645-.192a4.476,4.476,0,0,0-2.619,0q-1.12.332-2.265.561a4.644,4.644,0,0,1-3-.332,6.151,6.151,0,0,1-1.733-1.386,21.964,21.964,0,0,1-1.432-1.72,3.4,3.4,0,0,0-1.494-1.09q-1.062-.422-2.13-.834a4.823,4.823,0,0,1-2.986-3,6.677,6.677,0,0,1-.3-1.535q-.077-.782-.078-1.57a4.966,4.966,0,0,0-.188-1.344,4.859,4.859,0,0,0-.587-1.205q-.8-1.276-1.013-1.6a4.881,4.881,0,0,1-.416-4.95,9.084,9.084,0,0,1,.551-1.006s.2-.29.59-.859a8.269,8.269,0,0,0,.666-1.171,3.822,3.822,0,0,0,.318-1.217q.108-1.036.145-2.08a4.81,4.81,0,0,1,1.789-3.778,7.762,7.762,0,0,1,1.724-.942q.908-.389,1.824-.759a3.972,3.972,0,0,0,.955-.51,4.477,4.477,0,0,0,.76-.795q.178-.236.869-1.055s.11-.134.315-.389A5.119,5.119,0,0,1,136.241,0Zm-7.93,28.373a11.361,11.361,0,0,0,2.357,1,6.287,6.287,0,0,1,2.8,1.857q.561.616,1.064,1.281a5.494,5.494,0,0,0,1.129,1.189,1.5,1.5,0,0,0,1.175.253q.759-.152,1.721-.406a15.038,15.038,0,0,1,1.724-.389,7.563,7.563,0,0,1,3.185.3q.887.277,1.8.471a1.549,1.549,0,0,0,1.564-.465q.616-.665,1.681-2a6.074,6.074,0,0,1,2.7-1.914,20.909,20.909,0,0,0,2.5-1.049,1.66,1.66,0,0,0,.872-1.481q.039-1.233.172-2.458a7.022,7.022,0,0,1,.444-1.886,9.064,9.064,0,0,1,.991-1.8l.517-.73a4.5,4.5,0,0,0,.554-1.065,1.777,1.777,0,0,0-.254-1.552q-.753-1.1-1.419-2.26A6.873,6.873,0,0,1,155,14.014a5.29,5.29,0,0,1-.269-1.367q-.069-1.357-.182-2.71a1.38,1.38,0,0,0-.621-1.148,11.76,11.76,0,0,0-2.412-1.02,6.365,6.365,0,0,1-2.288-1.328,15.381,15.381,0,0,1-1.242-1.414,17.332,17.332,0,0,0-1.273-1.4,1.611,1.611,0,0,0-.513-.366,1.225,1.225,0,0,0-.646-.082,22.977,22.977,0,0,0-2.674.65,6.775,6.775,0,0,1-3.855-.091,12.741,12.741,0,0,0-2.4-.559,1.787,1.787,0,0,0-1.382.678q-.6.676-1.445,1.734a6.431,6.431,0,0,1-2.749,2q-1.218.473-2.415,1a1.524,1.524,0,0,0-.96,1.341q-.127,1.334-.191,2.672a6.161,6.161,0,0,1-1.243,3.311,10.9,10.9,0,0,0-1.278,2.117,1.313,1.313,0,0,0-.036.994,10.714,10.714,0,0,0,1.3,2.168,6.4,6.4,0,0,1,.987,1.993,8.209,8.209,0,0,1,.279,1.614q.072.818.1,1.64a4.4,4.4,0,0,0,.175,1.265A1.244,1.244,0,0,0,128.31,28.373Z" transform="translate(-104.259)" fill="#1bb3ce"/>
    <path id="Path_38" data-name="Path 38" d="M192.034,51.6a13,13,0,1,1-13-13A13,13,0,0,1,192.034,51.6Zm-3.178,0a9.824,9.824,0,1,0-9.824,9.824A9.824,9.824,0,0,0,188.856,51.6Z" transform="translate(-142.183 -33.021)" fill="#2d3745"/>
    <path id="Path_39" data-name="Path 39" d="M211.693,97.131q3.422-3.391,6.83-6.8a1.544,1.544,0,0,1,1.276-.506,1.628,1.628,0,0,1,1.093.593,1.361,1.361,0,0,1,.253,1.5,3.855,3.855,0,0,1-.85,1.106q-3.668,3.688-7.371,7.339a2.174,2.174,0,0,1-.886.6,1.579,1.579,0,0,1-.809,0,1.611,1.611,0,0,1-.663-.408q-1.27-1.179-2.479-2.424l-.367-.343a1.64,1.64,0,0,1-.558-1.473,1.425,1.425,0,0,1,.572-1,1.733,1.733,0,0,1,1.013-.36,1.422,1.422,0,0,1,1.1.447q.863.876,1.746,1.73A.074.074,0,0,0,211.693,97.131Z" transform="translate(-177.357 -76.839)" fill="#1bb3ce"/>
    <path id="Path_40" data-name="Path 40" d="M37.945,306.46h-.506a4,4,0,0,1-3.032-1.765.093.093,0,0,0-.13-.022,4.071,4.071,0,0,1-2.123.8,3.921,3.921,0,0,1-2.123-.439,3.987,3.987,0,0,1-1.633-1.612.172.172,0,0,0-.2-.078,4.1,4.1,0,0,1-2.749-.061,4.328,4.328,0,0,1-2.425-2.088.131.131,0,0,0-.171-.056,4.406,4.406,0,0,1-3,.345,4.328,4.328,0,0,1-2.388-1.532,4.641,4.641,0,0,1-.885-3.687.126.126,0,0,0-.078-.134q-.617-.238-1.236-.5a2.738,2.738,0,0,0-.856-.214q-5.481-.441-10.963-.876-.515-.04-.869-.082a1.959,1.959,0,0,1-.821-.259,1.567,1.567,0,0,1-.7-1.718q1.366-8.656,2.707-17.316a4.276,4.276,0,0,1,.421-1.5,1.545,1.545,0,0,1,1.642-.621q6.355.867,12.717,1.681l.415.077a1.85,1.85,0,0,0,.779-.022q5.663-1.367,11.337-2.684a7.427,7.427,0,0,0,.714-.217,2.189,2.189,0,0,1,.726-.127q7.034-.016,14.07-.009a3.284,3.284,0,0,1,1.2.2q4.612,1.815,9.306,3.636a.39.39,0,0,0,.215.019q5.677-1.153,11.3-2.311a3,3,0,0,1,1.265-.059,1.5,1.5,0,0,1,1.093.965q.039.1.283,1.331,1.581,7.955,3.177,15.905a11,11,0,0,1,.286,1.856q-.09,1.211-1.572,1.479-7.307,1.321-14.609,2.674a2.052,2.052,0,0,0-.72.282q-4.888,3.07-9.764,6.161a15.754,15.754,0,0,1-2.528,1.386,8.426,8.426,0,0,1-5.06.257.284.284,0,0,0-.225.042A4.965,4.965,0,0,1,37.945,306.46ZM26.511,281.313a13.974,13.974,0,0,0-.967,1.017.059.059,0,0,0-.013.048.055.055,0,0,0,.029.04,5.711,5.711,0,0,0,6.4-.6q.439-.332,2.236-2.029a3.4,3.4,0,0,1,1.155-.807,1.479,1.479,0,0,1,1.64.551q2.391,2.737,3.9,4.226a28.453,28.453,0,0,0,3.811,3.149q.853.588,2.461,1.513,5.252,3.023,10.61,5.856a.209.209,0,0,0,.134.02l3.879-.713a.074.074,0,0,0,.059-.087l-2.8-14.9a.131.131,0,0,0-.059-.086.146.146,0,0,0-.107-.019l-1.8.363a.666.666,0,0,1-.366-.043L46.8,274.978a.885.885,0,0,0-.325-.062H33.191a.318.318,0,0,0-.221.09q-2.841,2.755-5.577,5.47ZM25.44,277.94q.795-.775,1.583-1.56a.061.061,0,0,0,.02-.045v-.025a.039.039,0,0,0-.018-.031.052.052,0,0,0-.039-.006q-3.472.863-6.95,1.688a2.932,2.932,0,0,1-1.087.026q-1.136-.16-2.441-.308a.157.157,0,0,0-.172.132L14.2,292.029a.17.17,0,0,0,.039.136.173.173,0,0,0,.129.06,7.767,7.767,0,0,1,.812.058,3.241,3.241,0,0,1,.782.207q1.162.455,2.346.944a.162.162,0,0,0,.175-.035q.958-.958,1.916-1.9a4.305,4.305,0,0,1,2.242-1.2,4.36,4.36,0,0,1,2.418.228,4.422,4.422,0,0,1,2.314,2.062.078.078,0,0,0,.1.033,4.414,4.414,0,0,1,5.939,1.968.1.1,0,0,0,.12.045,3.993,3.993,0,0,1,3.162.084,4.087,4.087,0,0,1,1.984,2.008.158.158,0,0,0,.16.087,4.151,4.151,0,0,1,2.162.3,4.031,4.031,0,0,1,1.995,5.348.094.094,0,0,0,.015.093.1.1,0,0,0,.089.035,6.224,6.224,0,0,0,2.659-1.015l.689-.465q3.9-2.461,7.815-4.91a.111.111,0,0,0-.006-.192q-5.222-2.815-10.348-5.853a20.292,20.292,0,0,1-2.362-1.636,45.338,45.338,0,0,1-5.8-5.566.206.206,0,0,0-.146-.071.209.209,0,0,0-.153.057q-.759.717-1.421,1.26a8.977,8.977,0,0,1-11.757-.234,2.761,2.761,0,0,1-.665-.794,1.43,1.43,0,0,1-.09-1.084,3.235,3.235,0,0,1,.848-1.132Q23.9,279.446,25.44,277.94ZM4.56,291.429l6.333.509a.1.1,0,0,0,.1-.081l2.19-14.532a.1.1,0,0,0-.082-.11l-6.215-.821a.086.086,0,0,0-.1.071L4.473,291.319a.1.1,0,0,0,.087.11Zm60.51,1.551,6.108-1.111a.088.088,0,0,0,.071-.1l-3-15.05a.117.117,0,0,0-.137-.091l-5.862,1.205a.1.1,0,0,0-.077.114l2.8,14.97a.082.082,0,0,0,.1.066Zm-40.742,2.481a1.179,1.179,0,0,0-.009-1.668l-.053-.053a1.179,1.179,0,0,0-1.668.009l-2.59,2.618a1.179,1.179,0,0,0,.009,1.668l.053.053a1.179,1.179,0,0,0,1.668-.009Zm6.024,1.951a1.182,1.182,0,0,0,0-1.672l-.053-.053a1.182,1.182,0,0,0-1.672,0l-2.6,2.6a1.182,1.182,0,0,0,0,1.672l.053.053a1.182,1.182,0,0,0,1.672,0Zm5.255,1.47a.78.78,0,0,0,0-1.1l-.023-.023a.78.78,0,0,0-1.1,0L31.3,300.949a.781.781,0,0,0,0,1.1l.023.023a.781.781,0,0,0,1.1,0Zm4.356,2.435a.776.776,0,0,0,0-1.1l-.035-.035a.776.776,0,0,0-1.1,0l-1.724,1.73a.776.776,0,0,0,0,1.1l.035.035a.776.776,0,0,0,1.1,0Z" transform="translate(-1.031 -232.461)" fill="#2d3745"/>
  </g>
</svg>
