<svg xmlns="http://www.w3.org/2000/svg" width="30" height="27.31" viewBox="0 0 30 27.31">
  <path id="ic_thumb" d="M88.357-857.382a2.066,2.066,0,0,1-1.518-.625,2.067,2.067,0,0,1-.625-1.518V-874.81a2.061,2.061,0,0,1,.161-.786,2.04,2.04,0,0,1,.446-.679l7.393-7.786a2.1,2.1,0,0,1,1.2-.607,1.922,1.922,0,0,1,1.3.25,2.246,2.246,0,0,1,.911,1,2.036,2.036,0,0,1,.161,1.321l-1.357,6.429h11.429a2.049,2.049,0,0,1,1.482.661,2.049,2.049,0,0,1,.661,1.482v2.929a5.442,5.442,0,0,1-.089.911,3.731,3.731,0,0,1-.268.911L105.5-859.2a3.1,3.1,0,0,1-1.054,1.286,2.587,2.587,0,0,1-1.554.536Zm-6.321,0a1.955,1.955,0,0,1-1.429-.607A1.955,1.955,0,0,1,80-859.418v-14.214a1.955,1.955,0,0,1,.607-1.429,1.955,1.955,0,0,1,1.429-.607,1.955,1.955,0,0,1,1.429.607,1.955,1.955,0,0,1,.607,1.429v14.214a1.955,1.955,0,0,1-.607,1.429A1.955,1.955,0,0,1,82.036-857.382Z" transform="translate(-80 884.692)" fill="#283042"/>
</svg>
