<svg xmlns="http://www.w3.org/2000/svg" width="50" height="50" viewBox="0 0 50 50">
  <g id="Image_slider" data-name="Image slider" transform="translate(-1159.666 -6555.666)">
    <rect id="Rectangle_210" data-name="Rectangle 210" width="50" height="50" transform="translate(1159.666 6555.666)" fill="none"/>
    <g id="Image_slider-2" data-name="Image slider" transform="translate(1160 6564.222)">
      <path id="Path_367" data-name="Path 367" d="M44.729,5.051l-.156-.116a1.338,1.338,0,0,1-.164-.149l-.173-.174V2.5H39.214V0H10.028V2.534H4.989v1.83l-.008.257-.173.174c-.049.05-.107.1-.156.141L4.5,5.051H0v16.66H5.03v2.575H10v2.492H39.263v-2.55h5.006V21.695h5.063V5.051ZM4.989,20.345H1.364V6.558H4.989Zm5.1-1.83c0,.6,0,1.217-.008,1.822s-.008,1.209-.008,1.813v.24l-.173.182a1.344,1.344,0,0,1-.164.141l-.156.124H6.419V3.917H9.584l.156.116a.926.926,0,0,1,.164.149l.173.174V4.6c0,4.438.008,8.86.016,13.29Zm27.806,6.9H11.532l-.066-.522a5.424,5.424,0,0,1-.033-.547q-.012-.882,0-1.764c0-.886,0-1.764-.008-2.641a1.873,1.873,0,0,1,.805-1.805c.567-.373,1.118-.762,1.669-1.159.51-.364,1.011-.737,1.537-1.085a2.594,2.594,0,0,1,3.288.174c.542.439,1.093.861,1.652,1.292.855.662,1.742,1.35,2.581,2.07.822.7,1.619,1.441,2.392,2.153.551.513,1.093,1.027,1.669,1.54.041-.008.082-.017.09-.017,1.225-.712,2.441-1.449,3.649-2.186l5.762-3.478.2-.1c.041-.017.066-.025.082-.033l.173-.091.9-.48.025.878Zm.016-11.22a1.236,1.236,0,0,1-.641,1.2c-3.14,1.88-6.329,3.834-9.14,5.556a1.237,1.237,0,0,1-1.636-.215,45.858,45.858,0,0,0-6.337-5.341,16.6,16.6,0,0,0-2.022-1.11,2.713,2.713,0,0,0-1.175-.273,3.632,3.632,0,0,0-1.718.48c-.641.348-1.274.745-1.89,1.134-.271.174-.542.348-.814.513l-.658.157-.4-.356a.812.812,0,0,1-.033-.248L11.433,2.153a.916.916,0,0,1,.082-.373l.132-.406H37.3l.567.017.025.571c.008.2.016.364.016.538.008,1.954.008,3.9.008,5.854Zm5.006,8.645H39.757l-.148.017c-.14-.008-.255,0-.345-.017V22.15q0-7.018-.016-14.035c0-.588,0-1.176.008-1.764s.008-1.159.008-1.747V4.149a1.353,1.353,0,0,1-.016-.24l.51.008h3.164Zm5.063-2.509H44.343V6.542h3.641Z" fill="#2d3745"/>
      <rect id="Rectangle_207" data-name="Rectangle 207" width="3.668" height="13.787" transform="translate(44.305 6.542)" fill="#d2f3f9"/>
      <path id="Path_368" data-name="Path 368" d="M51.451,4.728V23.649H48.263l-.149.017c-.141-.008-.257,0-.348-.017v-.687q0-7.018-.017-14.035c0-.588,0-1.176.008-1.764s.008-1.159.008-1.747V4.96a1.343,1.343,0,0,1-.017-.24l.513.008Z" transform="translate(-8.578 -0.812)" fill="#d2f3f9"/>
      <rect id="Rectangle_208" data-name="Rectangle 208" width="3.652" height="13.787" transform="translate(1.375 6.558)" fill="#d2f3f9"/>
      <path id="Path_369" data-name="Path 369" d="M11.511,18.707v.621c0,.6,0,1.217-.008,1.822s-.008,1.209-.008,1.813v.24l-.174.182a1.352,1.352,0,0,1-.166.141L11,23.651H7.81V4.73H11l.157.116a.93.93,0,0,1,.166.149l.174.174v.248c0,4.438.008,8.86.017,13.29" transform="translate(-1.343 -0.813)" fill="#d2f3f9"/>
      <path id="Path_370" data-name="Path 370" d="M40.2,20.807v7.8h-26.2l-.065-.522a5.459,5.459,0,0,1-.033-.547q-.012-.882,0-1.764c0-.886,0-1.764-.008-2.641a1.878,1.878,0,0,1,.8-1.805c.563-.373,1.111-.762,1.658-1.159.506-.364,1-.737,1.527-1.085a2.565,2.565,0,0,1,3.267.174c.539.439,1.086.861,1.641,1.292.849.662,1.731,1.35,2.564,2.07.817.7,1.609,1.441,2.376,2.153.547.513,1.086,1.027,1.658,1.54.041-.008.082-.017.09-.017,1.217-.712,2.425-1.449,3.626-2.186l5.725-3.478.2-.1c.041-.017.065-.025.082-.033l.171-.091.9-.48Z" transform="translate(-2.39 -3.195)" fill="#d2f3f9"/>
      <path id="Path_371" data-name="Path 371" d="M40.214,2.786c0-.174-.008-.339-.016-.538l-.025-.571L39.61,1.66H14.122l-.131.406a.921.921,0,0,0-.082.373l.016,13.539a.817.817,0,0,0,.033.248l.4.356.653-.157c.269-.166.539-.339.808-.513.612-.389,1.241-.787,1.878-1.134a3.591,3.591,0,0,1,1.707-.48,2.681,2.681,0,0,1,1.168.273,16.463,16.463,0,0,1,2.009,1.11,45.639,45.639,0,0,1,6.3,5.341,1.224,1.224,0,0,0,1.625.215c2.793-1.722,5.962-3.677,9.081-5.556a1.238,1.238,0,0,0,.637-1.2V8.64c0-1.954,0-3.9-.008-5.854M32.709,13a4.127,4.127,0,0,1-2.981,1.325s-.147,0-.22-.008c-.147.008-.229.008-.3.008a4,4,0,0,1-2.8-1.267,4.556,4.556,0,0,1-1.315-3.2,4.36,4.36,0,0,1,4.361-4.488h.09a4.359,4.359,0,0,1,4.443,4.471A4.412,4.412,0,0,1,32.709,13" transform="translate(-2.392 -0.285)" fill="#d2f3f9"/>
      <path id="Path_372" data-name="Path 372" d="M29.708,36.256a1.1,1.1,0,0,1,1.228,1.224,1.29,1.29,0,0,1-1.231,1.282,1.323,1.323,0,0,1-1.275-1.321,1.137,1.137,0,0,1,1.279-1.185" transform="translate(-5.072 -6.234)" fill="#2d3745"/>
      <path id="Path_373" data-name="Path 373" d="M20.464,36.256a1.144,1.144,0,0,1,1.264,1.2,1.322,1.322,0,0,1-1.356,1.292,1.277,1.277,0,0,1-1.164-1.288,1.133,1.133,0,0,1,1.256-1.206" transform="translate(-3.427 -6.234)" fill="#2d3745"/>
      <path id="Path_374" data-name="Path 374" d="M38.915,36.256a1.1,1.1,0,0,1,1.245,1.2,1.287,1.287,0,0,1-1.266,1.3,1.383,1.383,0,0,1-1.24-1.306,1.137,1.137,0,0,1,1.262-1.2" transform="translate(-6.717 -6.234)" fill="#2d3745"/>
      <path id="Path_375" data-name="Path 375" d="M32.113,6.15h-.091A4.389,4.389,0,0,0,27.6,10.638a4.524,4.524,0,0,0,1.333,3.2,4.076,4.076,0,0,0,2.84,1.267c.075,0,.157,0,.306-.008.075.008.224.008.224.008a4.212,4.212,0,0,0,3.022-1.325,4.38,4.38,0,0,0,1.292-3.155,4.39,4.39,0,0,0-4.5-4.471m.091,7.643h-.132a3.1,3.1,0,0,1-2.153-.944A2.979,2.979,0,0,1,29,10.779a2.954,2.954,0,0,1,2.807-3.2c2.161,0,3.4,1.126,3.4,3.089a3.194,3.194,0,0,1-3.006,3.13" transform="translate(-4.952 -1.058)" fill="#2d3745"/>
      <path id="Path_376" data-name="Path 376" d="M35.5,10.959a3.194,3.194,0,0,1-3.006,3.13h-.132a3.1,3.1,0,0,1-2.153-.944,2.979,2.979,0,0,1-.919-2.07A2.954,2.954,0,0,1,32.1,7.87c2.161,0,3.4,1.126,3.4,3.089" transform="translate(-5.241 -1.353)" fill="#d2f3f9"/>
    </g>
  </g>
</svg>
