<svg id="notification" xmlns="http://www.w3.org/2000/svg" width="49.999" height="50" viewBox="0 0 49.999 50">
  <path id="Path_258" data-name="Path 258" d="M21.8,53.223a4.891,4.891,0,0,1-9.783,0,3.81,3.81,0,0,1,.025-.457,26.746,26.746,0,0,0,4.864.457h.14a27.014,27.014,0,0,0,4.728-.457c0,.014,0,.033,0,.047a3.922,3.922,0,0,1,.022.41" transform="translate(-1.971 -8.658)" fill="#1bb3ce"/>
  <path id="Path_260" data-name="Path 260" d="M28.676,44.291A28.494,28.494,0,0,1,20.5,47.1c-.09.018-.18.032-.273.047a26.477,26.477,0,0,1-4.6.41H15.5A26.974,26.974,0,0,1,10.77,47.1a28.48,28.48,0,0,1-8.177-2.805l1.044-3.129a11.34,11.34,0,0,0,.587-3.612V29.622a11.43,11.43,0,0,1,1.256-5.21,11.7,11.7,0,0,1,2.085-2.862,11.409,11.409,0,0,1,19.48,8.072V37.55a11.434,11.434,0,0,0,.587,3.612Z" transform="translate(-0.425 -2.988)" fill="#d2f3f9"/>
  <path id="Path_261" data-name="Path 261" d="M28.677,44.291l-1.044-3.129a11.41,11.41,0,0,1-.588-3.611V29.622A11.411,11.411,0,0,0,7.566,21.549a11.663,11.663,0,0,0-2.085,2.863,11.424,11.424,0,0,0-1.256,5.21v7.929a11.338,11.338,0,0,1-.587,3.611L2.593,44.291A28.492,28.492,0,0,0,10.771,47.1a26.964,26.964,0,0,0,4.727.457h-.14a26.82,26.82,0,0,1-4.864-.457,3.81,3.81,0,0,0-.025.457,4.891,4.891,0,0,0,9.783,0,3.7,3.7,0,0,0-.022-.41c.094-.015.184-.029.274-.047a28.494,28.494,0,0,0,8.174-2.805M19.934,48.1a4.322,4.322,0,0,1-8.58,0l-.047-.353.353.05a26.377,26.377,0,0,0,7.968,0l.353-.05Zm-4.288-1.091A28.786,28.786,0,0,1,3.479,44.129l-.212-.1.9-2.7a11.922,11.922,0,0,0,.612-3.781V29.618a10.865,10.865,0,1,1,21.73,0v7.929a11.961,11.961,0,0,0,.615,3.784l.9,2.693-.209.1a28.723,28.723,0,0,1-12.167,2.877" transform="translate(-0.425 -2.988)" fill="#2d3745"/>
  <path id="Path_262" data-name="Path 262" d="M42.931,8.152a7,7,0,0,0-4.185,1.387l-.248.183-.148-.273A8.675,8.675,0,0,0,26.9,5.78l-.23.111-.123-.219A11.173,11.173,0,0,0,16.847,0,11.035,11.035,0,0,0,6.15,8.058L6.1,8.22l-.17.029A7.061,7.061,0,0,0,4.076,21.618l.234.109-.1.241a11.809,11.809,0,0,0-.947,4.663v7.929A10.866,10.866,0,0,1,2.7,38L1.516,41.556l.389.223a28.8,28.8,0,0,0,7.673,2.729l.206.043.011.208a5.43,5.43,0,0,0,10.853,0l.007-.208.206-.043a28.558,28.558,0,0,0,7.673-2.729l.389-.223L27.732,38a10.938,10.938,0,0,1-.558-3.439V26.631a11.948,11.948,0,0,0-.695-3.986l-.13-.36H43.607C46.049,21.129,50,17.968,50,15.22a7.076,7.076,0,0,0-7.068-7.069M26.62,26.635v7.929a11.432,11.432,0,0,0,.587,3.611L28.251,41.3a28.494,28.494,0,0,1-8.174,2.805c-.09.018-.18.032-.273.047a3.911,3.911,0,0,1,.021.41,4.891,4.891,0,0,1-9.783,0,3.991,3.991,0,0,1,.025-.457,26.822,26.822,0,0,0,4.865.457h.14a26.966,26.966,0,0,1-4.728-.457A28.48,28.48,0,0,1,2.168,41.3l1.044-3.129A11.338,11.338,0,0,0,3.8,34.563V26.635a11.424,11.424,0,0,1,1.256-5.21A11.685,11.685,0,0,1,7.14,18.562a11.409,11.409,0,0,1,19.48,8.073m17.031-5.441H25.86l-.076-.144a11.932,11.932,0,0,0-20.837-.508l-.122.206-.22-.1A5.964,5.964,0,0,1,6.585,9.269l.4-.033.089-.385A10.038,10.038,0,0,1,25.943,6.888l.259.552.522-.321a7.6,7.6,0,0,1,3.982-1.134,7.511,7.511,0,0,1,6.87,4.393l.076.155-.112.13a7.078,7.078,0,0,0-1.67,4.288h1.094a5.975,5.975,0,0,1,11.944.27c0,2.229-3.291,4.954-5.257,5.973" fill="#2d3745"/>
  <path id="Path_263" data-name="Path 263" d="M49.123,15.435c0,2.229-3.291,4.954-5.257,5.973H26.075L26,21.265a11.932,11.932,0,0,0-20.837-.508l-.122.206-.22-.1A5.964,5.964,0,0,1,6.8,9.484l.4-.033.09-.385A10.037,10.037,0,0,1,26.157,7.1l.259.551.522-.321A7.6,7.6,0,0,1,30.921,6.2a7.511,7.511,0,0,1,6.87,4.393l.076.155-.112.13a7.078,7.078,0,0,0-1.67,4.288h1.094a5.975,5.975,0,0,1,11.944.27" transform="translate(-0.215 -0.215)" fill="#d2f3f9"/>
  <path id="Path_264" data-name="Path 264" d="M8.44,30.208a8.709,8.709,0,0,1,8.424-8.424v1.092a7.616,7.616,0,0,0-7.331,7.332Z" transform="translate(-1.385 -3.574)" fill="#2d3745" opacity="0.2"/>
  <rect id="Rectangle_194" data-name="Rectangle 194" width="1.093" height="1.093" transform="translate(6.9 28.733)" fill="#2d3745" opacity="0.2"/>
  <path id="Path_265" data-name="Path 265" d="M7.8,29.885a8.708,8.708,0,0,1,8.424-8.423v1.093a7.614,7.614,0,0,0-7.331,7.33Z" transform="translate(-1.279 -3.522)" fill="#2d3745"/>
  <rect id="Rectangle_196" data-name="Rectangle 196" width="1.093" height="1.093" transform="translate(6.513 28.532)" fill="#2d3745"/>
</svg>
