<svg xmlns="http://www.w3.org/2000/svg" width="42" height="42" viewBox="0 0 42 42">
  <path id="phone" d="M37.155,14.364h2.027A3.818,3.818,0,0,1,43,18.182v7.636a3.818,3.818,0,0,1-3.818,3.818H37.155A15.276,15.276,0,0,1,22,43V39.182A11.455,11.455,0,0,0,33.455,27.727V16.273a11.455,11.455,0,1,0-22.909,0V29.636H4.818A3.818,3.818,0,0,1,1,25.818V18.182a3.818,3.818,0,0,1,3.818-3.818H6.845a15.275,15.275,0,0,1,30.309,0ZM4.818,18.182v7.636H6.727V18.182Zm32.455,0v7.636h1.909V18.182ZM13.9,29.226l2.024-3.238a11.465,11.465,0,0,0,12.143,0L30.1,29.226a15.286,15.286,0,0,1-16.191,0Z" transform="translate(-1 -1)" fill="#fff"/>
</svg>
