<svg id="Questions__hover" data-name="Questions?_hover" xmlns="http://www.w3.org/2000/svg" width="74" height="74" viewBox="0 0 74 74">
  <rect id="Rectangle_20" data-name="Rectangle 20" width="74" height="74" fill="none"/>
  <g id="speech-bubble" transform="translate(0 2.999)">
    <path id="Path_35" data-name="Path 35" d="M74,52.577v1.084a33.915,33.915,0,0,1-8.049,21.607,33.476,33.476,0,0,1-18,11.2,28.725,28.725,0,0,1-2.833.555A33.986,33.986,0,0,1,21.96,82.242a.135.135,0,0,0-.163.019,14.677,14.677,0,0,1-8.183,4.017,13.9,13.9,0,0,1-2.881.116A14.59,14.59,0,0,1,.262,81.177,1.374,1.374,0,0,1,0,80.418V80.2a1.741,1.741,0,0,1,.379-.919,2.381,2.381,0,0,1,.789-.53,15.238,15.238,0,0,0,8.4-10.007.288.288,0,0,0-.019-.21,35.4,35.4,0,0,1-3.42-11.71q-.158-1.4-.181-2.883A34.022,34.022,0,0,1,13.06,32.175q.883-1.159,1.85-2.217A33.782,33.782,0,0,1,44.5,19.181q1.435.189,2.846.506a33.06,33.06,0,0,1,15.666,8.247A33.944,33.944,0,0,1,74,52.577ZM37.1,84.083a30.117,30.117,0,0,0,11.129-.991A30.619,30.619,0,0,0,58.46,78.007q1.13-.854,2.214-1.854a30.986,30.986,0,0,0,9.562-17.032,26.673,26.673,0,0,0,.419-2.859,30.967,30.967,0,0,0-4.891-20.119q-.8-1.24-1.679-2.353A30.739,30.739,0,0,0,56.3,26.8,30.829,30.829,0,0,0,28.03,24.484a30.781,30.781,0,0,0-9.977,6.807q-1,1.019-1.922,2.154A30.856,30.856,0,0,0,9.249,50.332q-.137,1.451-.13,2.886A31.6,31.6,0,0,0,12.67,67.682a1.711,1.711,0,0,1,.121,1.218A18.457,18.457,0,0,1,4.4,80.624a.093.093,0,0,0-.006.153,11.8,11.8,0,0,0,7.167,2.461,10.939,10.939,0,0,0,2.857-.366,11.962,11.962,0,0,0,5.991-3.756,1.489,1.489,0,0,1,1.464-.564,4.457,4.457,0,0,1,1.263.655A30.406,30.406,0,0,0,37.1,84.083Z" transform="translate(0 -18.874)" fill="#2d3745"/>
    <path id="Path_36" data-name="Path 36" d="M218.97,148.61a2.274,2.274,0,0,1,.207-2.317,12.2,12.2,0,0,1,4.191-4.38,11.6,11.6,0,0,1,3.57-1.431,11.686,11.686,0,0,1,12.716,5.792,11.765,11.765,0,0,1,1.265,3.636,11.342,11.342,0,0,1-.849,6.774,11.8,11.8,0,0,1-2.129,3.208,11.554,11.554,0,0,1-6.059,3.421.386.386,0,0,0-.331.423q.033,1.692-.021,3.239a3.036,3.036,0,0,1-.211,1.147,1.773,1.773,0,0,1-.839.882,2.04,2.04,0,0,1-2.539-.338,2.271,2.271,0,0,1-.663-1.791q.023-.547.023-.553v-2.007a7.116,7.116,0,0,1,.213-1.984,4.39,4.39,0,0,1,2.45-2.8l1.684-.545a7.22,7.22,0,0,0,3.992-3.024,7.659,7.659,0,0,0,1.178-3.636,7.034,7.034,0,0,0-2.857-6.306,6.886,6.886,0,0,0-4.057-1.545,7.637,7.637,0,0,0-3.752.76,7.374,7.374,0,0,0-3.054,2.754,9.52,9.52,0,0,1-.89,1.278,1.811,1.811,0,0,1-1.58.491A2.165,2.165,0,0,1,218.97,148.61Z" transform="translate(-189.95 -128.333)" fill="#fefefe"/>
    <rect id="Rectangle_21" data-name="Rectangle 21" width="4.208" height="7" rx="2.104" transform="translate(37.379 49.788) rotate(0.1)" fill="#fefefe"/>
  </g>
</svg>
