<svg xmlns="http://www.w3.org/2000/svg" width="50" height="50" viewBox="0 0 50 50">
  <g id="rtl_suport" transform="translate(-171.879 -6670.879)">
    <rect id="Rectangle_183" data-name="Rectangle 183" width="50" height="50" transform="translate(171.879 6670.879)" fill="none"/>
    <g id="RTL_suport-2" data-name="RTL_suport" transform="translate(172.434 6672.659)">
      <path id="Path_226" data-name="Path 226" d="M36.738,17.468v9a1.509,1.509,0,0,1-1.511,1.511H13.389L9.636,31.74a1.564,1.564,0,0,1-2.208,0L3.675,27.984H1.921A1.511,1.511,0,0,1,.41,26.473v-9a1.514,1.514,0,0,1,1.511-1.514H35.227a1.512,1.512,0,0,1,1.511,1.514" transform="translate(-0.41 -2.234)" fill="#d2f3f9"/>
      <path id="Path_227" data-name="Path 227" d="M36.738,17.468v9a1.509,1.509,0,0,1-1.511,1.511H13.389L9.636,31.74a1.564,1.564,0,0,1-2.208,0L3.675,27.984H1.921A1.511,1.511,0,0,1,.41,26.473v-9a1.514,1.514,0,0,1,1.511-1.514H35.227A1.512,1.512,0,0,1,36.738,17.468Z" transform="translate(-0.41 -2.234)" fill="none" stroke="#2d3745" stroke-miterlimit="10" stroke-width="0.82"/>
      <path id="Path_228" data-name="Path 228" d="M15.558,36.684v9A1.509,1.509,0,0,0,17.069,47.2H38.907l3.753,3.757a1.564,1.564,0,0,0,2.208,0L48.621,47.2h1.754a1.511,1.511,0,0,0,1.511-1.511v-9a1.514,1.514,0,0,0-1.511-1.514H17.069a1.512,1.512,0,0,0-1.511,1.514" transform="translate(-2.996 -5.514)" fill="#d2f3f9"/>
      <path id="Path_229" data-name="Path 229" d="M15.558,36.684v9A1.509,1.509,0,0,0,17.069,47.2H38.907l3.753,3.757a1.564,1.564,0,0,0,2.208,0L48.621,47.2h1.754a1.511,1.511,0,0,0,1.511-1.511v-9a1.514,1.514,0,0,0-1.511-1.514H17.069A1.512,1.512,0,0,0,15.558,36.684Z" transform="translate(-2.996 -5.514)" fill="none" stroke="#2d3745" stroke-miterlimit="10" stroke-width="0.82"/>
      <path id="Path_230" data-name="Path 230" d="M16.45,25.175a.582.582,0,1,1-.582-.582.582.582,0,0,1,.582.582" transform="translate(-2.949 -3.709)" fill="#2d3745"/>
      <path id="Path_231" data-name="Path 231" d="M31.361,10.449V2.4c0-1.1.5-1.988,1.123-1.988h10.88c.621,0,1.123.89,1.123,1.988v8.052c0,1.1-.5,1.988-1.123,1.988H32.484c-.621,0-1.123-.89-1.123-1.988" transform="translate(-5.693 -0.41)" fill="#d2f3f9"/>
      <path id="Path_232" data-name="Path 232" d="M31.361,10.449V2.4c0-1.1.5-1.988,1.123-1.988h10.88c.621,0,1.123.89,1.123,1.988v8.052c0,1.1-.5,1.988-1.123,1.988H32.484C31.863,12.437,31.361,11.547,31.361,10.449Z" transform="translate(-5.693 -0.41)" fill="none" stroke="#2d3745" stroke-miterlimit="10" stroke-width="0.82"/>
      <path id="Path_233" data-name="Path 233" d="M27.752,21.388a.582.582,0,0,1,.582-.582H39.571a.582.582,0,1,1,0,1.164H28.334a.582.582,0,0,1-.582-.582" transform="translate(-5.077 -3.062)" fill="#2d3745"/>
      <path id="Path_234" data-name="Path 234" d="M21.33,21.388a.582.582,0,0,1,.582-.582h3.156a.582.582,0,1,1,0,1.164H21.912a.582.582,0,0,1-.582-.582" transform="translate(-3.981 -3.062)" fill="#2d3745"/>
      <path id="Path_235" data-name="Path 235" d="M18.71,23.792a.582.582,0,0,1,.582-.582H37.986a.582.582,0,0,1,0,1.164H19.292a.582.582,0,0,1-.582-.582" transform="translate(-3.534 -3.473)" fill="#2d3745"/>
      <path id="Path_236" data-name="Path 236" d="M14.993,22.39v-.347a1.835,1.835,0,0,1-.741-.473,1.812,1.812,0,0,1-.5-1.353,1.826,1.826,0,0,1,3.349-.906.582.582,0,0,1-.973.639.661.661,0,1,0-.553,1.023.582.582,0,0,1,.582.582v.833a.582.582,0,1,1-1.164,0" transform="translate(-2.687 -2.667)" fill="#2d3745"/>
      <path id="Path_237" data-name="Path 237" d="M43.852,41.544a.557.557,0,0,1,.556-.556h5.662a.556.556,0,0,1,0,1.113H44.408a.557.557,0,0,1-.556-.556" transform="translate(-7.826 -6.507)" fill="#2d3745"/>
      <path id="Path_238" data-name="Path 238" d="M30.225,41.544a.557.557,0,0,1,.556-.556H40.01a.556.556,0,0,1,0,1.113H30.781a.557.557,0,0,1-.556-.556" transform="translate(-5.5 -6.507)" fill="#2d3745"/>
      <path id="Path_239" data-name="Path 239" d="M35.263,44.093a.557.557,0,0,1,.556-.556H53.676a.556.556,0,0,1,0,1.113H35.819a.557.557,0,0,1-.556-.556" transform="translate(-6.36 -6.943)" fill="#2d3745"/>
      <path id="Path_240" data-name="Path 240" d="M56.787,41.831a.556.556,0,0,1-.1-1.1.652.652,0,0,0-.158-.333l-.053-.06a.556.556,0,1,1,.832-.738l.053.06a1.761,1.761,0,0,1,.323,1.824.556.556,0,0,1-.517.352Z" transform="translate(-9.939 -6.238)" fill="#2d3745"/>
      <path id="Path_241" data-name="Path 241" d="M54.146,41.9a.556.556,0,0,1-.1-1.1.652.652,0,0,0-.158-.333l-.053-.06a.556.556,0,1,1,.832-.738l.053.06a1.763,1.763,0,0,1,.323,1.824.556.556,0,0,1-.517.352Z" transform="translate(-9.488 -6.25)" fill="#2d3745"/>
      <path id="Path_242" data-name="Path 242" d="M30.364,45.925a.553.553,0,0,1-.416-.187l-.052-.059a1.76,1.76,0,0,1-.323-1.824.557.557,0,0,1,.517-.352h.383a.556.556,0,0,1,.1,1.1.656.656,0,0,0,.158.334l.053.06a.556.556,0,0,1-.416.925Z" transform="translate(-5.367 -6.937)" fill="#2d3745"/>
      <path id="Path_243" data-name="Path 243" d="M33.005,45.855a.556.556,0,0,1-.416-.187l-.053-.06a1.761,1.761,0,0,1-.322-1.824.557.557,0,0,1,.517-.352h.383a.556.556,0,0,1,.1,1.1.656.656,0,0,0,.158.334l.052.059a.556.556,0,0,1-.415.925Z" transform="translate(-5.818 -6.925)" fill="#2d3745"/>
      <path id="Path_244" data-name="Path 244" d="M35.66,8.332a.738.738,0,1,0,1.381.521l.337-.893h2.349l.341.9a.738.738,0,1,0,1.379-.526l-2.1-5.5-.006-.016a.863.863,0,0,0-.8-.538h0a.862.862,0,0,0-.8.536l-.007.021Zm2.275-1.848.612-1.622.618,1.622Z" transform="translate(-6.419 -0.728)" fill="#2d3745"/>
    </g>
  </g>
</svg>
