<svg xmlns="http://www.w3.org/2000/svg" width="269" height="38" viewBox="0 0 269 38">
  <g id="stripe" transform="translate(17319 23941)">
    <rect id="Rectangle_212" data-name="Rectangle 212" width="269" height="38" transform="translate(-17319 -23941)" fill="none"/>
    <g id="stripe-2" data-name="stripe" transform="translate(-17284 -23977)">
      <path id="path18" d="M358.548,79.218c0-6.494-3.146-11.618-9.158-11.618-6.037,0-9.69,5.124-9.69,11.567,0,7.635,4.312,11.491,10.5,11.491a14.144,14.144,0,0,0,7.027-1.649V83.936a13.47,13.47,0,0,1-6.215,1.4c-2.461,0-4.642-.862-4.921-3.856h12.4C358.5,81.146,358.548,79.827,358.548,79.218Zm-12.531-2.41c0-2.867,1.75-4.059,3.349-4.059,1.547,0,3.2,1.192,3.2,4.059Z" transform="translate(-213.226 -23.584)" fill="#32325d" fill-rule="evenodd"/>
      <path id="path20" d="M269.083,67.6a7.166,7.166,0,0,0-4.972,1.979l-.33-1.573H258.2V97.584l6.342-1.344.025-7.179a7.144,7.144,0,0,0,4.49,1.6c4.541,0,8.676-3.653,8.676-11.694C277.707,71.608,273.522,67.6,269.083,67.6Zm-1.522,17.478a3.792,3.792,0,0,1-2.993-1.192l-.025-9.411a3.775,3.775,0,0,1,3.019-1.243c2.308,0,3.907,2.587,3.907,5.911C271.467,82.541,269.894,85.078,267.561,85.078Z" transform="translate(-152.4 -23.584)" fill="#32325d" fill-rule="evenodd"/>
      <path id="polygon22" d="M230.167,36,223.8,37.344v5.175l6.367-1.37Z" transform="translate(-126.727)" fill="#32325d" fill-rule="evenodd"/>
      <path id="rect24" d="M223.8,69.3h6.367V91.5H223.8Z" transform="translate(-126.727 -24.853)" fill="#32325d" fill-rule="evenodd"/>
      <path id="path26" d="M179.585,70.406l-.406-1.877H173.7v22.2h6.342V75.682a4.474,4.474,0,0,1,4.82-1.319V68.529A4.306,4.306,0,0,0,179.585,70.406Z" transform="translate(-89.336 -24.081)" fill="#32325d" fill-rule="evenodd"/>
      <path id="path28" d="M128.615,47.6l-6.19,1.319L122.4,69.238a6.374,6.374,0,0,0,6.57,6.519,9.8,9.8,0,0,0,4.439-.837v-5.15c-.812.33-4.82,1.5-4.82-2.258V58.508h4.82V53.1h-4.82Z" transform="translate(-51.049 -8.657)" fill="#32325d" fill-rule="evenodd"/>
      <path id="path30" d="M60.418,74.475c0-.989.812-1.37,2.156-1.37a14.149,14.149,0,0,1,6.291,1.624V68.767A16.729,16.729,0,0,0,62.574,67.6C57.425,67.6,54,70.289,54,74.779c0,7,9.64,5.885,9.64,8.9,0,1.167-1.015,1.547-2.435,1.547A15.79,15.79,0,0,1,54.279,83.2v6.037A17.585,17.585,0,0,0,61.2,90.684c5.276,0,8.9-2.613,8.9-7.154C70.083,75.971,60.418,77.316,60.418,74.475Z" transform="translate(0 -23.584)" fill="#32325d" fill-rule="evenodd"/>
    </g>
  </g>
</svg>
