<svg id="support_hover" xmlns="http://www.w3.org/2000/svg" width="74" height="74" viewBox="0 0 74 74">
  <rect id="Rectangle_18" data-name="Rectangle 18" width="74" height="73.868" fill="none"/>
  <g id="support" transform="translate(0.031)">
    <path id="Path_27" data-name="Path 27" d="M254.35,118.759a21.733,21.733,0,0,1,0-3.178c1.256-.016,2.5-.047,3.751-.062a2.66,2.66,0,0,1,.977.124,3,3,0,0,1,.837.574q4.557,4.348,9.084,8.743c.093.093.14.077.14-.062-.062-2.465-.109-4.96-.14-7.441a3.731,3.731,0,0,1,.093-1.085,1.414,1.414,0,0,1,.713-.884,3.6,3.6,0,0,1,1.442-.217c1.008-.016,2.015-.046,3.023-.108a.073.073,0,0,0,.077-.078l-.62-31.437a.159.159,0,0,0-.171-.155h0l-44.008.9a.172.172,0,0,0-.171.171h0l.357,18.664a26.905,26.905,0,0,1-3.162,0q-.232-13.254-.357-18.834c-.016-.481-.016-.9-.016-1.24a2.447,2.447,0,0,1,.248-1.194,1.493,1.493,0,0,1,1.318-.713q13.626-.349,46.4-.961a5.01,5.01,0,0,1,1.736.155,1.7,1.7,0,0,1,.961,1.721q.349,16.439.651,32.863c.015.558.015,1.008.015,1.349a2.271,2.271,0,0,1-.263,1.194,1.689,1.689,0,0,1-1.488.744c-1.178.016-2.356.062-3.534.124a.073.073,0,0,0-.077.078l.217,10.308a1.558,1.558,0,0,1-.186.744,1.448,1.448,0,0,1-1.86.775,2.437,2.437,0,0,1-.884-.574q-5.743-5.464-11.44-10.99a.19.19,0,0,0-.14-.046Z" transform="translate(-203.63 -80.281)" fill="#fefefe"/>
    <circle id="Ellipse_1" data-name="Ellipse 1" cx="1.55" cy="1.55" r="1.55" transform="translate(46.674 18.106)" fill="#2d3745"/>
    <circle id="Ellipse_2" data-name="Ellipse 2" cx="1.566" cy="1.566" r="1.566" transform="translate(34.63 18.338)" fill="#2d3745"/>
    <path id="Path_28" data-name="Path 28" d="M103.542,228.116a26.9,26.9,0,0,0,3.162,0h22.864a1.68,1.68,0,0,1,1.519.791,1.434,1.434,0,0,1,.186.775q.047,5.394.046,10.789a21.742,21.742,0,0,0,0,3.178c0,7.084-.015,14.153,0,21.237a3.837,3.837,0,0,1-.248,1.674,1.5,1.5,0,0,1-1.1.775,10.624,10.624,0,0,1-1.271.031H100.473a.315.315,0,0,0-.233.093q-5.72,5.72-11.362,11.316a1.8,1.8,0,0,1-.837.5,1.6,1.6,0,0,1-.93-.046,1.536,1.536,0,0,1-1.054-1.643q0-5.069-.016-10.138a.073.073,0,0,0-.078-.077c-1.922-.016-3.069-.016-3.441-.016a1.668,1.668,0,0,1-1.86-1.4,7.434,7.434,0,0,1-.062-1.318q.023-16.555.031-33.1c0-.62,0-1.147.015-1.581a2.111,2.111,0,0,1,.264-1.116,1.605,1.605,0,0,1,1.457-.744Q92.947,228.147,103.542,228.116Zm-15.424,36.2a1.5,1.5,0,0,1,.822.651,3.028,3.028,0,0,1,.248,1.364c.031,2.434.047,4.945.031,7.534,0,.078.031.093.078.031q4.581-4.6,9.115-9.068a2.281,2.281,0,0,1,.62-.465,1.873,1.873,0,0,1,.775-.155h28.228a.106.106,0,0,0,.109-.108l-.016-32.708a.073.073,0,0,0-.077-.078H83.886a.073.073,0,0,0-.077.078h0v32.739a.073.073,0,0,0,.077.078c1.07,0,2.155.016,3.224.016A3.769,3.769,0,0,1,88.118,264.311Z" transform="translate(-80.6 -205.318)" fill="#2d3745"/>
    <circle id="Ellipse_3" data-name="Ellipse 3" cx="1.566" cy="1.566" r="1.566" transform="translate(11.486 41.083)" fill="#fefefe"/>
    <circle id="Ellipse_4" data-name="Ellipse 4" cx="1.566" cy="1.566" r="1.566" transform="translate(23.515 41.083)" fill="#fefefe"/>
    <circle id="Ellipse_5" data-name="Ellipse 5" cx="1.566" cy="1.566" r="1.566" transform="translate(35.544 41.083)" fill="#fefefe"/>
  </g>
</svg>
