<svg xmlns="http://www.w3.org/2000/svg" width="50" height="50" viewBox="0 0 50 50">
  <g id="system_setting" transform="translate(16518.203 12702.203)">
    <rect id="Rectangle_202" data-name="Rectangle 202" width="50" height="50" transform="translate(-16518.203 -12702.203)" fill="none"/>
    <g id="System_Setting-2" data-name="System Setting" transform="translate(-16518 -12702.001)">
      <path id="Path_341" data-name="Path 341" d="M0,38.738V10.215a1.583,1.583,0,0,1,.1-.468v0A3.909,3.909,0,0,1,2.342,7.034a5.908,5.908,0,0,1,2.113-.411C7.986,6.583,11.517,6.6,15.049,6.6h.422a7.8,7.8,0,0,1,.49-.622c1.067-1.077,2.142-2.146,3.213-3.218a.9.9,0,0,1,1.471.012c.437.445.858.907,1.235,1.306.708-.3,1.3-.57,1.9-.79,1.008-.366,1.013-.352,1.013-1.422a5.577,5.577,0,0,0-.006-.725A1.021,1.021,0,0,1,25.377,0H30.8a1.171,1.171,0,0,1,.591,1.191c-.045.447.016.9-.018,1.353-.024.322.128.452.39.556.708.282,1.419.561,2.113.878a.422.422,0,0,0,.574-.116c.351-.377.724-.735,1.089-1.1a.906.906,0,0,1,1.475.015q1.576,1.57,3.145,3.148a1.111,1.111,0,0,1,.25.338.538.538,0,0,0,.589.35c1.608.008,3.216.013,4.822.079a3.933,3.933,0,0,1,3.486,2.674,3.15,3.15,0,0,0,.147.334,1.41,1.41,0,0,1,.138.6V38.358a7.23,7.23,0,0,1-.277,1.8v0a4.063,4.063,0,0,1-3.886,2.812c-5.222.026-10.445.009-15.667.009h-.588a1.76,1.76,0,0,0,.016.282q.609,2.4,1.223,4.789c.15.583.226,1.145-.386,1.534H19.566c-.379-.265-.69-.582-.571-1.09.16-.68.361-1.351.532-2.028.291-1.151.572-2.305.864-3.486h-.327q-7.908,0-15.815,0a5.043,5.043,0,0,1-.892-.083A3.845,3.845,0,0,1,.586,40.954,4.48,4.48,0,0,1,0,38.738m1.772-2.4c.166.01.333.026.5.026q22.524,0,45.049,0c.164,0,.33-.016.5-.026l.111-.11c0-.064.015-.128.015-.193q0-12.494-.006-24.989a3.576,3.576,0,0,0-.149-.978,2.5,2.5,0,0,0-2.616-1.808c-1.743,0-3.486.015-5.23-.012a1.069,1.069,0,0,0-1.041.479c.4.984.789,1.924,1.179,2.877a.288.288,0,0,0,.073.016q.9,0,1.791,0c.736,0,1.038.289,1.041,1.038q.011,2.228,0,4.455a1.006,1.006,0,0,1-1.094,1.092c-.516.007-1.034-.018-1.548.014a.566.566,0,0,0-.41.27c-.358.83-.681,1.675-1.029,2.55.419.417.884.864,1.333,1.327s.485.882.117,1.256q-1.717,1.739-3.46,3.455a.864.864,0,0,1-1.362-.03c-.343-.327-.683-.66-1-1.008a.729.729,0,0,0-.859-.16,15.689,15.689,0,0,1-1.937.812c-.277.093-.358.186-.352.441.014.565.01,1.13,0,1.7a.849.849,0,0,1-.811.909q-2.48.011-4.961,0a.822.822,0,0,1-.814-.813c-.006-.565-.015-1.13,0-1.694.011-.319-.084-.45-.493-.546A5.789,5.789,0,0,1,22.86,26.1a2.252,2.252,0,0,0-.555-.16c-.016.041-.031.082-.048.122.419.254.836.509,1.256.759a.868.868,0,0,1,.4,1.284q-1.184,2.1-2.41,4.174a.8.8,0,0,1-1.184.3c-.322-.165-.63-.354-.95-.523a.8.8,0,0,0-1.255.73c0,.355,0,.711,0,1.065a.746.746,0,0,1-.77.837c-1.679.017-3.357,0-5.035-.007a.621.621,0,0,1-.686-.579c-.053-.474-.078-.951-.092-1.428A.8.8,0,0,0,10.383,32c-.426.226-.838.479-1.275.681a.571.571,0,0,1-.8-.274c-.842-1.441-1.7-2.872-2.536-4.317a.911.911,0,0,1,.183-1.15,3.562,3.562,0,0,1,.483-.291c.55-.283,1.169-.511.944-1.34-.009-.034.022-.079.039-.13-.428-.255-.843-.508-1.263-.751a.831.831,0,0,1-.342-1.334c.064-.108.126-.219.189-.328.755-1.289,1.5-2.584,2.279-3.862a.871.871,0,0,1,.522-.3c.54-.122.9.285,1.337.492.264.125.475.4.858.187s.621-.444.531-.918a3.461,3.461,0,0,1-.006-.628c0-.923.244-1.183,1.175-1.167.393.007.543-.1.533-.516-.026-1.146-.015-2.292-.006-3.439.007-.817.285-1.084,1.1-1.089.468,0,.937-.02,1.4.006a.468.468,0,0,0,.569-.4A14.8,14.8,0,0,1,17,9.389c.341-.74.111-1.131-.7-1.131q-5.616,0-11.235,0c-.465,0-.932.026-1.4.068a2.445,2.445,0,0,0-2.023,2.23q0,12.543,0,25.085c0,.193.009.387.014.58l.107.111M17.582,6.757c.356.335.715.657,1.058,1,.651.641.629.9.229,1.7a23.673,23.673,0,0,0-1.205,2.886c-.231.67-.455.932-1.164.934-.527,0-1.055,0-1.575,0V16.54c.775,0,1.514-.007,2.254,0,.674.008.932.272.933.924,0,.339.024.679-.007,1.016a.624.624,0,0,0,.41.7c.283.129.515.282.827.012a3.839,3.839,0,0,1,.869-.492,1,1,0,0,1,1.451.477c.665,1.2,1.36,2.376,2.018,3.577a1.892,1.892,0,0,1,.31.96c-.022.29-.3.561-.5.893.666.234,1.388.494,2.114.74.679.23.834.424.838,1.127,0,.527,0,1.054,0,1.581h3.29a15.376,15.376,0,0,1,.023-1.869,1.038,1.038,0,0,1,.5-.759,15.229,15.229,0,0,0,3.653-1.508.735.735,0,0,1,.933.093c.476.447.955.892,1.362,1.272l2.366-2.36c-.4-.372-.828-.784-1.269-1.184a.794.794,0,0,1-.157-1.113,12.166,12.166,0,0,0,1.38-3.23c.222-.8.339-.856,1.147-.86.542,0,1.084,0,1.629,0V13.269c-.612,0-1.192.012-1.77,0a.9.9,0,0,1-.957-.654A11.34,11.34,0,0,0,37.2,9.218c-.352-.589-.275-.862.219-1.36.384-.385.774-.764,1.1-1.083L36.207,4.42c-.373.377-.755.793-1.17,1.175-.326.3-.679.589-1.18.242a8.918,8.918,0,0,0-3.171-1.359c-.776-.171-.951-.422-.951-1.137V1.676h-3.29c0,.571.006,1.116,0,1.661-.012.77-.282,1.026-1.264,1.162A5.515,5.515,0,0,0,22.5,5.678.86.86,0,0,1,21.158,5.6c-.394-.422-.8-.838-1.2-1.256L17.582,6.757M47.9,38.046H1.65a6.951,6.951,0,0,1,0,.732,2.557,2.557,0,0,0,2.536,2.566q20.7-.026,41.393-.01a1.36,1.36,0,0,0,.317-.059c1.561-.383,2.143-1.563,2.01-3.229M22.119,23.316l-.543-.928c-.175-.3-.355-.6-.524-.9-.568-1.018-.563-1.013-1.561-.446a.979.979,0,0,1-1.009.08c-.464-.255-.913-.536-1.377-.788a1.171,1.171,0,0,1-.64-1.132c0-.331,0-.662,0-.982H13.173c0,.406-.02.79,0,1.171a.856.856,0,0,1-.56.893,9.442,9.442,0,0,0-1.308.755.887.887,0,0,1-1.024.047c-.344-.179-.677-.379-1.054-.593L7.544,23.425c1.3.308,1.63,1.086,1.607,2.306A1.794,1.794,0,0,1,7.918,27.7a2.392,2.392,0,0,0-.332.2l1.649,2.85c.355-.2.667-.352.957-.539a.935.935,0,0,1,1.105,0c.454.284.936.522,1.4.8a.84.84,0,0,1,.485.86c-.036.379-.007.764-.007,1.163h3.293c0-.331,0-.635,0-.937a1.164,1.164,0,0,1,.727-1.205,7.417,7.417,0,0,0,1.18-.681.847.847,0,0,1,.936-.069c.294.15.57.341.874.469.117.05.371.027.418-.05.512-.852,1-1.722,1.5-2.614-.387-.243-.765-.469-1.132-.712a.942.942,0,0,1-.4-1.068,2.864,2.864,0,0,0,.034-1,1.018,1.018,0,0,1,.517-1.239c.319-.2.646-.39,1-.6M28.67,47.921c-.393-1.553-.791-3.045-1.136-4.549-.073-.317-.176-.384-.464-.383-1.517.011-3.033.016-4.55,0a.457.457,0,0,0-.526.417q-.341,1.443-.7,2.883c-.13.533-.267,1.064-.412,1.636Z" transform="translate(0 0.001)" fill="#2d3745"/>
      <path id="Path_342" data-name="Path 342" d="M48.195,38.065c-.176.01-.352.028-.528.028q-22.525,0-45.049,0c-.176,0-.352-.018-.528-.028l-.079-.109c0-.193-.014-.387-.014-.58q0-12.542,0-25.085a2.444,2.444,0,0,1,2.023-2.23c.464-.041.931-.068,1.4-.068q5.618-.009,11.235,0c.812,0,1.041.391.7,1.131a14.8,14.8,0,0,0-.7,1.747.468.468,0,0,1-.57.4c-.466-.026-.936-.009-1.4-.006-.813.006-1.09.273-1.1,1.089-.009,1.146-.021,2.293.006,3.439.009.419-.141.523-.534.516-.931-.016-1.175.244-1.175,1.167a3.46,3.46,0,0,0,.007.628c.09.474-.142.7-.531.918s-.594-.062-.858-.187c-.433-.207-.8-.613-1.337-.492a.871.871,0,0,0-.522.3c-.776,1.278-1.523,2.572-2.279,3.862-.064.109-.125.22-.19.328A.831.831,0,0,0,6.5,26.158c.42.243.834.5,1.263.751-.017.05-.049.1-.039.13.225.829-.394,1.057-.944,1.34a3.623,3.623,0,0,0-.484.291.913.913,0,0,0-.183,1.15c.837,1.445,1.694,2.876,2.537,4.317a.57.57,0,0,0,.8.274c.436-.2.849-.455,1.275-.681a.8.8,0,0,1,1.146.681c.014.477.04.955.093,1.428a.621.621,0,0,0,.686.579c1.678.009,3.357.024,5.035.007a.747.747,0,0,0,.77-.837c0-.355,0-.71,0-1.065a.8.8,0,0,1,1.255-.73c.32.169.628.358.95.523a.8.8,0,0,0,1.184-.3q1.227-2.073,2.41-4.174a.868.868,0,0,0-.4-1.284c-.42-.25-.837-.505-1.256-.759.016-.041.032-.081.048-.122a3.62,3.62,0,0,1,.455.114c.565.218,1.118.474,1.693.663a.427.427,0,0,1,.349.507c-.02.565-.011,1.13,0,1.694a.733.733,0,0,0,.788.813q2.493.019,4.987,0a.85.85,0,0,0,.811-.909c0-.565.009-1.131,0-1.7-.006-.245.069-.341.319-.43.686-.245,1.354-.543,2.018-.846a.569.569,0,0,1,.758.126c.337.369.7.719,1.057,1.065a.863.863,0,0,0,1.361.03Q38.984,27.1,40.7,25.354c.369-.374.322-.8-.117-1.256s-.914-.91-1.334-1.327c.349-.875.672-1.72,1.029-2.55a.569.569,0,0,1,.41-.27c.515-.032,1.032-.007,1.549-.014a1.007,1.007,0,0,0,1.094-1.092q.015-2.228,0-4.455c0-.749-.305-1.037-1.041-1.038q-.9,0-1.791,0a.288.288,0,0,1-.073-.016l-1.179-2.877a1.069,1.069,0,0,1,1.041-.479c1.743.026,3.486.007,5.23.012A2.5,2.5,0,0,1,48.133,11.8a3.608,3.608,0,0,1,.149.978q.011,12.5.006,24.989c0,.064-.01.128-.015.193l-.078.108" transform="translate(-0.346 -1.73)" fill="#d2f3f9"/>
      <path id="Path_343" data-name="Path 343" d="M20.413,6.864,22.848,4.4c.407.428.819.852,1.222,1.284a.845.845,0,0,0,1.2.207,12.235,12.235,0,0,1,3.4-1.425c.614-.162.8-.455.809-1.1.008-.558,0-1.115,0-1.7h3.365v1.7c0,.686.158.954.832,1.129A11.865,11.865,0,0,1,37.1,5.95c.49.312.841.022,1.165-.275.425-.39.816-.816,1.2-1.2.788.8,1.555,1.582,2.367,2.409C41.5,7.208,41.1,7.6,40.7,7.99c-.506.509-.584.788-.225,1.391a11.6,11.6,0,0,1,1.4,3.47.922.922,0,0,0,.979.669c.592.016,1.184,0,1.81,0v3.344c-.557,0-1.112,0-1.666,0-.827,0-.946.064-1.173.88a12.528,12.528,0,0,1-1.411,3.3.81.81,0,0,0,.16,1.138c.45.409.889.83,1.3,1.211L39.46,25.814c-.417-.389-.906-.844-1.394-1.3a.75.75,0,0,0-.954-.1,15.557,15.557,0,0,1-3.736,1.542,1.058,1.058,0,0,0-.511.776,15.563,15.563,0,0,0-.024,1.911H29.477c0-.54,0-1.079,0-1.617,0-.719-.162-.917-.856-1.152-.743-.251-1.481-.517-2.162-.756.2-.339.485-.616.509-.913a1.937,1.937,0,0,0-.317-.981c-.674-1.227-1.383-2.434-2.064-3.658a1.019,1.019,0,0,0-1.485-.488,3.957,3.957,0,0,0-.888.5c-.319.277-.556.121-.846-.012a.638.638,0,0,1-.419-.72c.031-.344.007-.693.007-1.039,0-.667-.264-.936-.954-.945-.756-.009-1.513,0-2.305,0V13.523c.531,0,1.071,0,1.61,0,.712,0,.946-.26,1.178-.919a25.152,25.152,0,0,1,1.231-2.958c.422-.839.453-1.1-.22-1.763-.35-.346-.717-.676-1.082-1.018M31.076,8.619c-3.54-.2-6.56,3.168-6.535,6.529a6.723,6.723,0,0,0,6.317,6.641,6.642,6.642,0,0,0,6.889-7.035,6.512,6.512,0,0,0-6.671-6.136" transform="translate(-3.069 -0.288)" fill="#eddadd"/>
      <path id="Path_344" data-name="Path 344" d="M48.246,46.03c.133,1.666-.449,2.847-2.011,3.229a1.363,1.363,0,0,1-.316.06q-20.7,0-41.393.01A2.556,2.556,0,0,1,1.99,46.762a7.183,7.183,0,0,0,0-.732Z" transform="translate(-0.343 -7.983)" fill="#afdde3"/>
      <path id="Path_345" data-name="Path 345" d="M23.7,27.138c-.353.212-.68.4-1,.6a1.016,1.016,0,0,0-.517,1.238,2.883,2.883,0,0,1-.034,1,.942.942,0,0,0,.4,1.068c.366.245.746.47,1.132.712-.508.892-.992,1.761-1.505,2.614-.046.077-.3.1-.418.05-.3-.128-.579-.318-.873-.469a.847.847,0,0,0-.936.069,7.388,7.388,0,0,1-1.18.681,1.166,1.166,0,0,0-.727,1.205c0,.3,0,.607,0,.937H14.755c0-.4-.029-.784.008-1.163a.841.841,0,0,0-.485-.86c-.461-.273-.944-.51-1.4-.794a.935.935,0,0,0-1.106,0c-.29.187-.6.341-.956.539l-1.649-2.85a2.292,2.292,0,0,1,.332-.2,1.8,1.8,0,0,0,1.232-1.975c.023-1.22-.3-2-1.607-2.305l1.688-2.937c.377.214.71.414,1.053.593a.889.889,0,0,0,1.025-.048A9.481,9.481,0,0,1,14.2,24.1a.855.855,0,0,0,.561-.892c-.025-.382-.006-.765-.006-1.172h3.294c0,.32,0,.651,0,.982a1.171,1.171,0,0,0,.637,1.132c.455.248.9.509,1.351.773a.972.972,0,0,0,1.037-.064c1-.568.994-.572,1.561.446.169.3.349.6.525.9s.334.572.543.928m-7.281,6.427a4.075,4.075,0,0,0,4.127-4.076A3.992,3.992,0,0,0,16.4,25.344a3.99,3.99,0,0,0-4.065,3.682,4.108,4.108,0,0,0,4.081,4.539" transform="translate(-1.583 -3.821)" fill="#f9edd9"/>
      <path id="Path_346" data-name="Path 346" d="M33.053,56.94H25.269c.145-.572.282-1.1.412-1.636q.353-1.441.7-2.883A.457.457,0,0,1,26.9,52c1.517.019,3.033.014,4.55,0,.288,0,.391.066.464.383.345,1.5.742,3,1.136,4.549" transform="translate(-4.383 -9.019)" fill="#b8ebf2"/>
      <path id="Path_347" data-name="Path 347" d="M2.014,43.827l.079.109-.079-.109" transform="translate(-0.349 -7.6)" fill="#a2e1ef"/>
      <path id="Path_348" data-name="Path 348" d="M57.889,43.935l.078-.108-.078.108" transform="translate(-10.04 -7.6)" fill="#a2e1ef"/>
      <path id="Path_349" data-name="Path 349" d="M32.513,10.076a6.512,6.512,0,0,1,6.671,6.136A6.642,6.642,0,0,1,32.3,23.247,6.723,6.723,0,0,1,25.978,16.6c-.026-3.36,2.995-6.723,6.535-6.528m-4.859,6.552a4.98,4.98,0,0,0,4.929,4.977,5.056,5.056,0,0,0,4.952-5.2,4.943,4.943,0,0,0-9.881.219" transform="translate(-4.506 -1.745)" fill="#2d3745"/>
      <path id="Path_350" data-name="Path 350" d="M17.089,34.258a4.108,4.108,0,0,1-4.081-4.538,3.991,3.991,0,0,1,4.066-3.682,3.993,3.993,0,0,1,4.143,4.144,4.075,4.075,0,0,1-4.128,4.075m-.021-1.651a2.475,2.475,0,0,0,2.51-2.431,2.4,2.4,0,0,0-2.584-2.49A2.348,2.348,0,0,0,14.65,29.93a2.44,2.44,0,0,0,2.418,2.677" transform="translate(-2.252 -4.515)" fill="#2d3745"/>
      <path id="Path_351" data-name="Path 351" d="M28,16.971a4.943,4.943,0,0,1,9.881-.219,5.056,5.056,0,0,1-4.952,5.2A4.98,4.98,0,0,1,28,16.971" transform="translate(-4.856 -2.087)" fill="#e4f4f7"/>
      <path id="Path_352" data-name="Path 352" d="M17.416,32.953A2.44,2.44,0,0,1,15,30.276a2.348,2.348,0,0,1,2.344-2.244,2.4,2.4,0,0,1,2.584,2.49,2.475,2.475,0,0,1-2.51,2.431" transform="translate(-2.6 -4.861)" fill="#e4f4f7"/>
    </g>
  </g>
</svg>
