<svg xmlns="http://www.w3.org/2000/svg" width="100" height="100" viewBox="0 0 100 100">
  <g id="ui_ux" data-name="ui/ux" transform="translate(16486 11094)">
    <rect id="Rectangle_178" data-name="Rectangle 178" width="100" height="100" transform="translate(-16486 -11094)" fill="none"/>
    <g id="ui_ux-2" data-name="ui/ux" transform="translate(-16486 -11091)">
      <path id="Path_198" data-name="Path 198" d="M.017,56.5V55.426Q.017,30.513,0,5.6C0,3.528.573,1.82,2.408.754A8.191,8.191,0,0,1,4.626.049,5.39,5.39,0,0,1,5.848.021Q50.014.02,94.18.007c3.862,0,5.827,2.425,5.819,5.807q-.057,24.759-.017,49.519V56.5ZM14.94,25.9h-.072a49.877,49.877,0,0,0,.061,7.13,6.747,6.747,0,0,0,8.53,5.661c3.725-.866,5.333-3.216,5.456-6.727.149-4.25.051-8.509.009-12.763a1.632,1.632,0,0,0-.592-1.158c-.945-.658-1.768-.083-1.773,1.214q-.021,6.229,0,12.459a4.644,4.644,0,0,1-9.274.476c.136-4.25.037-8.509.032-12.763,0-1.041-.454-1.656-1.228-1.616-.976.05-1.155.736-1.152,1.552.007,2.178,0,4.357,0,6.535m48.541.2c0,2.28-.063,4.563.021,6.84a5.8,5.8,0,0,0,2.234,4.266,7.267,7.267,0,0,0,5.178,1.663c3.028-.09,6.313-2.77,6.43-5.968.163-4.484.1-8.976.121-13.465.005-1.02-.549-1.69-1.355-1.624-1.043.085-1,.883-1,1.636,0,4.084.035,8.169-.01,12.252-.034,3.117-1.882,4.571-4.58,4.878a4.509,4.509,0,0,1-4.687-4.5c.124-4.251.037-8.508.027-12.762a1.4,1.4,0,0,0-1.4-1.5c-.9.074-.984.73-.982,1.447.007,2.28,0,4.561,0,6.841M38.4,30.808c1.375,2.515,2.676,4.925,4.019,7.312.17.3.555.67.845.673a1.515,1.515,0,0,0,1.176-.506,1.651,1.651,0,0,0-.021-1.36c-1.394-2.7-2.841-5.37-4.309-8.029a1.183,1.183,0,0,1,.016-1.33c1.456-2.629,2.855-5.289,4.289-7.93.36-.662.452-1.3-.218-1.767a1.466,1.466,0,0,0-1.927.681c-.7,1.306-1.379,2.625-2.08,3.931-.567,1.057-1.156,2.1-1.8,3.27-1.345-2.5-2.574-4.83-3.849-7.13a1.565,1.565,0,0,0-.9-.774c-.4-.065-1.093.09-1.218.356a1.907,1.907,0,0,0,.046,1.49c1.375,2.672,2.817,5.31,4.261,7.945a1.178,1.178,0,0,1-.012,1.33c-1.475,2.616-2.892,5.264-4.3,7.915a1.31,1.31,0,0,0,.279,1.878c.589.4,1.351.019,1.808-.792.292-.519.59-1.035.874-1.559,1-1.85,2-3.7,3.023-5.6m8.781,12.715c.333.336.7.987,1.02.964a1.81,1.81,0,0,0,1.351-.86c2.238-5.886,4.392-11.8,6.583-17.707,1.492-4.022,2.987-8.043,4.533-12.045.331-.857.094-1.447-.634-1.739-.768-.308-1.354.11-1.64.887-1.919,5.231-3.824,10.467-5.76,15.691-1.312,3.541-2.68,7.061-4,10.6-.494,1.323-.923,2.67-1.453,4.212m35.5-15.2c0,3.54.008,7.08-.006,10.62,0,.811.314,1.182,1.152,1.13.927-.057,1.227-.384,1.228-1.572q.01-10.262,0-20.524c0-.921-.565-1.636-1.311-1.584-.913.064-1.074.727-1.071,1.515.015,3.472.006,6.944.008,10.415" fill="#f5f5f5"/>
      <path id="Path_199" data-name="Path 199" d="M.127,170.135h99.9v1c0,2.79-.057,5.582.015,8.37A5.32,5.32,0,0,1,94.5,185.08q-44.565-.064-89.13,0a5.215,5.215,0,0,1-5.079-3.455,4.159,4.159,0,0,1-.159-1.2c-.012-3.4-.007-6.791-.007-10.287M49.91,181.5a3.975,3.975,0,0,0,4.056-3.931,4.13,4.13,0,0,0-3.917-3.874,3.937,3.937,0,0,0-4.019,3.94A3.894,3.894,0,0,0,49.91,181.5m-15.156-3.859c-.265,1.953,2.016,4.042,3.879,3.9a4.148,4.148,0,0,0,3.9-4.087,3.972,3.972,0,0,0-4.164-3.761,3.891,3.891,0,0,0-3.612,3.953m26.713-3.9a3.841,3.841,0,0,0-4,3.89,3.956,3.956,0,0,0,7.912-.1,3.83,3.83,0,0,0-3.91-3.792" transform="translate(-0.082 -111.2)" fill="#f5f5f5"/>
      <path id="Path_200" data-name="Path 200" d="M90.61,257.633q-12.552,0-25.105.007a3.014,3.014,0,0,1-.5-6c.338-.031.68-.028,1.019-.028q24.7,0,49.394,0a3.172,3.172,0,0,1,3.106,1.4,3.036,3.036,0,0,1-2.609,4.641c-8.437-.032-16.873-.013-25.309-.014" transform="translate(-40.729 -164.45)" fill="#f5f5f5"/>
      <path id="Path_201" data-name="Path 201" d="M95.066,220.074q10.148-.016,20.3-.031c4.757,0,9.514,0,14.38,0V228.4l-.16.181c-3.736.011-7.472.031-11.208.033q-11.211.008-22.422,0H94.889v-8.379l.177-.165" transform="translate(-62.02 -143.819)" fill="#f5f5f5"/>
      <path id="Path_202" data-name="Path 202" d="M141.141,190.457a1.519,1.519,0,0,1-1.517-1.5c-.015-.909.5-1.369,1.531-1.364,1.049,0,1.516.419,1.534,1.361a1.39,1.39,0,0,1-1.548,1.5" transform="translate(-91.258 -122.613)" fill="#f5f5f5"/>
      <path id="Path_203" data-name="Path 203" d="M108.182,187.6c1.08,0,1.492.4,1.484,1.417s-.5,1.454-1.581,1.444a1.522,1.522,0,0,1-1.484-1.535c.008-.9.518-1.329,1.581-1.326" transform="translate(-69.676 -122.613)" fill="#f5f5f5"/>
      <path id="Path_204" data-name="Path 204" d="M174.161,187.595c1.082.02,1.568.478,1.549,1.461s-.526,1.416-1.622,1.406a1.316,1.316,0,0,1-1.442-1.487c.022-.962.5-1.4,1.515-1.38" transform="translate(-112.842 -122.612)" fill="#f5f5f5"/>
    </g>
  </g>
</svg>
