<svg xmlns="http://www.w3.org/2000/svg" width="50" height="50.064" viewBox="0 0 50 50.064">
  <g id="video" transform="translate(-1380.939 -6549.904)">
    <rect id="Rectangle_198" data-name="Rectangle 198" width="50" height="50" transform="translate(1380.939 6549.939)" fill="none"/>
    <g id="video-2" data-name="video" transform="translate(1381.862 6550.26)">
      <path id="Path_285" data-name="Path 285" d="M39.884,48.609V15.185a2.918,2.918,0,0,0-2.918-2.918H3.654c-1.715,0-3.1,2.028-3.1,4.53V48.609a2.917,2.917,0,0,0,2.918,2.918h33.5a2.918,2.918,0,0,0,2.918-2.918" transform="translate(-0.549 -2.364)" fill="#e4f4f7"/>
      <path id="Path_286" data-name="Path 286" d="M39.884,48.609V15.185a2.918,2.918,0,0,0-2.918-2.918H3.654c-1.715,0-3.1,2.028-3.1,4.53V48.609a2.917,2.917,0,0,0,2.918,2.918h33.5A2.918,2.918,0,0,0,39.884,48.609Z" transform="translate(-0.549 -2.364)" fill="none" stroke="#2d3745" stroke-miterlimit="10" stroke-width="1.097"/>
      <path id="Path_287" data-name="Path 287" d="M39.534,43.638V53.863a2.51,2.51,0,0,1-2.519,2.511H3.613a2.515,2.515,0,0,1-2.519-2.511V43.638Z" transform="translate(-0.641 -7.656)" fill="#d2f3f9"/>
      <path id="Path_288" data-name="Path 288" d="M22.192,17.4a9.263,9.263,0,1,1-9.263,9.263A9.263,9.263,0,0,1,22.192,17.4" transform="translate(-2.637 -3.23)" fill="#87d2d7" opacity="0.4"/>
      <path id="Path_289" data-name="Path 289" d="M53.56,8.236a1.294,1.294,0,0,1,0,1.525c-1.525,2.112-6.195,7.881-11.72,7.881S31.646,11.873,30.122,9.761a1.294,1.294,0,0,1,0-1.525C31.646,6.124,36.316.355,41.841.355s10.2,5.769,11.72,7.881" transform="translate(-5.495 -0.355)" fill="#d2f3f9"/>
      <path id="Path_290" data-name="Path 290" d="M53.56,8.236a1.294,1.294,0,0,1,0,1.525c-1.525,2.112-6.195,7.881-11.72,7.881S31.646,11.873,30.122,9.761a1.294,1.294,0,0,1,0-1.525C31.646,6.124,36.316.355,41.841.355S52.036,6.124,53.56,8.236Z" transform="translate(-5.495 -0.355)" fill="none" stroke="#2d3745" stroke-miterlimit="10" stroke-width="0.709"/>
      <path id="Path_291" data-name="Path 291" d="M43.056,3.554a5.984,5.984,0,1,1-5.985,5.984,5.983,5.983,0,0,1,5.985-5.984" transform="translate(-6.71 -0.895)" fill="#1bb3ce"/>
      <path id="Path_292" data-name="Path 292" d="M43.73,7.553a2.66,2.66,0,1,1-2.66,2.659,2.659,2.659,0,0,1,2.66-2.659" transform="translate(-7.384 -1.569)" fill="#e8f8f9"/>
      <path id="Path_293" data-name="Path 293" d="M27.1,28.545,21.705,31.7a.909.909,0,0,1-1.348-.837V24.55a.909.909,0,0,1,1.348-.837l5.39,3.159a.984.984,0,0,1,0,1.673" transform="translate(-3.89 -4.276)" fill="#1bb3ce"/>
      <path id="Path_294" data-name="Path 294" d="M9.827,50.409H7.768a1.029,1.029,0,1,1,0-2.058H9.827a1.029,1.029,0,1,1,0,2.058" transform="translate(-1.593 -8.451)" fill="#2d3745"/>
      <path id="Path_295" data-name="Path 295" d="M35.781,50.409H15.2a1.029,1.029,0,1,1,0-2.058H35.781a1.029,1.029,0,0,1,0,2.058" transform="translate(-2.846 -8.451)" fill="#2d3745"/>
      <path id="Path_296" data-name="Path 296" d="M24.236,55.362H7.768a1.029,1.029,0,1,1,0-2.058H24.236a1.029,1.029,0,1,1,0,2.058" transform="translate(-1.593 -9.287)" fill="#2d3745"/>
    </g>
  </g>
</svg>
