<svg xmlns="http://www.w3.org/2000/svg" width="100" height="100" viewBox="0 0 100 100">
  <g id="web" transform="translate(18918 11161)">
    <rect id="Rectangle_174" data-name="Rectangle 174" width="100" height="100" transform="translate(-18918 -11161)" fill="none"/>
    <g id="web-2" data-name="web" transform="translate(-18918 -11160)">
      <path id="Path_187" data-name="Path 187" d="M83.906,97.358h.863q18.185,0,36.371-.016c.829,0,1.14.237,1.178,1.08.172,3.738.479,7.472.577,11.212.071,2.692-.078,5.392-.192,8.087-.075,1.774-.268,3.544-.393,5.316-.042.587-.111,1.034-.9,1.032q-18.6-.027-37.2-.018a1.826,1.826,0,0,1-.317-.085,103.942,103.942,0,0,1,.018-26.607" transform="translate(-52.996 -62.122)" fill="#f5f5f5"/>
      <path id="Path_188" data-name="Path 188" d="M88.951,189.717h35.8a61.2,61.2,0,0,1-5.365,15.61,27.877,27.877,0,0,1-5.436,7.593c-2.094,1.983-4.454,3.548-7.527,3.46a9.049,9.049,0,0,1-5.7-2.532c-4.479-3.891-7.081-9-9.038-14.464-1.049-2.928-1.807-5.961-2.685-8.949a3.411,3.411,0,0,1-.048-.718" transform="translate(-56.768 -121.074)" fill="#f5f5f5"/>
      <path id="Path_189" data-name="Path 189" d="M124.756,31.889H88.87c.224-1.15.352-2.282.671-3.356,1.318-4.436,2.668-8.882,5.034-12.889a44.279,44.279,0,0,1,4.694-6.631,9.995,9.995,0,0,1,6.97-3.748A9,9,0,0,1,111.9,7.038a23.951,23.951,0,0,1,6.625,7.792,51.822,51.822,0,0,1,4.549,10.659c.671,2.077,1.117,4.227,1.678,6.4" transform="translate(-56.715 -3.354)" fill="#f5f5f5"/>
      <path id="Path_190" data-name="Path 190" d="M209.963,97.361h.893c6.843,0,13.686.01,20.529-.015.717,0,.97.226,1.134.928a53.93,53.93,0,0,1,1.458,11.5,52.757,52.757,0,0,1-1.476,13.475c-.122.5-.253.828-.912.826-7.086-.028-14.172-.017-21.258-.021a2.335,2.335,0,0,1-.385-.081c.074-1.092.155-2.174.219-3.257.145-2.468.338-4.934.4-7.4.07-2.673.1-5.353-.009-8.024-.085-2.176-.4-4.343-.59-6.516-.039-.439-.005-.884-.005-1.414" transform="translate(-133.984 -62.125)" fill="#f5f5f5"/>
      <path id="Path_191" data-name="Path 191" d="M1.808,97.459H24.142a114.837,114.837,0,0,0,0,26.633H1.82a49.782,49.782,0,0,1-.012-26.633" transform="translate(0 -62.197)" fill="#f5f5f5"/>
      <path id="Path_192" data-name="Path 192" d="M11.7,189.669H32.693a79.683,79.683,0,0,0,4.648,15.165,41.813,41.813,0,0,0,8.752,13.278c-1.885.279-8.53-2.3-14.089-5.517A47.026,47.026,0,0,1,20,202.663,50.839,50.839,0,0,1,11.7,189.669" transform="translate(-7.471 -121.044)" fill="#f5f5f5"/>
      <path id="Path_193" data-name="Path 193" d="M32.7,28.546h-21A49.445,49.445,0,0,1,46.04,0a44.075,44.075,0,0,0-8.7,13.377A78.3,78.3,0,0,0,32.7,28.546" transform="translate(-7.471)" fill="#f5f5f5"/>
      <path id="Path_194" data-name="Path 194" d="M169.9,218.1a39.746,39.746,0,0,0,7.7-11.035,63.425,63.425,0,0,0,5.324-16.114c.186-1,.494-1.451,1.682-1.435,6.147.082,12.3.038,18.443.038h1.23A49.537,49.537,0,0,1,169.9,218.1" transform="translate(-108.43 -120.948)" fill="#f5f5f5"/>
      <path id="Path_195" data-name="Path 195" d="M204.234,28.7H183.262C181.012,18.185,177.7,8.171,169.874.286c1.358-.062,6.505,1.6,10.669,3.662a51.053,51.053,0,0,1,9.753,6.268,48.354,48.354,0,0,1,8.116,8.485,47.339,47.339,0,0,1,5.822,9.995" transform="translate(-108.412 -0.182)" fill="#f5f5f5"/>
    </g>
  </g>
</svg>
