<svg width="36" height="36" viewBox="0 0 36 36" fill="none" xmlns="http://www.w3.org/2000/svg">
<path d="M13.3425 4.46297C13.3425 4.46297 13.3421 4.46572 13.3414 4.46675C13.3407 4.46812 13.3397 4.46915 13.3382 4.46983L7.54962 7.70983C7.54962 7.70983 7.54715 7.71052 7.54575 7.71052C7.54434 7.71052 7.54293 7.71017 7.54188 7.70983L1.75325 4.46983C1.75325 4.46983 1.75113 4.46812 1.75008 4.46675C1.74938 4.46572 1.74902 4.46435 1.74902 4.46297C1.74902 4.4616 1.74902 4.45989 1.75008 4.45886C1.75113 4.45749 1.75219 4.45646 1.75325 4.45612L7.54188 1.21612C7.54188 1.21612 7.54434 1.21509 7.54575 1.21509C7.54715 1.21509 7.54856 1.21543 7.54962 1.21612L13.3382 4.45612C13.3382 4.45612 13.3407 4.45749 13.3414 4.45886C13.3421 4.45989 13.3425 4.4616 13.3425 4.46297Z" fill="#0383FE"/>
<path d="M27.8679 27.314C27.8679 27.314 27.8675 27.3171 27.8668 27.3182C27.8661 27.3195 27.8651 27.3205 27.8637 27.3212L15.1051 34.4558C15.1051 34.4558 15.1023 34.4568 15.1009 34.4568C15.0995 34.4571 15.0977 34.4564 15.0966 34.4558C15.0952 34.4551 15.0942 34.454 15.0935 34.4527C15.0928 34.4513 15.0928 34.4499 15.0928 34.4486V27.9802C15.0928 27.9802 15.0931 27.9771 15.0938 27.9757C15.0945 27.9747 15.0956 27.9737 15.097 27.973L27.8531 20.893H27.8573C27.8598 20.893 27.8615 20.8937 27.8633 20.8954C27.8647 20.8968 27.8654 20.8988 27.8654 20.9009L27.8679 27.314Z" fill="#0383FE"/>
<path d="M34.2395 8.29096C34.2395 8.29096 34.2388 8.29439 34.2378 8.29576L28.4491 11.5358C28.4491 11.5358 28.4467 11.5368 28.4456 11.5368C28.4442 11.5368 28.4428 11.5364 28.4418 11.5358L22.6535 8.29576C22.6535 8.29576 22.6514 8.29267 22.6514 8.29096C22.6514 8.28924 22.6521 8.28753 22.6535 8.28616L28.4418 5.0465C28.4418 5.0465 28.4442 5.04547 28.4456 5.04547C28.4467 5.04547 28.4481 5.04581 28.4491 5.0465L34.2378 8.28616C34.2378 8.28616 34.2395 8.28924 34.2395 8.29096Z" fill="#0383FE"/>
<path d="M34.8288 9.28042V15.6895C34.8288 15.6895 34.8281 15.6919 34.8277 15.6929C34.827 15.6939 34.826 15.6949 34.8249 15.6953L29.0367 18.9353H29.0328C29.0328 18.9353 29.0289 18.9346 29.0275 18.9332C29.0261 18.9319 29.0254 18.9301 29.0254 18.9281V12.5191C29.0254 12.5191 29.0257 12.5167 29.0264 12.5156C29.0272 12.5146 29.0282 12.5136 29.0293 12.5132L34.8175 9.27322H34.8214C34.8214 9.27322 34.8232 9.27322 34.8242 9.27391C34.8249 9.27425 34.8256 9.2746 34.8263 9.27528C34.8274 9.27597 34.8277 9.27665 34.8281 9.27768C34.8284 9.27837 34.8288 9.2794 34.8288 9.28042Z" fill="#0383FE"/>
<path d="M27.8664 12.5184V18.924C27.8664 18.924 27.8664 18.9267 27.8664 18.9281C27.865 18.9302 27.8629 18.9319 27.8604 18.9326C27.8583 18.9326 27.8555 18.9326 27.8534 18.9319L22.0648 15.6953C22.0648 15.6953 22.0627 15.6936 22.062 15.6919C22.0609 15.6905 22.0605 15.6891 22.0605 15.6878L22.0644 9.28217C22.0644 9.28217 22.0637 9.27874 22.0644 9.27703C22.0648 9.27532 22.0662 9.27394 22.0679 9.27292C22.0693 9.27189 22.0715 9.27154 22.0732 9.27189C22.075 9.27223 22.0767 9.27292 22.0778 9.27429L27.8618 12.5109C27.8618 12.5109 27.8643 12.5126 27.865 12.5143C27.8661 12.5153 27.8664 12.517 27.8664 12.5184Z" fill="#0383FE"/>
<path d="M27.2704 19.9149C27.2697 19.9169 27.2683 19.919 27.2665 19.92L14.5182 26.9918C14.5182 26.9918 14.5154 26.9931 14.514 26.9931C14.5125 26.9931 14.5111 26.9925 14.5097 26.9918L8.73342 23.8155L8.7306 23.8125C8.7306 23.8125 8.7292 23.8083 8.72955 23.8063C8.73025 23.8042 8.73166 23.8022 8.73342 23.8011L21.4769 16.6721C21.4769 16.6721 21.4797 16.6711 21.4811 16.6711C21.4825 16.6711 21.4839 16.6714 21.4853 16.6721L27.2665 19.9056L27.2697 19.9087C27.2697 19.9087 27.2711 19.9128 27.2704 19.9149Z" fill="#0383FE"/>
<path d="M13.9331 5.44902V19.5816C13.9331 19.5816 13.9327 19.5843 13.932 19.5857C13.9313 19.5871 13.9299 19.5881 13.9289 19.5888L8.14025 22.8284H8.13602C8.13391 22.8284 8.1318 22.8278 8.13039 22.8264C8.12899 22.8247 8.12793 22.823 8.12793 22.8209V8.68833C8.12793 8.68833 8.12828 8.68525 8.12899 8.68387C8.12969 8.68285 8.1311 8.68182 8.13215 8.68113L13.9208 5.44113H13.925C13.925 5.44113 13.9271 5.44113 13.9282 5.44182C13.9292 5.44216 13.9299 5.44285 13.9306 5.44353C13.9317 5.44422 13.932 5.4449 13.9324 5.44593C13.9324 5.44696 13.9331 5.44799 13.9331 5.44902Z" fill="#0383FE"/>
<path d="M13.9342 27.9813V34.4462C13.9342 34.4462 13.9342 34.4493 13.9331 34.4507C13.9324 34.452 13.931 34.4534 13.9296 34.4541C13.9282 34.4548 13.9264 34.4555 13.925 34.4555C13.9233 34.4551 13.9215 34.4548 13.9201 34.4537L1.16962 27.3203C1.1668 27.3185 1.16434 27.3165 1.16258 27.3137C1.16082 27.3107 1.16012 27.3076 1.16047 27.3045V5.45317C1.16047 5.45317 1.15977 5.4494 1.16047 5.44769C1.16188 5.44529 1.16434 5.44357 1.16715 5.44254C1.16997 5.44186 1.17314 5.4422 1.1756 5.44357L6.95192 8.67397C6.95543 8.67569 6.9586 8.67877 6.96071 8.6822C6.96282 8.68563 6.96353 8.68974 6.96353 8.69351V23.7113C6.9498 23.8416 6.97831 23.9729 7.04552 24.0864C7.11273 24.2003 7.21478 24.2904 7.33724 24.3443H7.33618L13.925 27.9662C13.9278 27.9676 13.9303 27.97 13.9321 27.9724C13.9335 27.9751 13.9345 27.9782 13.9342 27.9813Z" fill="#0383FE"/>
</svg>
