<svg width="36" height="36" viewBox="0 0 36 36" fill="none" xmlns="http://www.w3.org/2000/svg">
<g clip-path="url(#clip0_672_3945)">
<path d="M10.0592 18.0176C9.37052 19.4435 8.77886 20.9139 8.28794 22.4194C8.28659 22.4227 8.28423 22.4254 8.2812 22.4271C8.27817 22.4288 8.27446 22.4295 8.27109 22.4285C6.81283 22.0447 5.41555 21.4601 4.11867 20.6909C3.29688 20.1942 2.19341 19.3246 1.90432 18.3926V18.3997C1.84098 18.1965 1.82345 17.9819 1.85243 17.7713C1.88141 17.5604 1.95654 17.3586 2.07211 17.1796C2.54315 16.4562 3.17997 15.8562 3.93033 15.4289C5.29054 14.6287 6.75723 14.0262 8.28726 13.6391C8.28895 13.6381 8.29063 13.6378 8.29266 13.6378C8.29468 13.6378 8.29636 13.6381 8.29805 13.6391C8.29973 13.6398 8.30108 13.6411 8.30209 13.6425C8.3031 13.6442 8.30377 13.6458 8.30411 13.6475C8.792 15.1338 9.37827 16.5856 10.0592 17.994C10.0609 17.9977 10.0619 18.0018 10.0619 18.0058C10.0619 18.0102 10.0609 18.0139 10.0592 18.0176Z" fill="#0383FE"/>
<path d="M13.0602 12.7348L13.0595 12.7378C13.0595 12.7378 13.0632 12.7375 13.0646 12.7381C13.0662 12.7388 13.0676 12.7398 13.0686 12.7412C13.0696 12.7425 13.0703 12.7442 13.0703 12.7459C13.0703 12.7476 13.0696 12.7489 13.0686 12.7503C12.3105 13.8864 11.6073 15.0536 10.9594 16.2517C10.9584 16.2534 10.9567 16.2548 10.955 16.2554C10.953 16.2564 10.9503 16.2561 10.9483 16.2554C10.9459 16.2544 10.9439 16.2527 10.9429 16.2507C10.5166 15.2787 10.1379 14.2897 9.80637 13.2833C9.80536 13.282 9.80469 13.2799 9.80469 13.2783C9.80469 13.2766 9.80536 13.2749 9.80637 13.2732C9.80705 13.2715 9.80839 13.2702 9.81008 13.2695C9.81176 13.2685 9.81345 13.2678 9.81513 13.2678C10.8869 13.0431 11.9736 12.8685 13.0602 12.7348Z" fill="#0383FE"/>
<path d="M13.0961 23.2991L13.0924 23.2978C13.0971 23.3079 13.0954 23.3079 13.0856 23.3079C11.9808 23.1913 10.8851 23.0228 9.79846 22.8028C9.7961 22.8021 9.79374 22.8011 9.79172 22.7994C9.7897 22.7977 9.78801 22.7957 9.78666 22.7937C9.78532 22.7913 9.78464 22.7886 9.78431 22.7863C9.78397 22.7836 9.78431 22.7809 9.78532 22.7785C10.1236 21.7536 10.5114 20.7461 10.9488 19.7565C10.9491 19.7559 10.9498 19.7552 10.9504 19.7549C10.9511 19.7545 10.9518 19.7545 10.9525 19.7545C10.9535 19.7545 10.9542 19.7545 10.9548 19.7549C10.9555 19.7552 10.9562 19.7559 10.9565 19.7565C11.6183 20.9699 12.339 22.1387 13.0961 23.2991Z" fill="#0383FE"/>
<path d="M9.38043 11.8297C8.99093 10.4325 8.80157 8.98701 8.81842 7.53683L8.82077 7.53548C8.79382 6.55364 9.05191 5.58528 9.56338 4.74698C9.69041 4.56807 9.85585 4.42015 10.0472 4.31334C10.2389 4.20687 10.4519 4.1442 10.6706 4.13072C11.4074 4.09434 12.143 4.22911 12.8192 4.52359C14.4655 5.23116 15.9709 6.22884 17.2638 7.4691C17.2654 7.47011 17.2665 7.4718 17.2675 7.47348C17.2681 7.47483 17.2685 7.47685 17.2685 7.47887C17.2685 7.48056 17.2681 7.48258 17.2675 7.48426C17.2665 7.48595 17.2654 7.4873 17.2638 7.48831C16.1707 8.6285 15.1532 9.83845 14.2175 11.1107C14.2141 11.1148 14.2104 11.1181 14.2057 11.1208C14.2013 11.1232 14.1959 11.1249 14.1909 11.1252C12.5797 11.2647 10.9782 11.5026 9.39559 11.8375C9.39256 11.8388 9.38919 11.8388 9.38582 11.8375C9.38447 11.8368 9.38346 11.8355 9.38245 11.8341C9.38144 11.8328 9.38076 11.8314 9.38043 11.8297Z" fill="#0383FE"/>
<path d="M17.3176 28.5665C17.3176 28.5665 17.319 28.5698 17.319 28.5718C17.319 28.5735 17.3183 28.5755 17.3176 28.5772C17.3166 28.5789 17.3156 28.5803 17.3139 28.5813C16.4857 29.3542 15.5827 30.0432 14.6184 30.6383C13.9456 31.0611 13.2238 31.4001 12.4688 31.6477C11.8781 31.8563 11.2487 31.9325 10.6254 31.8705C9.44541 31.7148 9.04243 30.3751 8.90193 29.426C8.70988 27.682 8.86588 25.9171 9.36118 24.2341V24.2365C9.36151 24.2334 9.36354 24.2307 9.36657 24.2291C9.36926 24.2274 9.37263 24.2267 9.37567 24.2274C10.9738 24.5518 12.5904 24.7759 14.2164 24.8989C14.2202 24.8989 14.2235 24.8999 14.2269 24.9019C14.2299 24.9036 14.233 24.906 14.235 24.909C15.1808 26.1924 16.2091 27.4128 17.3139 28.5621C17.3156 28.5634 17.3166 28.5648 17.3176 28.5665Z" fill="#0383FE"/>
<path d="M16.2338 10.9779C16.9003 10.1363 17.6068 9.32525 18.3535 8.54491C18.3562 8.54221 18.3599 8.54086 18.3636 8.54086C18.3676 8.54086 18.3713 8.54221 18.374 8.54491C19.1126 9.32289 19.8094 10.1319 20.4647 10.9722C20.4718 10.9813 20.4694 10.9857 20.4573 10.9857C19.0489 10.9301 17.6402 10.9301 16.2314 10.9857L16.2338 10.9833C16.2338 10.9833 16.2331 10.9823 16.2328 10.982V10.9789L16.2338 10.9779Z" fill="#0383FE"/>
<path d="M20.5134 25.0202C19.8553 25.88 19.1542 26.7062 18.4129 27.4953C18.4109 27.4973 18.4082 27.4983 18.4052 27.4983C18.4021 27.4983 18.3994 27.4973 18.3974 27.4953C17.641 26.7049 16.9253 25.8821 16.2504 25.0269C16.2427 25.0175 16.2454 25.0128 16.2579 25.0128C17.6777 25.0539 19.0922 25.0589 20.5103 25.0037L20.505 25.0067C20.505 25.0067 20.5083 25.007 20.5097 25.0077C20.5114 25.0084 20.5124 25.0097 20.5134 25.0111C20.5144 25.0124 20.5147 25.0141 20.5147 25.0155C20.5147 25.0171 20.5147 25.0188 20.5134 25.0202Z" fill="#0383FE"/>
<path d="M22.5542 18.7969C22.388 19.6318 21.9783 20.3987 21.3762 21.0005C20.7745 21.6026 20.0076 22.0123 19.1726 22.1784C18.3377 22.3445 17.4725 22.2593 16.686 21.9335C15.8996 21.6076 15.2274 21.0561 14.7544 20.3485C14.2817 19.6406 14.0293 18.8084 14.0293 17.9573C14.0293 17.3922 14.1405 16.8326 14.3568 16.3103C14.5731 15.7881 14.8902 15.3137 15.2898 14.914C15.6894 14.5144 16.1638 14.1974 16.686 13.9811C17.2083 13.7648 17.768 13.6536 18.333 13.6536C19.1841 13.6536 20.0163 13.9059 20.7242 14.3787C21.4318 14.8517 21.9834 15.5239 22.3092 16.3103C22.635 17.0967 22.7203 17.962 22.5542 18.7969Z" fill="#0383FE"/>
<path d="M26.904 13.2954C26.5708 14.3015 26.1884 15.2877 25.7571 16.2537C25.751 16.2658 25.7446 16.2658 25.7382 16.2537C25.0748 15.0613 24.3676 13.8914 23.6162 12.7448L23.6186 12.7435C23.6186 12.7435 23.6179 12.7418 23.6179 12.7408C23.6179 12.7401 23.6182 12.7391 23.6186 12.7381C23.6196 12.7377 23.6203 12.7374 23.6213 12.7374C23.6223 12.7374 23.6233 12.7377 23.624 12.7381C24.7241 12.8691 25.8151 13.0501 26.8973 13.2816C26.8987 13.2819 26.9 13.2826 26.9014 13.2836C26.9024 13.2846 26.9034 13.2856 26.904 13.2869C26.9047 13.2883 26.9051 13.2896 26.9051 13.2913C26.9051 13.2927 26.9047 13.294 26.904 13.2954Z" fill="#0383FE"/>
<path d="M26.9648 22.7334C25.864 22.974 24.7508 23.1553 23.6301 23.2766L23.6332 23.281C23.6197 23.2826 23.6166 23.2779 23.6241 23.2671C24.3862 22.1054 25.0992 20.916 25.7629 19.6986H25.7646C25.7646 19.6986 25.767 19.6983 25.7677 19.6986C26.2225 20.6832 26.6255 21.6906 26.9752 22.7169C26.9759 22.7186 26.9763 22.7206 26.9763 22.7223C26.9763 22.7243 26.9759 22.7264 26.9752 22.728C26.9739 22.7294 26.9725 22.7307 26.9705 22.7317C26.9688 22.7328 26.9668 22.7331 26.9648 22.7334Z" fill="#0383FE"/>
<path d="M19.4496 7.48565C19.4486 7.48363 19.4482 7.48161 19.4482 7.47958C19.4482 7.47756 19.4486 7.47554 19.4496 7.47386C19.4503 7.47183 19.4516 7.47049 19.4533 7.46914C20.6919 6.27571 22.1198 5.29657 23.6795 4.57114C24.6442 4.15367 26.2857 3.65501 27.0475 4.7113C27.2642 5.01084 27.4296 5.34374 27.5378 5.69718C27.7814 6.5493 27.8858 7.43511 27.8467 8.32024L27.843 8.32159C27.7962 9.51233 27.6207 10.6943 27.3191 11.8473C27.3184 11.85 27.3164 11.8527 27.3137 11.854C27.3114 11.8557 27.3083 11.8561 27.3053 11.8557C25.718 11.5151 24.1111 11.2711 22.4942 11.1252C22.4898 11.1249 22.4857 11.1236 22.4817 11.1212C22.478 11.1192 22.4746 11.1162 22.4719 11.1124C21.5464 9.84017 20.5382 8.62989 19.4533 7.49037C19.4516 7.48902 19.4503 7.48733 19.4496 7.48565Z" fill="#0383FE"/>
<path d="M27.4035 24.1687C27.7502 25.4595 27.9227 26.7908 27.9166 28.1274L27.915 28.1321C27.9207 28.9458 27.7802 29.7535 27.5009 30.5176C27.3418 30.9904 27.0369 31.4001 26.6295 31.6882C25.9014 32.1265 24.7696 31.8573 24.025 31.577C22.3376 30.8751 20.8005 29.8556 19.4972 28.5742C19.4956 28.5728 19.4942 28.5715 19.4935 28.5695C19.4925 28.5678 19.4922 28.5658 19.4922 28.5637C19.4922 28.5621 19.4925 28.56 19.4935 28.558C19.4942 28.5563 19.4956 28.5546 19.4972 28.5536C20.5765 27.4054 21.5772 26.186 22.493 24.9036C22.499 24.8955 22.5064 24.8884 22.5155 24.8837C22.5243 24.8787 22.5341 24.876 22.5442 24.8753C24.1729 24.7412 25.7909 24.503 27.389 24.1617C27.3903 24.161 27.392 24.1606 27.3937 24.1606C27.3951 24.1606 27.3967 24.161 27.3981 24.1617C27.3994 24.1623 27.4008 24.1633 27.4015 24.1647C27.4025 24.166 27.4031 24.1674 27.4035 24.1687Z" fill="#0383FE"/>
<path d="M34.8385 18.1137C34.6808 18.7555 34.3119 19.326 33.7909 19.733V19.7316C32.2272 20.9807 30.4108 21.8752 28.4677 22.354C28.466 22.3547 28.4643 22.354 28.463 22.3537C28.4616 22.353 28.4603 22.352 28.4596 22.3506C27.9532 20.855 27.3447 19.396 26.6384 17.9839C26.6364 17.9802 26.6357 17.9765 26.6357 17.9725C26.6357 17.9684 26.6364 17.9644 26.6384 17.961C27.317 16.5705 27.902 15.1365 28.3892 13.6681C28.3905 13.6637 28.3935 13.6604 28.3976 13.6583C28.4016 13.6563 28.406 13.656 28.4104 13.657C29.5981 13.974 30.7511 14.4097 31.8515 14.9582C32.6511 15.3403 33.387 15.8444 34.0325 16.4515C34.2802 16.653 34.4803 16.9064 34.6195 17.1935C34.759 17.4806 34.8334 17.7946 34.8385 18.1137Z" fill="#0383FE"/>
</g>
<defs>
<clipPath id="clip0_672_3945">
<rect width="33" height="27.8388" fill="white" transform="translate(1.83887 4.08054)"/>
</clipPath>
</defs>
</svg>
