<svg xmlns="http://www.w3.org/2000/svg" width="259" height="77" viewBox="0 0 259 77">
  <g id="app_store" transform="translate(15555 20974)">
    <rect id="Rectangle_153" data-name="Rectangle 153" width="259" height="77" transform="translate(-15555 -20974)" fill="none"/>
    <g id="app_store-2" data-name="app store" transform="translate(-15555 -20973.633)">
      <rect id="Rectangle_154" data-name="Rectangle 154" width="257.086" height="74.718" rx="7" transform="translate(0.957 0.957)"/>
      <path id="Bordar" d="M249.926,1.915a7.167,7.167,0,0,1,7.159,7.159V67.558a7.167,7.167,0,0,1-7.159,7.159H9.075a7.168,7.168,0,0,1-7.16-7.159V9.074a7.168,7.168,0,0,1,7.16-7.159Zm0-1.915H9.075A9.075,9.075,0,0,0,0,9.074V67.558a9.075,9.075,0,0,0,9.075,9.074H249.926A9.074,9.074,0,0,0,259,67.558V9.074A9.074,9.074,0,0,0,249.926,0" fill="#fff"/>
      <g id="aplle_logo" data-name="aplle logo">
        <path id="Path_163" data-name="Path 163" d="M55.412,39.816a10.721,10.721,0,0,1,5.106-9,10.973,10.973,0,0,0-8.648-4.675c-3.638-.382-7.166,2.177-9.02,2.177-1.89,0-4.744-2.14-7.818-2.076a11.516,11.516,0,0,0-9.692,5.91c-4.19,7.255-1.065,17.918,2.949,23.782,2.009,2.872,4.356,6.08,7.427,5.966,3.006-.125,4.128-1.916,7.756-1.916,3.594,0,4.647,1.916,7.781,1.844,3.224-.053,5.256-2.885,7.194-5.784a23.738,23.738,0,0,0,3.29-6.7,10.362,10.362,0,0,1-6.325-9.532" fill="#fff"/>
        <path id="Path_164" data-name="Path 164" d="M49.493,22.288a10.556,10.556,0,0,0,2.415-7.563,10.74,10.74,0,0,0-6.95,3.6A10.045,10.045,0,0,0,42.48,25.6a8.882,8.882,0,0,0,7.013-3.316" fill="#fff"/>
      </g>
      <g id="app_store-3" data-name="app store">
        <path id="Path_165" data-name="Path 165" d="M99.864,47.012H90.3L88,53.8H83.948l9.061-25.1h4.21l9.061,25.1h-4.121Zm-8.576-3.13h7.583L95.133,32.873h-.105Z" fill="#fff"/>
        <path id="Path_166" data-name="Path 166" d="M125.85,44.648c0,5.686-3.045,9.34-7.637,9.34a6.2,6.2,0,0,1-5.758-3.2h-.087v9.063h-3.756V35.5h3.636v3.043h.069a6.493,6.493,0,0,1,5.827-3.234c4.643,0,7.706,3.671,7.706,9.341m-3.861,0c0-3.7-1.914-6.14-4.837-6.14-2.868,0-4.8,2.487-4.8,6.14,0,3.687,1.931,6.156,4.8,6.156,2.923,0,4.837-2.418,4.837-6.156" fill="#fff"/>
        <path id="Path_167" data-name="Path 167" d="M145.989,44.648c0,5.686-3.044,9.34-7.637,9.34a6.2,6.2,0,0,1-5.757-3.2h-.087v9.063h-3.756V35.5h3.636v3.043h.069a6.491,6.491,0,0,1,5.826-3.234c4.644,0,7.706,3.671,7.706,9.341m-3.861,0c0-3.7-1.914-6.14-4.836-6.14-2.869,0-4.8,2.487-4.8,6.14,0,3.687,1.931,6.156,4.8,6.156,2.922,0,4.836-2.418,4.836-6.156" fill="#fff"/>
        <path id="Path_168" data-name="Path 168" d="M159.3,46.8c.278,2.489,2.7,4.123,6,4.123,3.166,0,5.443-1.634,5.443-3.878,0-1.948-1.373-3.115-4.626-3.914l-3.253-.784c-4.608-1.113-6.748-3.268-6.748-6.765,0-4.331,3.774-7.3,9.133-7.3,5.3,0,8.939,2.974,9.061,7.3h-3.792c-.226-2.5-2.3-4.017-5.323-4.017s-5.1,1.53-5.1,3.756c0,1.774,1.323,2.818,4.558,3.618l2.765.679c5.149,1.217,7.289,3.286,7.289,6.957,0,4.695-3.741,7.636-9.689,7.636-5.566,0-9.324-2.872-9.567-7.411Z" fill="#fff"/>
        <path id="Path_169" data-name="Path 169" d="M182.816,31.167V35.5h3.48v2.975h-3.48V48.559c0,1.567.7,2.3,2.226,2.3a11.9,11.9,0,0,0,1.236-.087v2.956a10.282,10.282,0,0,1-2.086.174c-3.705,0-5.15-1.391-5.15-4.94V38.472h-2.66V35.5h2.66v-4.33Z" fill="#fff"/>
        <path id="Path_170" data-name="Path 170" d="M188.31,44.648c0-5.757,3.391-9.375,8.679-9.375,5.305,0,8.68,3.618,8.68,9.375,0,5.773-3.357,9.375-8.68,9.375s-8.679-3.6-8.679-9.375m13.532,0c0-3.949-1.81-6.28-4.853-6.28s-4.852,2.348-4.852,6.28c0,3.965,1.808,6.278,4.852,6.278s4.853-2.313,4.853-6.278" fill="#fff"/>
        <path id="Path_171" data-name="Path 171" d="M208.766,35.5h3.582v3.115h.087a4.363,4.363,0,0,1,4.4-3.306,5.8,5.8,0,0,1,1.287.14V38.96a5.23,5.23,0,0,0-1.687-.227c-2.418,0-3.914,1.636-3.914,4.21V53.8h-3.756Z" fill="#fff"/>
        <path id="Path_172" data-name="Path 172" d="M235.441,48.421c-.5,3.322-3.74,5.6-7.879,5.6-5.323,0-8.627-3.567-8.627-9.289,0-5.739,3.321-9.462,8.469-9.462,5.062,0,8.246,3.478,8.246,9.026v1.287H222.726v.227c0,3.13,1.966,5.183,4.923,5.183,2.086,0,3.722-.991,4.225-2.574Zm-12.7-5.461h9.148c-.087-2.8-1.879-4.644-4.488-4.644a4.632,4.632,0,0,0-4.66,4.644" fill="#fff"/>
      </g>
    </g>
  </g>
</svg>
