<svg xmlns="http://www.w3.org/2000/svg" width="314" height="85" viewBox="0 0 314 85">
  <g id="eBroker" transform="translate(-695.293 310.58)">
    <rect id="Rectangle_149" data-name="Rectangle 149" width="313" height="85" transform="translate(695.293 -310.58)" fill="none"/>
    <g id="logo">
      <g id="Rectangle" transform="translate(695.293 -310.58)" fill="none" stroke="#fff" stroke-width="2">
        <rect width="85" height="85" rx="9" stroke="none"/>
        <rect x="1" y="1" width="83" height="83" rx="8" fill="none"/>
      </g>
      <path id="ehome" d="M74.228,32.017,39.443.694a2.873,2.873,0,0,0-3.751,0L25.242,10.107V6.938a1.9,1.9,0,0,0-1.888-1.9H19.892A1.9,1.9,0,0,0,18,6.938v9.689L.91,32.017c-1.032.929-.742,1.691.642,1.691H4.836a2.531,2.531,0,0,1,2.519,2.528V68.258a2.53,2.53,0,0,0,2.516,2.528h55.4a2.53,2.53,0,0,0,2.516-2.528V36.236A2.531,2.531,0,0,1,70.3,33.708h3.284c1.384,0,1.673-.759.642-1.691ZM51.911,54.791a17,17,0,0,1-6.273,5.677c-.307.167-.619.316-.937.457a16.881,16.881,0,0,1-6.957,1.493c-9.525,0-16.99-7.261-16.99-16.539,0-.181,0-.365.011-.546a16.792,16.792,0,0,1,.37-3.037,17.063,17.063,0,0,1,5.763-9.53A16.943,16.943,0,0,1,52.914,38.18a2.785,2.785,0,0,1,.138,2.154,2.735,2.735,0,0,1-1.45,1.587l-.679.311-.146.063L48,43.555l-3.9,1.777L35.151,49.4l-1.943.886a2.719,2.719,0,0,1-1.123.247h-.011a2.749,2.749,0,0,1-2.553-3.716,2.711,2.711,0,0,1,.424-.748,2.592,2.592,0,0,1,.917-.739.456.456,0,0,1,.092-.046l1.811-.825L37.529,42.3l8.344-3.8.544-.247a11.525,11.525,0,0,0-11.651-3.546A11.557,11.557,0,0,0,26.236,45.33c-.011.181-.014.365-.014.546s0,.365.014.546a10.868,10.868,0,0,0,5.616,9,12.01,12.01,0,0,0,5.892,1.507,11.487,11.487,0,0,0,9.35-4.805c.089-.121.172-.247.255-.371a2.736,2.736,0,0,1,3.8-.771,2.121,2.121,0,0,1,.206.152,2.689,2.689,0,0,1,.771,1,2.767,2.767,0,0,1-.212,2.657Z" transform="translate(700.002 -303.578)" fill="#fefefe"/>
      <text id="eBroker-2" data-name="eBroker" transform="translate(800.293 -249.236)" fill="#fefefe" font-size="55" font-family="Poppins-Medium, Poppins" font-weight="500" letter-spacing="-0.02em"><tspan x="0" y="0">eB</tspan><tspan y="0" letter-spacing="-0.01em">r</tspan><tspan y="0">o</tspan><tspan y="0" letter-spacing="-0.03em">k</tspan><tspan y="0">e</tspan><tspan y="0">r</tspan></text>
    </g>
  </g>
</svg>
