<svg xmlns="http://www.w3.org/2000/svg" width="259" height="77" viewBox="0 0 259 77">
  <g id="Google_Play" data-name="Google Play" transform="translate(15551 20928)">
    <rect id="Rectangle_152" data-name="Rectangle 152" width="259" height="77" transform="translate(-15551 -20928)" fill="none"/>
    <g id="Group_51" data-name="Group 51" transform="translate(-15551 -20928)">
      <rect id="Rectangle" width="257.086" height="74.718" rx="8.117" transform="translate(0.957 0.957)"/>
      <path id="bordar" d="M249.926,1.915a7.167,7.167,0,0,1,7.159,7.159V67.558a7.167,7.167,0,0,1-7.159,7.159H9.075a7.168,7.168,0,0,1-7.16-7.159V9.074a7.168,7.168,0,0,1,7.16-7.159Zm0-1.915H9.075A9.075,9.075,0,0,0,0,9.074V67.558a9.075,9.075,0,0,0,9.075,9.074H249.926A9.074,9.074,0,0,0,259,67.558V9.074A9.074,9.074,0,0,0,249.926,0" fill="#fff"/>
      <path id="google" d="M132.32,35.819a7.548,7.548,0,1,0,7.577,7.548,7.439,7.439,0,0,0-7.577-7.548m0,12.122a4.367,4.367,0,0,1-4.26-4.574,4.271,4.271,0,1,1,8.52,0,4.367,4.367,0,0,1-4.26,4.574M115.792,35.819a7.548,7.548,0,1,0,7.576,7.548,7.44,7.44,0,0,0-7.576-7.548m0,12.122a4.366,4.366,0,0,1-4.26-4.574,4.271,4.271,0,1,1,8.52,0,4.367,4.367,0,0,1-4.26,4.574M96.131,38.135v3.2h7.662a6.683,6.683,0,0,1-1.744,4.031,7.844,7.844,0,0,1-5.918,2.345,8.521,8.521,0,0,1,0-17.041,8.164,8.164,0,0,1,5.775,2.288l2.259-2.259a11.172,11.172,0,0,0-8.034-3.231,11.724,11.724,0,1,0,0,23.445,10.715,10.715,0,0,0,8.176-3.288,10.581,10.581,0,0,0,2.774-7.491,10.384,10.384,0,0,0-.172-2Zm80.407,2.487a7.014,7.014,0,0,0-6.461-4.8,7.173,7.173,0,0,0-7.119,7.548,7.387,7.387,0,0,0,7.491,7.548,7.508,7.508,0,0,0,6.289-3.345l-2.573-1.716a4.31,4.31,0,0,1-3.716,2.087,3.84,3.84,0,0,1-3.66-2.287l10.093-4.174Zm-10.292,2.516a4.14,4.14,0,0,1,3.945-4.4,2.924,2.924,0,0,1,2.8,1.6Zm-8.206,7.319h3.317V28.27H158.04Zm-5.432-12.951h-.115a5.227,5.227,0,0,0-3.974-1.687,7.555,7.555,0,0,0,0,15.1,5.145,5.145,0,0,0,3.974-1.716h.115v1.087c0,2.887-1.544,4.431-4.032,4.431a4.176,4.176,0,0,1-3.8-2.687l-2.888,1.2a7.194,7.194,0,0,0,6.69,4.46c3.889,0,7.177-2.287,7.177-7.863V36.276h-3.145Zm-3.8,10.435a4.331,4.331,0,0,1-4.2-4.546,4.366,4.366,0,0,1,4.2-4.6c2.259,0,4.031,1.944,4.031,4.6,0,2.631-1.772,4.546-4.031,4.546m43.269-19.67h-7.935V50.457h3.311V42.052h4.624a6.9,6.9,0,1,0,0-13.781m.085,10.693H187.45V31.359h4.709a3.8,3.8,0,1,1,0,7.605m20.465-3.186a6.218,6.218,0,0,0-5.908,3.4l2.94,1.228a3.137,3.137,0,0,1,3.026-1.627c1.712,0,3.453,1.027,3.482,2.854v.228A7.335,7.335,0,0,0,212.71,41c-3.168,0-6.394,1.741-6.394,4.995,0,2.969,2.6,4.881,5.509,4.881a4.672,4.672,0,0,0,4.225-2.169h.114V50.42h3.2v-8.5c0-3.939-2.939-6.137-6.736-6.137m-.4,12.159c-1.085,0-2.6-.542-2.6-1.884,0-1.712,1.884-2.369,3.511-2.369a5.9,5.9,0,0,1,3.026.742,4.015,4.015,0,0,1-3.939,3.511m18.781-11.674-3.8,9.619H227.1l-3.939-9.619h-3.568L225.5,49.707l-3.368,7.478h3.454l9.105-20.922ZM201.179,50.457h3.311V28.271h-3.311Z" fill="#fff"/>
      <g id="logo">
        <path id="Path_158" data-name="Path 158" d="M44.382,37.308,25.488,57.362l0,.012a5.107,5.107,0,0,0,7.518,3.078l.06-.036L54.336,48.145Z" fill="#ea4335"/>
        <path id="Path_159" data-name="Path 159" d="M63.5,33.893l-.018-.012L54.3,28.558l-10.344,9.2L54.334,48.142l9.133-5.27a5.107,5.107,0,0,0,.03-8.979" fill="#fbbc04"/>
        <path id="Path_160" data-name="Path 160" d="M25.486,19.3a5.035,5.035,0,0,0-.173,1.313V56.049a4.936,4.936,0,0,0,.174,1.313L45.031,37.821Z" fill="#4285f4"/>
        <path id="Path_161" data-name="Path 161" d="M44.521,38.331,54.3,28.554,33.056,16.237A5.113,5.113,0,0,0,25.487,19.3v0Z" fill="#34a853"/>
      </g>
    </g>
  </g>
</svg>
