<svg xmlns="http://www.w3.org/2000/svg" xmlns:xlink="http://www.w3.org/1999/xlink" width="315" height="300" viewBox="0 0 315 300">
  <defs>
    <linearGradient id="linear-gradient" y1="0.5" x2="1" y2="0.5" gradientUnits="objectBoundingBox">
      <stop offset="0" stop-color="#dfeaff"/>
      <stop offset="1" stop-color="#c2d6ff"/>
    </linearGradient>
  </defs>
  <g id="Data_Not_Found" transform="translate(-36 -43.45)" style="mix-blend-mode: normal;isolation: isolate">
    <g id="Folder_Empty" data-name="Folder Empty" transform="translate(36 43.45)">
      <path id="Path_157" data-name="Path 157" d="M112.308,159.427a16.671,16.671,0,0,1-13.484-19.311A12.42,12.42,0,0,0,88.782,125.66,16.994,16.994,0,0,1,75.3,106.3l4.194.71a12.714,12.714,0,0,0,10.1,14.435,16.664,16.664,0,0,1,13.442,19.3A12.427,12.427,0,0,0,113.074,155.2Z" transform="translate(-47.336 -61.696)" fill="#031c49"/>
      <path id="Path_158" data-name="Path 158" d="M179.884,139.1a23.959,23.959,0,0,1-1.192-33.881,19.723,19.723,0,0,0-.972-27.877c-9.453-9.226-9.936-24.456-1.185-33.895l3.116,2.9c-7.225,7.771-6.77,20.3,1.015,27.919,10.021,9.347,9.808,24.967,1.1,33.9a19.708,19.708,0,0,0,1.022,27.82Z" transform="translate(-74.789 -43.45)" fill="#031c49"/>
      <path id="Path_159" data-name="Path 159" d="M242.39,177.413a27.933,27.933,0,0,1,6.714-38.919,23.711,23.711,0,0,0,5.678-33.015l3.485-2.448a27.969,27.969,0,0,1-6.721,38.934,23.668,23.668,0,0,0-5.678,33.015Z" transform="translate(-94.133 -60.747)" fill="#031c49"/>
      <path id="Path_160" data-name="Path 160" d="M311.46,237.2,295.712,342.57a22.575,22.575,0,0,1-22.327,19.247h-1.128a13.335,13.335,0,0,0,13.051-16.025l-19.424-94.034a16.053,16.053,0,0,0-15.713-12.774H136.813l-9.474-15.613a16.046,16.046,0,0,0-13.7-7.714h-5.351A16.039,16.039,0,0,1,123.9,195.92h27.131A16.06,16.06,0,0,1,164.6,203.4l9.709,15.393H295.592A16.046,16.046,0,0,1,311.46,237.2Z" transform="translate(-56.579 -87.955)" fill="url(#linear-gradient)"/>
      <path id="Path_161" data-name="Path 161" d="M373.34,246.559l-4.563,30.517A61.5,61.5,0,0,1,321,228.15h36.45a16.046,16.046,0,0,1,15.89,18.409Z" transform="translate(-118.269 -97.196)" fill="#98a7c3" style="mix-blend-mode: multiply;isolation: isolate"/>
      <path id="Path_162" data-name="Path 162" d="M254.166,369.891H85.146A16.04,16.04,0,0,1,69.44,357.114L45.864,243.019A16.046,16.046,0,0,1,61.577,223.73H95.543a16.047,16.047,0,0,1,13.712,7.709l9.473,15.611H232.08a16.053,16.053,0,0,1,15.712,12.772l19.425,94.043a13.335,13.335,0,0,1-13.051,16.025Z" transform="translate(-38.768 -96.028)" fill="#f6f9ff"/>
      <g id="Group_57" data-name="Group 57" transform="translate(4.649 105.836)">
        <path id="Path_163" data-name="Path 163" d="M253.3,371.149H84.28a18.239,18.239,0,0,1-17.792-14.5L42.926,242.581a18.175,18.175,0,0,1,17.8-21.851H94.677a18.268,18.268,0,0,1,15.521,8.708L119.055,244H231.186a18.26,18.26,0,0,1,17.827,14.534l19.424,94.034a15.457,15.457,0,0,1-15.138,18.58ZM60.725,224.988a13.91,13.91,0,0,0-13.6,16.727L70.654,355.763a13.974,13.974,0,0,0,13.626,11.1H253.3a11.2,11.2,0,0,0,10.965-13.484L244.84,259.344a13.974,13.974,0,0,0-13.633-11.107H116.677l-10.092-16.614a14,14,0,0,0-11.909-6.636Z" transform="translate(-42.55 -200.993)" fill="#031c49"/>
        <path id="Path_164" data-name="Path 164" d="M272.515,363.075h-1.128v-4.258a11.2,11.2,0,0,0,10.965-13.484L262.927,251.3a13.974,13.974,0,0,0-13.633-11.107H134.764l-10.092-16.614a14,14,0,0,0-11.909-6.664h-7.04l-.383-1.639a18.175,18.175,0,0,1,17.685-22.355h27.131a18.062,18.062,0,0,1,15.365,8.474l9.091,14.4H294.721a18.175,18.175,0,0,1,17.969,20.858c0,.071.355-2.342-15.741,105.368a24.839,24.839,0,0,1-24.435,21.057ZM137.142,235.956H249.273A18.26,18.26,0,0,1,267.1,250.462L286.524,344.5a15.45,15.45,0,0,1-1.164,9.73,20.432,20.432,0,0,0,7.374-12.838l15.748-105.368a13.917,13.917,0,0,0-13.761-15.968H172.257l-10.34-16.387a13.846,13.846,0,0,0-11.767-6.487H123.019a13.917,13.917,0,0,0-13.8,15.478h3.548a18.267,18.267,0,0,1,15.521,8.708Z" transform="translate(-60.638 -192.92)" fill="#031c49"/>
        <path id="Path_165" data-name="Path 165" d="M0,0H32.979V11.171H0Z" transform="translate(67.429 95.609) rotate(-45)" fill="#2e71fe"/>
        <path id="Path_166" data-name="Path 166" d="M0,0H11.171V32.979H0Z" transform="translate(67.429 80.186) rotate(-45)" fill="#2e71fe"/>
        <path id="Path_167" data-name="Path 167" d="M0,0H32.979V11.171H0Z" transform="translate(121.705 95.611) rotate(-45)" fill="#2e71fe"/>
        <path id="Path_168" data-name="Path 168" d="M0,0H11.171V32.979H0Z" transform="translate(121.705 80.187) rotate(-45)" fill="#2e71fe"/>
        <path id="Path_169" data-name="Path 169" d="M220.816,371.7a61.351,61.351,0,0,0-77.122,0l-1.824,1.639,7.941,8.85,1.824-1.6a49.515,49.515,0,0,1,61.239,0l1.824,1.618,7.941-8.871Z" transform="translate(-71.384 -240.865)" fill="#2e71fe"/>
      </g>
      <circle id="Ellipse_21" data-name="Ellipse 21" cx="49.65" cy="49.65" r="49.65" transform="translate(213.571 70.217)" fill="#f6f9ff"/>
      <path id="Path_170" data-name="Path 170" d="M384.807,243.045a51.807,51.807,0,1,1,51.807-51.807,51.807,51.807,0,0,1-51.807,51.807Zm0-99.293a47.549,47.549,0,1,0,47.549,47.514A47.549,47.549,0,0,0,384.807,143.752Z" transform="translate(-121.615 -71.398)" fill="#031c49"/>
      <path id="Path_171" data-name="Path 171" d="M313.867,143.464a6.827,6.827,0,1,1,6.827-6.827A6.827,6.827,0,0,1,313.867,143.464Zm0-9.389a2.562,2.562,0,1,0,1.816.748A2.569,2.569,0,0,0,313.867,134.075Z" transform="translate(-114.297 -68.573)" fill="#031c49"/>
      <path id="Path_172" data-name="Path 172" d="M357.927,117.83a9.382,9.382,0,1,1,6.645-2.738A9.375,9.375,0,0,1,357.927,117.83Zm0-14.485a5.117,5.117,0,1,0,5.117,5.11A5.117,5.117,0,0,0,357.927,103.345Z" transform="translate(-126.289 -59.6)" fill="#031c49"/>
      <path id="Path_173" data-name="Path 173" d="M0,0H13.8V4.258H0Z" transform="translate(10.098 287.191) rotate(-45)" fill="#031c49"/>
      <path id="Path_174" data-name="Path 174" d="M79.18,447.07h4.258v13.8H79.18Z" transform="translate(-48.536 -160.866)" fill="#031c49"/>
      <path id="Path_175" data-name="Path 175" d="M36,419.03H49.8v4.258H36Z" transform="translate(-36 -152.726)" fill="#031c49"/>
      <path id="Path_176" data-name="Path 176" d="M404.062,211.518H393.1a23.42,23.42,0,0,1,9.709-18.977,7.289,7.289,0,1,0-11.54-5.926H380.33a18.246,18.246,0,1,1,28.9,14.861A12.434,12.434,0,0,0,404.062,211.518Z" transform="translate(-135.355 -79.812)" fill="#2e71fe"/>
      <path id="Path_177" data-name="Path 177" d="M398.15,241.09h11.007V252.1H398.15Z" transform="translate(-140.528 -100.944)" fill="#2e71fe"/>
      <path id="Path_180" data-name="Path 180" d="M400.1,384.478h-4.258V380.22H400.1Zm-11.355,0H384.49V380.22h4.258Z" transform="translate(-136.667 -141.413)" fill="#cfdfff"/>
      <path id="Path_181" data-name="Path 181" d="M420.468,361.243H416.21v-4.258h4.258Zm0-11.355H416.21V345.63h4.258Zm0-11.355H416.21v-4.258h4.258Zm0-11.355H416.21V322.92h4.258Zm0-11.355H416.21v-4.258h4.258Zm0-11.355H416.21V300.21h4.258Z" transform="translate(-145.771 -118.174)" fill="#cfdfff"/>
    </g>
  </g>
</svg>
