<svg width="1140" height="342" viewBox="0 0 1140 342" fill="none" xmlns="http://www.w3.org/2000/svg">
<g clip-path="url(#clip0_4631_584)">
<rect width="1140" height="342" rx="8" fill="#212121"/>
<path opacity="0.8" d="M1315 341.5C1315 464.936 1214.94 565 1091.5 565C968.064 565 868 464.936 868 341.5C868 218.064 968.064 118 1091.5 118C1214.94 118 1315 218.064 1315 341.5ZM949.891 341.5C949.891 419.709 1013.29 483.109 1091.5 483.109C1169.71 483.109 1233.11 419.709 1233.11 341.5C1233.11 263.291 1169.71 199.891 1091.5 199.891C1013.29 199.891 949.891 263.291 949.891 341.5Z" fill="#087C7C"/>
<path opacity="0.1" d="M970 1C970 56.7808 924.781 102 869 102C813.219 102 768 56.7808 768 1C768 -54.7808 813.219 -100 869 -100C924.781 -100 970 -54.7808 970 1ZM805.007 1C805.007 36.3425 833.657 64.9933 869 64.9933C904.343 64.9933 932.993 36.3425 932.993 1C932.993 -34.3425 904.343 -62.9933 869 -62.9933C833.657 -62.9933 805.007 -34.3425 805.007 1Z" fill="white"/>
</g>
<defs>
<clipPath id="clip0_4631_584">
<rect width="1140" height="342" rx="8" fill="white"/>
</clipPath>
</defs>
</svg>
