<svg width="36" height="36" viewBox="0 0 36 36" fill="none" xmlns="http://www.w3.org/2000/svg">
<g clip-path="url(#clip0_672_3930)">
<path d="M11.7974 0.130798H11.9252C12.0076 0.155797 12.0787 0.208864 12.1262 0.280798C12.6462 1.2268 13.163 2.1742 13.6766 3.123C13.6777 3.12581 13.6793 3.12837 13.6815 3.13052C13.6836 3.13266 13.6862 3.13435 13.689 3.13547C13.6918 3.1366 13.6948 3.13713 13.6978 3.13705C13.7008 3.13697 13.7038 3.13627 13.7066 3.135C13.795 3.1046 13.8824 3.0718 13.9688 3.0366C15.5048 2.40367 17.1683 2.14139 18.8246 2.271C20.0164 2.3581 21.1846 2.64891 22.2782 3.1308C22.2896 3.13596 22.3026 3.1366 22.3145 3.13259C22.3264 3.12859 22.3364 3.12023 22.3424 3.1092C22.8644 2.1492 23.3804 1.2036 23.8904 0.272398C23.936 0.209891 23.9984 0.161619 24.0704 0.133198H24.149C24.3926 0.179398 24.5402 0.362398 24.41 0.600598C23.9124 1.5126 23.4166 2.4258 22.9226 3.3402C22.9184 3.3486 22.9226 3.3534 22.9292 3.3552L22.9178 3.393L22.9112 3.39C22.9056 3.3856 22.9018 3.3866 22.8998 3.393C22.8984 3.39642 22.8966 3.39965 22.8944 3.4026C22.8907 3.40738 22.8891 3.41341 22.8899 3.41936C22.8907 3.42532 22.8938 3.43072 22.8986 3.4344H22.9022C24.3813 4.15504 25.6324 5.2705 26.5174 6.65757C27.4024 8.04464 27.8867 9.64934 27.917 11.2944C27.9173 11.2974 27.917 11.3003 27.9161 11.3032C27.9152 11.306 27.9137 11.3086 27.9117 11.3108C27.9097 11.313 27.9073 11.3148 27.9046 11.316C27.9019 11.3172 27.8989 11.3178 27.896 11.3178C27.8118 11.3287 27.727 11.3345 27.6422 11.3352C27.397 11.3296 26.8658 11.3264 26.0486 11.3256C20.0646 11.3228 14.0862 11.3228 8.11337 11.3256C8.10143 11.3256 8.08998 11.3209 8.08154 11.3124C8.0731 11.304 8.06836 11.2925 8.06836 11.2806C8.07516 10.9634 8.09617 10.6482 8.13137 10.335C8.32908 8.8624 8.88774 7.46151 9.75763 6.25697C10.6275 5.05242 11.7817 4.08157 13.1174 3.4308C13.1203 3.42928 13.123 3.42718 13.1251 3.42464C13.1273 3.42209 13.1289 3.41914 13.1299 3.41596C13.1309 3.41277 13.1313 3.40942 13.131 3.4061C13.1307 3.40278 13.1297 3.39955 13.1282 3.3966C12.6214 2.4694 12.1178 1.5408 11.6174 0.610798C11.4776 0.349798 11.579 0.263998 11.7926 0.130798M14.3174 6.9174C14.3174 6.75126 14.2681 6.58886 14.1758 6.45072C14.0835 6.31258 13.9523 6.20492 13.7988 6.14134C13.6453 6.07776 13.4764 6.06113 13.3135 6.09354C13.1505 6.12595 13.0009 6.20595 12.8834 6.32343C12.7659 6.44091 12.6859 6.59058 12.6535 6.75352C12.6211 6.91647 12.6377 7.08536 12.7013 7.23885C12.7649 7.39234 12.8725 7.52353 13.0107 7.61583C13.1488 7.70813 13.3112 7.7574 13.4774 7.7574C13.5877 7.7574 13.6969 7.73567 13.7988 7.69346C13.9007 7.65124 13.9933 7.58937 14.0713 7.51137C14.1493 7.43337 14.2112 7.34077 14.2534 7.23885C14.2956 7.13694 14.3174 7.02771 14.3174 6.9174ZM22.4732 7.7574C22.6399 7.77114 22.8069 7.73502 22.953 7.6536C23.0992 7.57219 23.2178 7.44918 23.2939 7.30019C23.3699 7.1512 23.3999 6.98296 23.3802 6.81685C23.3604 6.65075 23.2916 6.49428 23.1827 6.36733C23.0738 6.24037 22.9296 6.14867 22.7684 6.10387C22.6072 6.05907 22.4364 6.06319 22.2776 6.11572C22.1188 6.16825 21.9792 6.2668 21.8765 6.39887C21.7738 6.53093 21.7127 6.69053 21.701 6.8574C21.6854 7.07884 21.7577 7.2975 21.9022 7.46598C22.0468 7.63445 22.2519 7.73916 22.4732 7.7574Z" fill="#0383FE"/>
<path d="M5.1557 25.3554C4.85264 25.3617 4.5515 25.3059 4.27089 25.1912C3.99029 25.0766 3.73619 24.9056 3.5243 24.6888C3.13453 24.2972 2.90715 23.7728 2.8877 23.2206V13.8726C2.90227 13.6637 2.93642 13.4565 2.9897 13.254C3.10871 12.8739 3.32849 12.5331 3.62568 12.2679C3.92287 12.0027 4.28637 11.823 4.67753 11.7478C5.06869 11.6727 5.4729 11.7049 5.8472 11.8411C6.2215 11.9774 6.55191 12.2124 6.8033 12.5214C7.16234 12.9813 7.33385 13.5601 7.2833 14.1414C7.2833 17.1458 7.2833 20.1502 7.2833 23.1546C7.28604 23.672 7.10505 24.1736 6.77256 24.57C6.44007 24.9665 5.97767 25.232 5.4677 25.3194C5.3807 25.3344 5.2613 25.3338 5.1575 25.356" fill="#0383FE"/>
<path d="M33.1267 13.7514V23.3436C33.0892 23.6873 32.9743 24.018 32.7907 24.3108C32.6034 24.6147 32.3445 24.868 32.0367 25.0488C31.7288 25.2295 31.3815 25.3321 31.0249 25.3476H30.7423C30.2735 25.3035 29.8309 25.1117 29.4782 24.7998C29.1255 24.488 28.8809 24.0722 28.7797 23.6124C28.7398 23.3544 28.7231 23.0934 28.7299 22.8324C28.7259 19.888 28.727 16.9438 28.7334 13.9998C28.7049 13.5164 28.8405 13.0376 29.1181 12.6408C29.378 12.2696 29.7466 11.988 30.1732 11.835C30.5998 11.682 31.0634 11.665 31.5001 11.7864C31.7983 11.8566 32.0757 11.9964 32.3095 12.1944C32.5474 12.3827 32.7431 12.6188 32.8839 12.8876C33.0246 13.1563 33.1074 13.4516 33.1267 13.7544" fill="#0383FE"/>
<path d="M8.15685 12.1098H27.8483C27.8529 12.1098 27.8573 12.1116 27.8606 12.1149C27.8638 12.1182 27.8656 12.1226 27.8656 12.1272V25.9872C27.8769 26.2051 27.8769 26.4233 27.8656 26.6412C27.8306 26.9533 27.7387 27.2563 27.5944 27.5352C27.4222 27.8588 27.1765 28.1376 26.8772 28.3493C26.5779 28.561 26.2332 28.6998 25.8706 28.7544C25.2376 28.8078 24.5915 28.7652 23.9549 28.7718C23.9426 28.7718 23.9308 28.7767 23.9222 28.7853C23.9135 28.794 23.9086 28.8057 23.9086 28.818C23.9086 30.342 23.9086 31.87 23.9086 33.402C23.9163 33.6632 23.8978 33.9245 23.8534 34.182C23.7416 34.6383 23.488 35.0473 23.1289 35.3503C22.7699 35.6533 22.324 35.8345 21.8554 35.868H21.5326C21.2135 35.8412 20.9036 35.7469 20.6236 35.5914C20.2768 35.3994 19.989 35.1161 19.7915 34.7723C19.5941 34.4285 19.4945 34.0372 19.5034 33.6408C19.4776 32.0952 19.5034 30.5436 19.4998 28.9974C19.4998 28.9374 19.4878 28.8738 19.492 28.8072C19.4926 28.8041 19.4924 28.8009 19.4916 28.7979C19.4907 28.7949 19.4892 28.7921 19.4871 28.7897C19.4851 28.7874 19.4825 28.7855 19.4796 28.7843C19.4767 28.783 19.4736 28.7825 19.4705 28.7826C19.3857 28.7758 19.301 28.7724 19.2166 28.7724H16.567C16.5615 28.7724 16.5559 28.7735 16.5507 28.7756C16.5456 28.7778 16.5409 28.7809 16.5369 28.7849C16.533 28.7888 16.5298 28.7935 16.5277 28.7987C16.5255 28.8039 16.5244 28.8094 16.5244 28.815C16.5128 30.2998 16.5128 31.775 16.5244 33.2406C16.5326 33.5023 16.5232 33.7643 16.4963 34.0248C16.4146 34.5178 16.1685 34.9686 15.7982 35.304C15.4278 35.6394 14.9549 35.8397 14.4562 35.8722H14.1533C13.8229 35.8458 13.5031 35.7431 13.219 35.5722C12.8921 35.3797 12.6196 35.1071 12.4272 34.7801C12.2348 34.4531 12.1288 34.0825 12.1193 33.7032V32.0232L12.1127 28.8054C12.1164 28.8013 12.1183 28.7958 12.1181 28.7902C12.1178 28.7847 12.1153 28.7794 12.1111 28.7757C12.107 28.772 12.1016 28.77 12.096 28.7703C12.0904 28.7706 12.0852 28.7731 12.0815 28.7772C12.0215 28.782 11.9662 28.7652 11.9152 28.7664C11.0804 28.7804 10.539 28.7804 10.291 28.7664C9.78817 28.7244 9.3125 28.5204 8.93546 28.185C8.55842 27.8496 8.30036 27.4009 8.20004 26.9064C8.16067 26.6484 8.14421 26.3873 8.15084 26.1264C8.14844 21.4548 8.15045 16.7826 8.15685 12.1098Z" fill="#0383FE"/>
</g>
<defs>
<clipPath id="clip0_672_3930">
<rect width="36" height="36" fill="white"/>
</clipPath>
</defs>
</svg>
