<svg width="1440" height="522" viewBox="0 0 1440 522" fill="none" xmlns="http://www.w3.org/2000/svg">
<g opacity="0.08" clip-path="url(#clip0_2008_1169)">
<mask id="mask0_2008_1169" style="mask-type:luminance" maskUnits="userSpaceOnUse" x="0" y="0" width="1441" height="522">
<path d="M1440 406.09C1362.99 404.208 1273.08 391.151 1167.9 362.461C849.799 275.697 660.135 251.313 555.195 282.536C453.849 312.688 431.542 394.535 448.977 522H450.495C433.094 394.924 455.189 313.359 555.827 283.42C660.353 252.322 849.64 276.709 1167.32 363.359C1272.71 392.104 1362.81 405.196 1440 407.093V406.09H1440ZM1440 396.232C1357.71 396.786 1259.85 384.167 1143.26 352.366C825.155 265.602 635.492 241.218 530.552 272.439C426.553 303.378 405.786 388.755 425.784 522H427.305C407.349 389.142 427.906 304.047 531.184 273.321C635.709 242.222 824.996 266.61 1142.68 353.26C1259.48 385.12 1357.53 397.777 1440 397.238V396.232ZM1440 385.562C1352.79 389.065 1247.07 377.306 1118.62 342.267C800.512 255.502 610.848 231.119 505.908 262.34C400.8 293.61 380.701 380.477 401.79 516.177L402.689 521.998H404.21L403.296 516.08C382.277 380.821 402.183 294.269 506.543 263.222C611.069 232.123 800.355 256.511 1118.03 343.161C1246.69 378.257 1352.61 390.056 1440 386.575V385.562ZM1440 374.023C1348.28 381.004 1234.79 370.579 1093.97 332.168C775.868 245.403 586.205 221.02 481.265 252.241C376.156 283.511 356.057 370.38 377.147 506.078C377.99 511.502 378.8 516.802 379.572 521.998H381.09C380.311 516.773 379.499 511.439 378.649 505.983C357.63 370.723 377.536 284.17 481.896 253.123C586.422 222.024 775.706 246.412 1093.39 333.062C1234.4 371.529 1348.08 382.001 1440 375.047V374.025V374.023ZM1440 361.583C1344.18 372.592 1223.03 363.995 1069.33 322.071C751.225 235.306 561.561 210.922 456.621 242.143C351.513 273.414 331.414 360.281 352.503 495.98C353.898 504.973 355.202 513.629 356.407 521.998H357.924C356.716 513.598 355.407 504.911 354.006 495.886C332.986 360.626 352.893 274.073 457.253 243.027C561.779 211.929 751.065 236.316 1068.74 322.966C1222.63 364.942 1343.98 373.595 1440 362.623V361.585V361.583ZM1440 348.151C1340.56 363.758 1211.87 357.574 1044.68 311.971C726.578 225.207 536.914 200.823 431.975 232.044C326.866 263.315 306.77 350.182 327.857 485.881C329.825 498.54 331.616 510.565 333.183 521.996H334.701C333.131 510.533 331.331 498.477 329.359 485.787C308.34 350.527 328.246 263.976 432.606 232.928C537.132 201.83 726.416 226.217 1044.1 312.867C1211.46 358.519 1340.35 364.77 1440 349.211V348.153V348.151ZM1440 333.634C1337.44 354.432 1201.39 351.338 1020.04 301.874C701.935 215.11 512.271 190.726 407.331 221.947C302.223 253.217 282.123 340.087 303.213 475.784C305.767 492.233 308.03 507.607 309.882 521.996H311.397C309.539 507.573 307.276 492.168 304.716 475.689C283.696 340.43 303.602 253.876 407.963 222.829C512.489 191.73 701.775 216.118 1019.46 302.768C1200.95 352.277 1337.22 355.456 1440 334.717V333.638V333.634ZM1440 317.923C1334.89 344.528 1191.67 345.312 995.394 291.777C677.291 205.013 487.627 180.629 382.684 211.85C277.579 243.12 257.477 329.987 278.566 465.687C281.731 486.045 284.448 504.771 286.487 521.998H288.004C285.956 504.74 283.24 485.98 280.069 465.592C259.053 330.333 278.956 243.779 383.316 212.734C487.842 181.635 677.128 206.023 994.806 292.673C1191.21 346.245 1334.65 345.568 1440 319.034V317.925V317.923ZM1440 300.909C1332.96 333.954 1182.82 339.522 970.751 281.678C652.647 194.913 462.984 170.53 358.044 201.751C252.936 233.021 232.836 319.888 253.926 455.588C257.719 479.997 260.865 502.058 262.978 521.996H264.495C262.377 502.023 259.224 479.93 255.428 455.493C234.409 320.233 254.315 233.682 358.676 202.635C463.201 171.536 652.488 195.924 970.168 282.574C1182.34 340.452 1332.7 335.005 1440 302.052V300.913V300.909ZM1440 282.469C1331.72 322.588 1174.98 334.007 946.104 271.581C628.001 184.816 438.337 160.432 333.397 191.653C228.289 222.924 208.19 309.791 229.279 445.491C233.722 474.093 237.292 499.491 239.334 521.996H240.851C238.8 499.453 235.228 474.02 230.782 445.396C209.763 310.136 229.669 223.585 334.029 192.538C438.555 161.439 627.841 185.826 945.518 272.477C1174.46 334.924 1331.44 323.661 1440 283.649V282.473V282.469ZM1440 262.401C1331.28 310.241 1168.32 328.817 921.461 261.483C603.357 174.719 413.694 150.335 308.754 181.556C203.645 212.827 183.546 299.694 204.636 435.393C209.756 468.363 213.712 497.066 215.512 521.996H217.03C215.221 497.022 211.265 468.288 206.138 435.299C185.119 300.039 205.025 213.486 309.385 182.44C413.911 151.342 603.195 175.729 920.875 262.379C1167.76 329.719 1330.96 311.354 1440 263.642L1440 262.401ZM1440 240.535C1331.73 296.714 1163.06 324.004 896.817 251.386C578.714 164.622 389.05 140.238 284.11 171.459C179.002 202.729 158.902 289.597 179.992 425.296C185.821 462.814 190.135 494.806 191.485 521.998H193.005C191.644 494.759 187.327 462.733 181.495 425.201C160.475 289.942 180.382 203.39 284.742 172.343C389.268 141.244 578.554 165.632 896.231 252.282C1162.45 324.896 1331.38 297.863 1440 241.828V240.539V240.535ZM1440 216.55C1333.23 281.652 1159.54 319.669 872.173 241.287C554.07 154.523 364.406 130.139 259.467 161.36C154.358 192.63 134.262 279.497 155.349 415.197C161.917 457.462 166.565 492.725 167.209 521.996H168.736C168.071 492.671 163.419 457.374 156.851 415.102C135.832 279.843 155.738 193.291 260.098 162.244C364.624 131.145 553.908 155.533 871.588 242.183C1158.85 320.541 1332.84 282.866 1440 217.928V216.552V216.55ZM1440 190.152C1335.97 264.635 1158.17 315.92 847.53 231.19C529.427 144.425 339.763 120.042 234.823 151.263C129.715 182.533 109.615 269.4 130.705 405.1C138.046 452.346 142.992 490.844 142.624 521.996H144.16C144.503 490.781 139.548 452.245 132.211 405.005C111.191 269.745 131.098 183.192 235.458 152.147C339.984 121.048 529.27 145.436 846.95 232.086C1157.35 316.755 1335.52 265.953 1440 191.657V190.154V190.152ZM1440 160.892C1340.21 244.979 1159.57 312.928 822.883 221.093C504.78 134.328 315.116 109.944 210.173 141.165C105.068 172.436 84.9657 259.303 106.055 395.003C114.212 447.489 119.409 489.183 117.652 521.996H119.201C120.921 489.11 115.714 447.377 107.561 394.908C86.5447 259.648 106.451 173.095 210.808 142.05C315.334 110.951 504.621 135.338 822.298 221.989C1158.63 313.73 1339.68 246.421 1440 162.514V160.894V160.892ZM1440 128.205C1346.32 221.616 1164.71 310.953 798.24 210.995C480.136 124.231 290.473 99.8473 185.533 131.068C80.4246 162.339 60.3253 249.206 81.415 384.905C90.4329 442.933 95.8356 487.77 92.2144 521.998H93.772C97.3411 487.685 91.9292 442.807 82.9175 384.811C61.8982 249.551 81.8044 163 186.165 131.952C290.69 100.854 479.977 125.241 797.657 211.891C1163.56 311.697 1345.69 223.263 1440 130.001V128.209V128.205ZM1440 91.2419C1354.86 192.611 1175.27 310.458 773.596 200.898C455.493 114.134 265.829 89.7501 160.889 120.973C55.781 152.241 35.6816 239.111 56.7714 374.81C66.703 438.728 72.2529 486.647 66.1848 522H67.7609C73.7554 486.544 68.1993 438.584 58.2738 374.715C37.2546 239.456 57.1609 152.902 161.521 121.855C266.047 90.7564 455.333 115.144 773.011 201.794C1173.77 311.107 1354.08 194.615 1440 93.2822V91.2438V91.2419ZM1440 48.9094C1366.72 154.13 1194.4 312.301 748.953 190.801C430.849 104.037 241.186 79.6529 136.246 110.874C31.1375 142.144 11.0381 229.011 32.1278 364.711C43.0376 434.93 48.6672 485.848 39.4041 521.998H41.0261C50.179 485.725 44.5309 434.754 33.6334 364.616C12.6141 229.357 32.5203 142.803 136.88 111.758C241.406 80.6592 430.69 105.047 748.37 191.697C1192.31 312.786 1365.74 156.8 1440 51.2674V48.9114V48.9094ZM13.2826 521.998C26.5594 485.291 20.936 431.437 8.98364 354.519C-12.0355 219.259 7.87073 132.708 112.231 101.661C216.757 70.562 406.043 94.9496 723.72 181.6C1185.88 307.658 1354.89 133.424 1424.03 28.4446C1430.08 19.263 1435.36 10.6162 1440 2.75073V0C1435.02 8.49886 1429.29 17.9686 1422.64 28.0697C1353.71 132.724 1185.2 306.417 724.306 180.704C406.203 93.9393 216.539 69.5557 111.599 100.777C6.49084 132.047 -13.6055 218.914 7.4812 354.614C19.4489 431.64 25.0602 485.441 11.6329 521.998H13.2826Z" fill="white"/>
</mask>
<g mask="url(#mask0_2008_1169)">
<path d="M0 0H1440V522H0V0Z" fill="#087C7C"/>
</g>
</g>
<defs>
<clipPath id="clip0_2008_1169">
<rect width="1440" height="522" fill="white" transform="matrix(-1 0 0 1 1440 0)"/>
</clipPath>
</defs>
</svg>
